<svg width="207" height="32" viewBox="0 0 207 32" fill="none" xmlns="http://www.w3.org/2000/svg">
<g clip-path="url(#clip0_926_17581)">
<path d="M46.0159 20.8315H55.1039C55.4879 20.8315 55.6799 21.0235 55.6799 21.4075V23.4875C55.6799 23.8715 55.4879 24.0635 55.1039 24.0635H42.9119C42.5279 24.0635 42.3359 23.8715 42.3359 23.4875V8.51155C42.3359 8.12755 42.5279 7.93555 42.9119 7.93555H54.8799C55.2639 7.93555 55.4559 8.12755 55.4559 8.51155V10.5915C55.4559 10.9755 55.2639 11.1675 54.8799 11.1675H46.0159V14.2715H52.7999C53.1839 14.2715 53.3759 14.4635 53.3759 14.8475V16.9275C53.3759 17.3115 53.1839 17.5035 52.7999 17.5035H46.0159V20.8315Z" fill="white"/>
<path d="M75.0078 12.8959C75.0078 13.2799 74.8158 13.4719 74.4318 13.4719H71.9038C71.5198 13.4719 71.3278 13.2799 71.3278 12.8959V12.1919C71.3278 11.3599 70.9118 10.9119 70.0478 10.9119H65.2158C64.3838 10.9119 63.9358 11.3279 63.9358 12.1919V19.7759C63.9358 20.6079 64.3518 21.0559 65.2158 21.0559H70.0478C70.8798 21.0559 71.3278 20.6399 71.3278 19.7759V19.0719C71.3278 18.6879 71.5198 18.4959 71.9038 18.4959H74.4318C74.8158 18.4959 75.0078 18.6879 75.0078 19.0719V20.2239C75.0078 22.9119 73.6638 24.2559 70.9758 24.2559H64.3198C61.6318 24.2559 60.2878 22.9119 60.2878 20.2239V11.7439C60.2878 9.05591 61.6318 7.71191 64.3198 7.71191H70.9758C73.6638 7.71191 75.0078 9.05591 75.0078 11.7439V12.8959Z" fill="white"/>
<path d="M95.3598 20.2559C95.3598 22.9439 94.0158 24.2879 91.3278 24.2879H84.3198C81.6318 24.2879 80.2878 22.9439 80.2878 20.2559V11.7439C80.2878 9.05591 81.6318 7.71191 84.3198 7.71191H91.3278C94.0158 7.71191 95.3598 9.05591 95.3598 11.7439V20.2559ZM91.6798 12.1919C91.6798 11.3599 91.2638 10.9119 90.3998 10.9119H85.2158C84.3838 10.9119 83.9358 11.3279 83.9358 12.1919V19.7759C83.9358 20.6079 84.3518 21.0559 85.2158 21.0559H90.3998C91.2318 21.0559 91.6798 20.6399 91.6798 19.7759V12.1919Z" fill="white"/>
<path d="M104.768 23.4875C104.768 23.8715 104.576 24.0635 104.192 24.0635H101.664C101.28 24.0635 101.088 23.8715 101.088 23.4875V8.51155C101.088 8.12755 101.28 7.93555 101.664 7.93555H113.728C114.112 7.93555 114.304 8.12755 114.304 8.51155V10.5915C114.304 10.9755 114.112 11.1675 113.728 11.1675H104.768V14.9755H110.752C111.136 14.9755 111.328 15.1675 111.328 15.5515V17.5995C111.328 17.9835 111.136 18.1755 110.752 18.1755H104.768V23.4875Z" fill="white"/>
<path d="M120.128 20.7035L119.104 23.4555C119.04 23.6155 118.944 23.7755 118.816 23.8715C118.688 23.9675 118.528 24.0315 118.304 24.0315H115.424C115.04 24.0315 114.912 23.8395 115.072 23.4555L120.704 8.51155C120.864 8.12755 121.152 7.93555 121.632 7.93555H124.96C125.184 7.93555 125.376 7.99955 125.472 8.09555C125.6 8.19155 125.696 8.35155 125.76 8.51155L131.392 23.4555C131.552 23.8395 131.424 24.0315 131.04 24.0315H128.16C127.936 24.0315 127.744 23.9675 127.648 23.8715C127.552 23.7755 127.424 23.6155 127.36 23.4555L126.336 20.7035H120.128ZM125.184 17.5035L123.36 12.5755H123.136L121.28 17.5035H125.184Z" fill="white"/>
<path d="M150.304 12.8959C150.304 13.2799 150.112 13.4719 149.728 13.4719H147.2C146.816 13.4719 146.624 13.2799 146.624 12.8959V12.1919C146.624 11.3599 146.208 10.9119 145.344 10.9119H140.512C139.68 10.9119 139.232 11.3279 139.232 12.1919V19.7759C139.232 20.6079 139.648 21.0559 140.512 21.0559H145.344C146.176 21.0559 146.624 20.6399 146.624 19.7759V19.0719C146.624 18.6879 146.816 18.4959 147.2 18.4959H149.728C150.112 18.4959 150.304 18.6879 150.304 19.0719V20.2239C150.304 22.9119 148.96 24.2559 146.272 24.2559H139.616C136.928 24.2559 135.584 22.9119 135.584 20.2239V11.7439C135.584 9.05591 136.928 7.71191 139.616 7.71191H146.272C148.96 7.71191 150.304 9.05591 150.304 11.7439V12.8959Z" fill="white"/>
<path d="M163.072 23.4875C163.072 23.8715 162.88 24.0635 162.496 24.0635H159.968C159.584 24.0635 159.392 23.8715 159.392 23.4875V11.1675H154.784C154.4 11.1675 154.208 10.9755 154.208 10.5915V8.51155C154.208 8.12755 154.4 7.93555 154.784 7.93555H167.68C168.064 7.93555 168.256 8.12755 168.256 8.51155V10.5915C168.256 10.9755 168.064 11.1675 167.68 11.1675H163.072V23.4875Z" fill="white"/>
<path d="M186.976 20.2559C186.976 22.9439 185.632 24.2879 182.944 24.2879H175.936C173.248 24.2879 171.904 22.9439 171.904 20.2559V11.7439C171.904 9.05591 173.248 7.71191 175.936 7.71191H182.944C185.632 7.71191 186.976 9.05591 186.976 11.7439V20.2559ZM183.328 12.1919C183.328 11.3599 182.912 10.9119 182.048 10.9119H176.864C176.032 10.9119 175.584 11.3279 175.584 12.1919V19.7759C175.584 20.6079 176 21.0559 176.864 21.0559H182.048C182.88 21.0559 183.328 20.6399 183.328 19.7759V12.1919Z" fill="white"/>
<path d="M206.752 14.9755C206.752 15.8395 206.624 16.5435 206.336 17.0235C206.08 17.5355 205.792 17.8875 205.472 18.1755C205.088 18.4955 204.672 18.6875 204.192 18.7835L206.848 23.4875C206.944 23.6475 206.944 23.8075 206.88 23.9035C206.816 23.9995 206.688 24.0635 206.496 24.0635H203.744C203.52 24.0635 203.328 23.9995 203.168 23.9035C203.008 23.8075 202.912 23.6475 202.816 23.4875L200.416 19.0075H196.384V23.4875C196.384 23.8715 196.192 24.0635 195.808 24.0635H193.28C192.896 24.0635 192.704 23.8715 192.704 23.4875V8.51155C192.704 8.12755 192.896 7.93555 193.28 7.93555H202.72C205.408 7.93555 206.752 9.27955 206.752 11.9675V14.9755ZM196.416 11.1675V15.7755H201.824C202.656 15.7755 203.104 15.3595 203.104 14.4955V12.4155C203.104 11.5835 202.688 11.1355 201.824 11.1355H196.416V11.1675Z" fill="white"/>
<path d="M27.552 32H4.60796C2.11196 32 0.0639648 29.984 0.0639648 27.456V4.544C0.0959648 2.016 2.11196 0 4.60796 0H27.552C30.048 0 32.096 2.016 32.096 4.544V27.488C32.096 29.984 30.048 32 27.552 32Z" fill="#3BF285"/>
<path d="M10.72 13.1197C12.7171 13.1197 14.336 11.5008 14.336 9.5037C14.336 7.50663 12.7171 5.8877 10.72 5.8877C8.72294 5.8877 7.104 7.50663 7.104 9.5037C7.104 11.5008 8.72294 13.1197 10.72 13.1197Z" fill="white"/>
<path d="M21.6001 19.3599H14.4961V17.4399H19.7121C20.2561 17.4399 20.6081 17.0879 20.6081 16.5439V14.8159C20.6081 14.2719 20.2561 13.9199 19.7121 13.9199H14.4961V12.1919H21.4081C21.9521 12.1919 22.3041 11.8399 22.3041 11.2959V9.56787C22.3041 9.02387 21.9521 8.67188 21.4081 8.67188H11.4881C10.9441 8.67188 10.5921 9.02387 10.5921 9.56787V19.6159C10.3041 19.7759 10.1121 20.0639 10.1121 20.4159C10.1121 20.9279 10.5281 21.3119 11.0081 21.3119C11.4881 21.3119 11.9041 20.8959 11.9041 20.4159C11.9041 20.0639 11.7121 19.7759 11.4241 19.6159V9.56787C11.4241 9.53587 11.4241 9.53588 11.4241 9.50388C11.4241 9.50388 11.4561 9.50388 11.4881 9.50388H21.3761C21.4081 9.50388 21.4081 9.50388 21.4401 9.50388C21.4401 9.50388 21.4401 9.53587 21.4401 9.56787V11.2959C21.4401 11.3279 21.4401 11.3279 21.4401 11.3599C21.4401 11.3599 21.4081 11.3599 21.3761 11.3599H14.0801C13.8561 11.3599 13.6641 11.5519 13.6641 11.7759V14.3359C13.6641 14.5599 13.8561 14.7519 14.0801 14.7519H19.7121C19.7441 14.7519 19.7441 14.7519 19.7761 14.7519C19.7761 14.7519 19.7761 14.7839 19.7761 14.8159V16.5439C19.7761 16.5759 19.7761 16.5759 19.7761 16.6079C19.7761 16.6079 19.7441 16.6079 19.7121 16.6079H14.0801C13.8561 16.6079 13.6641 16.7999 13.6641 17.0239V19.7759C13.6641 19.9999 13.8561 20.1919 14.0801 20.1919H21.6001C21.6321 20.1919 21.6321 20.1919 21.6641 20.1919C21.6641 20.1919 21.6641 20.2239 21.6641 20.2559V21.9839C21.6641 22.0159 21.6641 22.0159 21.6641 22.0479C21.6641 22.0479 21.6321 22.0479 21.6001 22.0479H16.8321C16.6081 22.0479 16.4161 22.2399 16.4161 22.4639C16.4161 22.6879 16.6081 22.8799 16.8321 22.8799H21.5681C22.1121 22.8799 22.4641 22.5279 22.4641 21.9839V20.2559C22.4641 19.6799 22.1441 19.3599 21.6001 19.3599Z" fill="#3A3A3A"/>
</g>
<defs>
<clipPath id="clip0_926_17581">
<rect width="206.72" height="32" fill="white"/>
</clipPath>
</defs>
</svg>
