<svg width="82" height="32" viewBox="0 0 82 32" fill="none" xmlns="http://www.w3.org/2000/svg">
<g clip-path="url(#clip0_1516_18078)">
<path d="M11.1797 4.02787C8.35786 4.32318 5.93442 5.68256 4.28442 7.90443L3.93286 8.3685L4.5563 8.77631C5.50786 9.39506 5.67661 9.49818 5.68599 9.47943C5.69536 9.47006 5.84536 9.24037 6.0188 8.97318C6.71255 7.92318 7.8188 6.97162 8.97661 6.43725C11.2407 5.38725 13.9172 5.60287 16.0313 7.00443C16.6641 7.42631 17.5594 8.331 17.9766 8.9685C18.1547 9.24037 18.3047 9.47006 18.3094 9.47943C18.3282 9.49818 18.511 9.38568 19.3735 8.82787L20.0672 8.37318L19.7063 7.89506C18.1922 5.86537 16.0032 4.53412 13.5001 4.11693C13.0735 4.04662 11.5688 3.98568 11.1797 4.02787Z" fill="white"/>
<path d="M10.992 7.25781C9.37951 7.5625 7.94045 8.53281 7.09201 9.89688C6.9092 10.1875 6.88576 10.2484 6.94201 10.3047C6.97951 10.3375 7.38263 10.6094 7.8467 10.9094L8.68576 11.4531L8.84045 11.0969C9.24826 10.1547 10.1436 9.38594 11.1326 9.13281C12.7826 8.70156 14.5873 9.61094 15.192 11.1672C15.2529 11.3266 15.3139 11.4484 15.3326 11.4438C15.492 11.3688 17.1045 10.2906 17.1092 10.2531C17.1139 10.1266 16.4904 9.28281 16.1061 8.89844C15.2998 8.09688 14.5029 7.6375 13.3967 7.35156C12.9889 7.24375 12.792 7.22031 12.1404 7.20625C11.592 7.19688 11.2592 7.21094 10.992 7.25781Z" fill="white"/>
<path d="M11.4891 10.4969C10.4766 10.7688 9.80626 11.786 9.9797 12.7844C10.0969 13.4594 10.4953 14.0031 11.0766 14.2891C12.3328 14.9031 13.7813 14.1672 14.0203 12.7938C14.2641 11.3735 12.886 10.1219 11.4891 10.4969Z" fill="white"/>
<path d="M2.58744 13.3326C1.35463 13.5107 0.332753 14.4904 0.0749405 15.7326C-0.032872 16.2482 -0.0375595 25.0795 0.0702531 25.5857C0.304628 26.7107 1.289 27.6951 2.414 27.9295C2.90619 28.0326 21.0937 28.0326 21.5859 27.9295C22.7109 27.6951 23.6953 26.7107 23.9296 25.5857C24.0374 25.0748 24.0328 16.2529 23.9249 15.7279C23.6999 14.617 22.8562 13.7217 21.7265 13.3889C21.4734 13.3186 21.1312 13.3092 18.4078 13.2904C15.5203 13.2764 15.3703 13.2811 15.3468 13.3607C15.0796 14.1201 14.8312 14.5232 14.3437 14.9826C13.6781 15.6107 12.9187 15.9107 11.9999 15.9107C11.0812 15.9107 10.3218 15.6107 9.65619 14.9826C9.16869 14.5232 8.91557 14.1154 8.65775 13.3607C8.62963 13.2857 8.4515 13.2811 5.75619 13.2857C4.1765 13.2904 2.7515 13.3139 2.58744 13.3326ZM6.51557 18.4748C7.91713 19.042 8.264 20.842 7.17182 21.8311C7.06869 21.9248 6.98432 22.0139 6.98432 22.0326C6.98432 22.0467 7.18588 22.6889 7.42963 23.4529C7.67338 24.217 7.87494 24.8592 7.87494 24.8732C7.87494 24.892 7.54682 24.9061 7.14838 24.9061C6.60463 24.9061 6.41244 24.892 6.39838 24.8451C6.389 24.817 6.20619 24.2545 5.99994 23.6029L5.62025 22.4217H5.339H5.06244L5.05307 23.6498L5.039 24.8826L4.34994 24.8967L3.65619 24.9107V21.6248V18.3389L4.95932 18.3529C6.17338 18.367 6.27182 18.3764 6.51557 18.4748ZM12.3749 19.0467V19.7498H11.4609H10.5468V20.2889V20.8232L11.1468 20.8373L11.7421 20.8514L11.7562 21.5404L11.7703 22.2342H11.1562H10.5468L10.5374 23.5561L10.5234 24.8826L9.83432 24.8967L9.14057 24.9107V21.6248V18.3436H10.7578H12.3749V19.0467ZM14.9531 21.6248V24.9107L14.264 24.8967L13.5703 24.8826L13.5562 21.6107L13.5468 18.3436H14.2499H14.9531V21.6248ZM18.6562 18.4139C19.9968 18.7701 20.7843 20.0732 20.7046 21.7889C20.6906 22.0982 20.6437 22.4779 20.6015 22.6326C20.4093 23.3217 19.9921 23.9826 19.514 24.3389C18.9374 24.7701 18.6281 24.8451 17.2406 24.8732L16.1718 24.8967V21.6201V18.3436H17.2874C18.1078 18.3436 18.464 18.3623 18.6562 18.4139Z" fill="white"/>
<path d="M5.0625 20.3824V21.0293L5.50313 21.0059C6.01406 20.9777 6.22031 20.884 6.35156 20.6121C6.46406 20.373 6.41719 20.148 6.21094 19.9371L6.04688 19.773L5.55469 19.759L5.0625 19.7402V20.3824Z" fill="white"/>
<path d="M17.5781 21.6016V23.4531H17.8969C18.7688 23.4531 19.3125 22.7359 19.3125 21.5875C19.3078 20.7203 18.975 20.0359 18.4406 19.8156C18.3516 19.7781 18.1266 19.75 17.9297 19.75H17.5781V21.6016Z" fill="white"/>
</g>
<path d="M43.4893 23L40.4693 18.7C40.096 18.7267 39.8026 18.74 39.5893 18.74H36.1293V23H34.1293V9H39.5893C41.4026 9 42.8293 9.43333 43.8693 10.3C44.9093 11.1667 45.4293 12.36 45.4293 13.88C45.4293 14.96 45.1626 15.88 44.6293 16.64C44.096 17.4 43.336 17.9533 42.3493 18.3L45.6693 23H43.4893ZM39.5293 17.04C40.796 17.04 41.7626 16.7667 42.4293 16.22C43.096 15.6733 43.4293 14.8933 43.4293 13.88C43.4293 12.8667 43.096 12.0933 42.4293 11.56C41.7626 11.0133 40.796 10.74 39.5293 10.74H36.1293V17.04H39.5293ZM50.6605 10.74V15.62H57.6805V17.34H50.6605V23H48.6605V9H58.5405V10.74H50.6605ZM61.3559 9H63.3559V23H61.3559V9ZM67.5473 9H73.4473C74.9273 9 76.2406 9.29333 77.3873 9.88C78.5339 10.4667 79.4206 11.2933 80.0473 12.36C80.6873 13.4133 81.0073 14.6267 81.0073 16C81.0073 17.3733 80.6873 18.5933 80.0473 19.66C79.4206 20.7133 78.5339 21.5333 77.3873 22.12C76.2406 22.7067 74.9273 23 73.4473 23H67.5473V9ZM73.3273 21.26C74.4606 21.26 75.4539 21.04 76.3073 20.6C77.1739 20.16 77.8406 19.5467 78.3073 18.76C78.7739 17.96 79.0073 17.04 79.0073 16C79.0073 14.96 78.7739 14.0467 78.3073 13.26C77.8406 12.46 77.1739 11.84 76.3073 11.4C75.4539 10.96 74.4606 10.74 73.3273 10.74H69.5473V21.26H73.3273Z" fill="white"/>
<defs>
<clipPath id="clip0_1516_18078">
<rect width="24" height="24" fill="white" transform="translate(0 4)"/>
</clipPath>
</defs>
</svg>
