<svg width="28" height="28" viewBox="0 0 28 28" fill="none" xmlns="http://www.w3.org/2000/svg">
<mask id="path-1-inside-1_1335_50678" fill="white">
<path d="M13.5484 0.277373C13.5484 0.125222 13.4223 0.00262875 13.2702 0.00911718C5.88812 0.324212 0 6.40865 0 13.8683C0 21.328 5.88812 27.4125 13.2702 27.7276C13.4223 27.7341 13.5484 27.6115 13.5484 27.4593C13.5484 27.3121 13.43 27.1921 13.283 27.1857C6.19428 26.8774 0.541935 21.033 0.541935 13.8683C0.541935 6.70372 6.19428 0.859277 13.283 0.551018C13.43 0.544622 13.5484 0.424579 13.5484 0.277373Z"/>
</mask>
<path d="M13.5484 0.277373C13.5484 0.125222 13.4223 0.00262875 13.2702 0.00911718C5.88812 0.324212 0 6.40865 0 13.8683C0 21.328 5.88812 27.4125 13.2702 27.7276C13.4223 27.7341 13.5484 27.6115 13.5484 27.4593C13.5484 27.3121 13.43 27.1921 13.283 27.1857C6.19428 26.8774 0.541935 21.033 0.541935 13.8683C0.541935 6.70372 6.19428 0.859277 13.283 0.551018C13.43 0.544622 13.5484 0.424579 13.5484 0.277373Z" fill="#00DEA0"/>
<path d="M13.283 27.1857L13.346 25.7354L13.283 27.1857ZM13.2702 27.7276L13.2083 29.1779L13.2702 27.7276ZM13.283 0.551018L13.2199 -0.899225L13.283 0.551018ZM13.2083 -1.44118C5.05264 -1.09306 -1.45161 5.62768 -1.45161 13.8683H1.45161C1.45161 7.18963 6.7236 1.74149 13.3322 1.45941L13.2083 -1.44118ZM-1.45161 13.8683C-1.45161 22.109 5.05264 28.8297 13.2083 29.1779L13.3322 26.2773C6.7236 25.9952 1.45161 20.5471 1.45161 13.8683H-1.45161ZM-0.909678 13.8683C-0.909678 21.8135 5.35818 28.294 13.2199 28.6359L13.346 25.7354C7.03038 25.4608 1.99355 20.2524 1.99355 13.8683H-0.909678ZM13.2199 -0.899225C5.35817 -0.557349 -0.909678 5.92314 -0.909678 13.8683H1.99355C1.99355 7.4843 7.03038 2.2759 13.346 2.00126L13.2199 -0.899225ZM15 27.4593C15 26.5109 14.2453 25.7745 13.346 25.7354L13.2199 28.6359C12.6148 28.6096 12.0968 28.1133 12.0968 27.4593H15ZM13.2083 29.1779C14.198 29.2201 15 28.4249 15 27.4593H12.0968C12.0968 26.798 12.6465 26.248 13.3322 26.2773L13.2083 29.1779ZM13.346 2.00126C14.2453 1.96215 15 1.22581 15 0.277373H12.0968C12.0968 -0.376646 12.6148 -0.87291 13.2199 -0.899225L13.346 2.00126ZM13.3322 1.45941C12.6465 1.48868 12.0968 0.938703 12.0968 0.277373H15C15 -0.688258 14.1981 -1.48342 13.2083 -1.44118L13.3322 1.45941Z" fill="#7AD446" mask="url(#path-1-inside-1_1335_50678)"/>
<mask id="path-3-inside-2_1335_50678" fill="white">
<path d="M14.4517 0.277373C14.4517 0.125222 14.5778 0.00262875 14.7298 0.00911718C22.1119 0.324212 28 6.40865 28 13.8683C28 21.328 22.1119 27.4125 14.7298 27.7276C14.5778 27.7341 14.4517 27.6115 14.4517 27.4593C14.4517 27.3121 14.57 27.1921 14.7171 27.1857C21.8058 26.8774 27.4581 21.033 27.4581 13.8683C27.4581 6.70372 21.8058 0.859277 14.7171 0.551018C14.57 0.544622 14.4517 0.424579 14.4517 0.277373Z"/>
</mask>
<path d="M14.4517 0.277373C14.4517 0.125222 14.5778 0.00262875 14.7298 0.00911718C22.1119 0.324212 28 6.40865 28 13.8683C28 21.328 22.1119 27.4125 14.7298 27.7276C14.5778 27.7341 14.4517 27.6115 14.4517 27.4593C14.4517 27.3121 14.57 27.1921 14.7171 27.1857C21.8058 26.8774 27.4581 21.033 27.4581 13.8683C27.4581 6.70372 21.8058 0.859277 14.7171 0.551018C14.57 0.544622 14.4517 0.424579 14.4517 0.277373Z" fill="#00DEA0"/>
<path d="M14.7171 27.1857L14.654 25.7354L14.7171 27.1857ZM14.6679 1.45941C21.2765 1.74149 26.5484 7.18963 26.5484 13.8683H29.4517C29.4517 5.62768 22.9474 -1.09306 14.7917 -1.44118L14.6679 1.45941ZM26.5484 13.8683C26.5484 20.5471 21.2765 25.9952 14.6679 26.2773L14.7917 29.1779C22.9474 28.8297 29.4517 22.109 29.4517 13.8683H26.5484ZM26.0065 13.8683C26.0065 20.2524 20.9697 25.4608 14.654 25.7354L14.7802 28.6359C22.6419 28.294 28.9097 21.8135 28.9097 13.8683H26.0065ZM14.654 2.00126C20.9697 2.2759 26.0065 7.4843 26.0065 13.8683H28.9097C28.9097 5.92314 22.6419 -0.557349 14.7802 -0.899225L14.654 2.00126ZM15.9033 27.4593C15.9033 28.1133 15.3853 28.6096 14.7802 28.6359L14.654 25.7354C13.7548 25.7745 13 26.5109 13 27.4593H15.9033ZM14.6679 26.2773C15.3536 26.248 15.9033 26.798 15.9033 27.4593H13C13 28.4249 13.802 29.2201 14.7917 29.1779L14.6679 26.2773ZM14.7802 -0.899225C15.3853 -0.87291 15.9033 -0.376646 15.9033 0.277373H13C13 1.22581 13.7548 1.96215 14.654 2.00126L14.7802 -0.899225ZM14.7917 -1.44118C13.802 -1.48342 13 -0.688258 13 0.277373H15.9033C15.9033 0.938703 15.3536 1.48868 14.6679 1.45941L14.7917 -1.44118Z" fill="#7AD446" mask="url(#path-3-inside-2_1335_50678)"/>
<path d="M5.56226 16.5877H6.14362V12.5379H6.17742L6.27206 12.7129L8.81381 16.5877H9.55741V11.6836H8.97605V15.7334H8.94225L8.82733 15.5315L6.32613 11.6836H5.56226V16.5877Z" fill="white"/>
<path d="M12.9939 16.655C13.7195 16.655 14.2873 16.4442 14.6974 16.0226C15.112 15.5966 15.3194 14.9732 15.3194 14.1525V14.1256C15.3194 13.5784 15.2247 13.121 15.0354 12.7532C14.8462 12.381 14.578 12.1007 14.231 11.9123C13.884 11.7195 13.4716 11.623 12.9939 11.623C12.5207 11.623 12.1106 11.7195 11.7636 11.9123C11.4166 12.1007 11.1484 12.381 10.9592 12.7532C10.7699 13.121 10.6752 13.5784 10.6752 14.1256V14.1525C10.6752 14.9732 10.8803 15.5966 11.2904 16.0226C11.705 16.4442 12.2729 16.655 12.9939 16.655ZM12.9939 16.1303C12.6334 16.1303 12.3269 16.0608 12.0746 15.9217C11.8222 15.7827 11.6307 15.5899 11.5 15.3432C11.3738 15.0965 11.3107 14.8095 11.3107 14.4821V13.7959C11.3107 13.473 11.3738 13.1882 11.5 12.9416C11.6261 12.6949 11.8132 12.5021 12.061 12.363C12.3134 12.2195 12.6244 12.1478 12.9939 12.1478C13.368 12.1478 13.6789 12.2195 13.9268 12.363C14.1747 12.5021 14.3617 12.6949 14.4879 12.9416C14.6141 13.1882 14.6772 13.473 14.6772 13.7959V14.4821C14.6772 14.8095 14.6118 15.0965 14.4811 15.3432C14.3549 15.5899 14.1656 15.7827 13.9133 15.9217C13.6654 16.0608 13.359 16.1303 12.9939 16.1303Z" fill="white"/>
<path d="M16.4416 16.5877H17.0365V11.6836H16.4416V16.5877Z" fill="white"/>
<path d="M18.5805 16.5877H19.1754V14.6906H20.4057L21.6901 16.5877H22.3999L21.0682 14.6234C21.4873 14.574 21.805 14.4216 22.0214 14.1659C22.2377 13.9058 22.3458 13.5784 22.3458 13.1838C22.3458 12.7084 22.2061 12.3406 21.9267 12.0805C21.6473 11.8159 21.2372 11.6836 20.6964 11.6836H18.5805V16.5877ZM20.5882 12.2083C20.9353 12.2083 21.2079 12.2801 21.4062 12.4236C21.6045 12.5671 21.7036 12.7734 21.7036 13.0425V13.3788C21.7036 13.6524 21.6045 13.861 21.4062 14.0045C21.2079 14.1435 20.9353 14.213 20.5882 14.213H19.1754V12.2083H20.5882Z" fill="white"/>
</svg>
