<svg width="180" height="55" viewBox="0 0 180 55" fill="none" xmlns="http://www.w3.org/2000/svg">
<g clip-path="url(#clip0_476_4477)">
<path d="M173.042 0H6.95794C3.11517 0 0 3.12998 0 6.991V48.009C0 51.87 3.11517 55 6.95794 55H173.042C176.885 55 180 51.87 180 48.009V6.991C180 3.12998 176.885 0 173.042 0Z" fill="none"/>
<path d="M11.2857 22.4245C8.36967 27.4993 10.2233 35.203 13.4463 39.8713C15.0556 42.2066 16.685 44.3027 18.9171 44.3027C18.9588 44.3027 19.0013 44.3027 19.0445 44.3027C20.0928 44.2608 20.8512 43.9365 21.5836 43.6242C22.4031 43.2722 23.2569 42.909 24.592 42.909C25.8586 42.909 26.6714 43.261 27.4544 43.6002C28.2375 43.9395 29.019 44.2825 30.1969 44.2601C32.7114 44.213 34.2551 41.9517 35.617 39.9565C36.6384 38.4516 37.4397 36.8079 37.9967 35.0752L38.0063 35.0446C38.0284 34.9784 38.0254 34.9064 37.9979 34.8423C37.9704 34.7783 37.9204 34.7266 37.8573 34.6971L37.8372 34.6881C37.3939 34.5066 33.5101 32.7781 33.4698 28.0687C33.4318 24.2419 36.3829 22.216 36.9752 21.8483L37.0028 21.8304C37.0345 21.8099 37.0618 21.7833 37.083 21.7521C37.1043 21.7208 37.1191 21.6856 37.1265 21.6485C37.1339 21.6115 37.1339 21.5733 37.1263 21.5362C37.1188 21.4992 37.1039 21.464 37.0825 21.4328C35.0456 18.4437 31.9239 17.9953 30.6663 17.9378C30.4845 17.9199 30.2938 17.9102 30.1068 17.9102C28.6308 17.9102 27.216 18.4691 26.0836 18.919C25.2991 19.2299 24.6211 19.4974 24.1547 19.4974C23.6294 19.4974 22.9477 19.2261 22.1595 18.9123C21.1038 18.4923 19.908 18.0155 18.6422 18.0155H18.5528C15.6002 18.0604 12.8183 19.75 11.2857 22.4245Z" fill="#0D0D0D"/>
<path d="M30.6641 9.70919C28.8812 9.78392 26.743 10.8824 25.4652 12.3837C24.3782 13.6459 23.3181 15.7465 23.5974 17.871C23.6058 17.9354 23.636 17.995 23.6829 18.0398C23.7298 18.0845 23.7907 18.1118 23.8552 18.1169C23.9759 18.1258 24.0988 18.1311 24.221 18.1311C25.9637 18.1311 27.8441 17.1633 29.1286 15.606C30.4801 13.962 31.1633 11.8516 30.9569 9.96103C30.9487 9.88977 30.914 9.82426 30.8597 9.77757C30.8054 9.73088 30.7355 9.70646 30.6641 9.70919Z" fill="#0D0D0D"/>
<path d="M51.1741 9.56445H54.5543C55.4409 9.56445 56.2279 9.74804 56.9153 10.1152C57.582 10.4623 58.138 10.9902 58.5201 11.6389C58.8963 12.3141 59.0938 13.0748 59.0938 13.8483C59.0938 14.6217 58.8963 15.3824 58.5201 16.0576C58.138 16.7063 57.582 17.2342 56.9153 17.5813C56.2274 17.9485 55.4404 18.132 54.5543 18.132H51.1741V9.56445ZM54.5051 17.5693C55.2944 17.5693 55.9897 17.4122 56.5912 17.0978C57.1722 16.8037 57.6555 16.3465 57.9822 15.7818C58.3025 15.1879 58.4702 14.5232 58.4702 13.8479C58.4702 13.1726 58.3025 12.5079 57.9822 11.9139C57.6553 11.3497 57.172 10.8928 56.5912 10.5987C55.9892 10.2843 55.2939 10.1272 54.5051 10.1272H51.7962V17.5693H54.5051Z" fill="#0D0D0D"/>
<path d="M61.9181 17.7634C61.4388 17.4907 61.0441 17.0903 60.7775 16.6066C60.505 16.092 60.3625 15.5183 60.3625 14.9356C60.3625 14.353 60.505 13.7793 60.7775 13.2647C61.0441 12.7805 61.4388 12.3794 61.9181 12.1057C62.4181 11.8326 62.9782 11.6895 63.5475 11.6895C64.1168 11.6895 64.677 11.8326 65.1769 12.1057C65.6559 12.3788 66.0506 12.7791 66.3176 13.2625C66.59 13.777 66.7325 14.3508 66.7325 14.9334C66.7325 15.516 66.59 16.0898 66.3176 16.6043C66.051 17.0881 65.6562 17.4884 65.1769 17.7611C64.677 18.0343 64.1168 18.1774 63.5475 18.1774C62.9782 18.1774 62.4181 18.0343 61.9181 17.7611V17.7634ZM64.8595 17.2859C65.2456 17.0571 65.562 16.7269 65.7744 16.3308C65.9952 15.8991 66.1104 15.4209 66.1104 14.9356C66.1104 14.4504 65.9952 13.9722 65.7744 13.5405C65.562 13.1444 65.2456 12.8142 64.8595 12.5854C64.4584 12.361 64.0068 12.2432 63.5475 12.2432C63.0882 12.2432 62.6366 12.361 62.2355 12.5854C61.8492 12.8139 61.5328 13.1442 61.3206 13.5405C61.0998 13.9722 60.9846 14.4504 60.9846 14.9356C60.9846 15.4209 61.0998 15.8991 61.3206 16.3308C61.5328 16.7271 61.8492 17.0574 62.2355 17.2859C62.6366 17.5103 63.0882 17.6281 63.5475 17.6281C64.0068 17.6281 64.4584 17.5103 64.8595 17.2859Z" fill="#0D0D0D"/>
<path d="M77.5445 11.7412L75.1284 18.1305H74.5547L72.4068 12.5856L70.2462 18.1305H69.6852L67.269 11.7412H67.8546L69.978 17.4452L72.1498 11.7412H72.6713L74.8319 17.4325L76.9791 11.7412H77.5445Z" fill="#0D0D0D"/>
<path d="M83.9652 12.3903C84.4296 12.8557 84.6616 13.5247 84.6611 14.3975V18.134H84.0509V14.4499C84.0509 13.732 83.8699 13.1852 83.5078 12.8096C83.1457 12.4339 82.6393 12.2464 81.9886 12.2469C81.2401 12.2469 80.6503 12.4711 80.2192 12.9194C79.7881 13.3678 79.5715 13.9708 79.5695 14.7286V18.131H78.9594V11.7417H79.5449V13.1249C79.7587 12.6823 80.1014 12.3151 80.5276 12.072C80.9627 11.8194 81.4773 11.6929 82.0713 11.6924C82.869 11.6924 83.5003 11.925 83.9652 12.3903Z" fill="#0D0D0D"/>
<path d="M87.1726 9.04883H87.7828V18.1306H87.1726V9.04883Z" fill="#0D0D0D"/>
<path d="M91.2174 17.7634C90.7372 17.491 90.3417 17.0906 90.0745 16.6066C89.802 16.092 89.6595 15.5183 89.6595 14.9356C89.6595 14.353 89.802 13.7793 90.0745 13.2647C90.3418 12.7802 90.7373 12.3791 91.2174 12.1057C91.7173 11.8326 92.2775 11.6895 92.8468 11.6895C93.416 11.6895 93.9762 11.8326 94.4761 12.1057C94.9551 12.3788 95.3498 12.7791 95.6168 13.2625C95.8893 13.777 96.0317 14.3508 96.0317 14.9334C96.0317 15.516 95.8893 16.0898 95.6168 16.6043C95.3502 17.0881 94.9554 17.4884 94.4761 17.7611C93.9762 18.0343 93.416 18.1774 92.8468 18.1774C92.2775 18.1774 91.7173 18.0343 91.2174 17.7611V17.7634ZM94.1588 17.2859C94.5448 17.0571 94.8612 16.7269 95.0737 16.3308C95.2945 15.8991 95.4097 15.4209 95.4097 14.9356C95.4097 14.4504 95.2945 13.9722 95.0737 13.5405C94.8612 13.1444 94.5448 12.8142 94.1588 12.5854C93.7577 12.361 93.306 12.2432 92.8468 12.2432C92.3875 12.2432 91.9358 12.361 91.5348 12.5854C91.1487 12.8142 90.8323 13.1444 90.6198 13.5405C90.399 13.9722 90.2839 14.4504 90.2839 14.9356C90.2839 15.4209 90.399 15.8991 90.6198 16.3308C90.8323 16.7269 91.1487 17.0571 91.5348 17.2859C91.9358 17.5103 92.3875 17.6281 92.8468 17.6281C93.306 17.6281 93.7577 17.5103 94.1588 17.2859Z" fill="#0D0D0D"/>
<path d="M101.865 12.2979C102.288 12.7025 102.499 13.2963 102.499 14.0795V18.1305H101.914V16.9924C101.71 17.3673 101.399 17.6722 101.02 17.8674C100.629 18.0752 100.162 18.1793 99.617 18.1798C98.9092 18.1798 98.3497 18.0124 97.9384 17.6776C97.7491 17.5182 97.5961 17.32 97.4896 17.0964C97.3832 16.8727 97.3257 16.6287 97.3211 16.3809C97.3165 16.1331 97.3649 15.8872 97.463 15.6597C97.5612 15.4322 97.7067 15.2284 97.89 15.0621C98.2684 14.7318 98.8724 14.5667 99.7019 14.5667H101.886V14.0526C101.886 13.4547 101.726 13.0019 101.404 12.694C101.083 12.3861 100.613 12.2309 99.9947 12.2284C99.5799 12.2283 99.1686 12.3043 98.781 12.4526C98.4195 12.5846 98.0861 12.7839 97.7983 13.04L97.4936 12.5998C97.828 12.3035 98.2177 12.0766 98.6402 11.9325C99.091 11.7727 99.5658 11.6918 100.044 11.6934C100.835 11.6924 101.442 11.8939 101.865 12.2979ZM101.053 17.3107C101.435 17.0511 101.727 16.679 101.889 16.2458V15.0457H99.7175C99.0907 15.0457 98.637 15.16 98.3564 15.3887C98.0757 15.6174 97.9354 15.9315 97.9354 16.331C97.9279 16.5207 97.9662 16.7093 98.047 16.8809C98.1279 17.0525 98.2488 17.202 98.3996 17.3167C98.708 17.5573 99.1431 17.6776 99.7049 17.6776C100.234 17.6776 100.683 17.5553 101.053 17.3107Z" fill="#0D0D0D"/>
<path d="M110.687 9.04883V18.1306H110.091V16.6248C109.857 17.1038 109.488 17.5038 109.03 17.7756C108.559 18.0488 108.023 18.1886 107.479 18.1799C106.915 18.1874 106.359 18.0437 105.869 17.7636C105.394 17.4915 105.003 17.0933 104.74 16.6128C104.461 16.0988 104.32 15.521 104.331 14.9359C104.321 14.349 104.461 13.7694 104.74 13.253C105.002 12.7721 105.393 12.3747 105.869 12.106C106.361 11.8295 106.916 11.688 107.48 11.6957C108.018 11.6874 108.548 11.8273 109.012 12.1C109.464 12.3699 109.833 12.7595 110.079 13.2261V9.04883H110.687ZM108.825 17.2861C109.212 17.058 109.53 16.7277 109.743 16.3311C109.964 15.8992 110.079 15.421 110.079 14.9359C110.079 14.4508 109.964 13.9726 109.743 13.5407C109.531 13.1446 109.214 12.8143 108.828 12.5857C108.427 12.3613 107.975 12.2435 107.516 12.2435C107.057 12.2435 106.605 12.3613 106.205 12.5857C105.818 12.8143 105.502 13.1446 105.289 13.5407C105.069 13.9726 104.954 14.4508 104.954 14.9359C104.954 15.421 105.069 15.8992 105.289 16.3311C105.502 16.7273 105.818 17.0575 106.205 17.2861C106.605 17.5105 107.057 17.6283 107.516 17.6283C107.975 17.6283 108.427 17.5105 108.828 17.2861H108.825Z" fill="#0D0D0D"/>
<path d="M117.258 17.7634C116.779 17.491 116.384 17.0905 116.118 16.6066C115.845 16.092 115.703 15.5183 115.703 14.9357C115.703 14.353 115.845 13.7793 116.118 13.2647C116.384 12.7803 116.779 12.3792 117.258 12.1057C117.758 11.8326 118.318 11.6895 118.887 11.6895C119.457 11.6895 120.017 11.8326 120.516 12.1057C120.996 12.3788 121.391 12.779 121.658 13.2625C121.93 13.777 122.073 14.3508 122.073 14.9334C122.073 15.516 121.93 16.0898 121.658 16.6043C121.391 17.0881 120.996 17.4885 120.516 17.7611C120.017 18.0343 119.457 18.1774 118.887 18.1774C118.318 18.1774 117.758 18.0343 117.258 17.7611V17.7634ZM120.199 17.2859C120.585 17.0573 120.902 16.727 121.115 16.3308C121.335 15.8989 121.45 15.4208 121.45 14.9357C121.45 14.4505 121.335 13.9724 121.115 13.5405C120.902 13.1443 120.585 12.814 120.199 12.5854C119.798 12.361 119.347 12.2432 118.887 12.2432C118.428 12.2432 117.977 12.361 117.576 12.5854C117.189 12.814 116.873 13.1443 116.66 13.5405C116.44 13.9724 116.325 14.4505 116.325 14.9357C116.325 15.4208 116.44 15.8989 116.66 16.3308C116.873 16.727 117.189 17.0573 117.576 17.2859C117.977 17.5103 118.428 17.6281 118.887 17.6281C119.347 17.6281 119.798 17.5103 120.199 17.2859Z" fill="#0D0D0D"/>
<path d="M128.965 12.3903C129.429 12.8556 129.661 13.5247 129.661 14.3975V18.1339H129.05V14.4498C129.05 13.7319 128.869 13.1852 128.508 12.8095C128.146 12.4339 127.64 12.2463 126.988 12.2468C126.24 12.2468 125.65 12.471 125.218 12.9194C124.787 13.3677 124.571 13.9718 124.572 14.7315V18.1339H123.962V11.7446H124.548V13.1279C124.761 12.6853 125.104 12.3181 125.53 12.0749C125.965 11.8224 126.48 11.6958 127.074 11.6953C127.872 11.6933 128.503 11.925 128.965 12.3903Z" fill="#0D0D0D"/>
<path d="M138.473 17.7259C138.307 17.8796 138.109 17.9947 137.894 18.0629C137.66 18.141 137.414 18.1804 137.167 18.1795C136.615 18.1795 136.188 18.0263 135.887 17.7199C135.586 17.4135 135.435 16.9868 135.434 16.4398V12.267H134.263V11.7439H135.434V10.3457H136.043V11.7409H138.069V12.264H136.043V16.374C136.043 16.79 136.142 17.1061 136.341 17.3223C136.54 17.5385 136.835 17.6467 137.225 17.6467C137.588 17.6598 137.942 17.5328 138.214 17.2917L138.473 17.7259Z" fill="#0D0D0D"/>
<path d="M145.173 12.3899C145.636 12.8552 145.868 13.5243 145.869 14.3971V18.1335H145.258V14.4494C145.258 13.7315 145.077 13.1848 144.715 12.8092C144.353 12.4335 143.847 12.245 143.195 12.2435C142.446 12.2435 141.857 12.4676 141.426 12.916C140.995 13.3644 140.78 13.9684 140.779 14.7282V18.1306H140.169V9.04883H140.779V13.0774C140.992 12.6441 141.333 12.2873 141.755 12.0559C142.186 11.8153 142.694 11.6947 143.28 11.6942C144.078 11.6927 144.709 11.9246 145.173 12.3899Z" fill="#0D0D0D"/>
<path d="M153.775 15.0829H148.296C148.304 15.5511 148.434 16.009 148.674 16.4108C148.905 16.7921 149.237 17.1023 149.632 17.3076C150.021 17.4999 150.446 17.6074 150.879 17.6231C151.312 17.6389 151.744 17.5624 152.145 17.3987C152.49 17.2561 152.794 17.0293 153.03 16.7389L153.384 17.1424C153.103 17.4803 152.745 17.7449 152.341 17.9136C151.851 18.1132 151.325 18.2032 150.797 18.1774C150.269 18.1516 149.754 18.0106 149.286 17.7642C148.799 17.496 148.395 17.0977 148.12 16.6134C147.834 16.1017 147.689 15.523 147.699 14.9364C147.69 14.355 147.826 13.7806 148.095 13.2655C148.346 12.7856 148.724 12.3842 149.187 12.1057C149.662 11.834 150.199 11.6905 150.745 11.6895C151.292 11.6884 151.829 11.8298 152.305 12.0998C152.765 12.3737 153.141 12.7699 153.391 13.2446C153.661 13.757 153.797 14.3294 153.788 14.9088L153.775 15.0829ZM149.54 12.5302C149.183 12.7299 148.887 13.0221 148.681 13.3761C148.462 13.7508 148.334 14.1724 148.309 14.6061H153.19C153.173 14.1736 153.047 13.7525 152.823 13.3821C152.612 13.0306 152.314 12.7398 151.958 12.5377C151.589 12.3308 151.172 12.2252 150.749 12.2313C150.328 12.2247 149.911 12.3277 149.541 12.5302H149.54Z" fill="#0D0D0D"/>
<path d="M60.2084 37.0727H52.9071L51.4684 40.4608H48.676L55.245 25.8193H57.9144L64.5043 40.4608H61.6679L60.2084 37.0727ZM59.3144 34.9392L56.5622 28.538L53.8302 34.9392H59.3144Z" fill="#0D0D0D"/>
<path d="M75.1918 29.8758C76.0379 30.3411 76.7354 31.0373 77.2034 31.8838C77.6901 32.7481 77.9335 33.7445 77.9335 34.8729C77.9335 36.0013 77.6901 37.0016 77.2034 37.874C76.7378 38.7247 76.04 39.4247 75.1918 39.8916C74.3365 40.3659 73.3679 40.603 72.2861 40.603C70.7846 40.603 69.5961 40.1011 68.7204 39.0973V44.5143H66.1128V29.2929H68.5945V30.7569C69.0186 30.2322 69.567 29.8224 70.1896 29.5649C70.8549 29.2939 71.5674 29.1587 72.2854 29.1674C73.3667 29.1654 74.3355 29.4015 75.1918 29.8758ZM74.3543 37.4054C74.9727 36.7643 75.2822 35.9208 75.2827 34.8751C75.2832 33.8294 74.9737 32.9857 74.3543 32.3441C73.738 31.7049 72.95 31.3853 71.9904 31.3853C71.3995 31.3768 70.8169 31.5247 70.3014 31.8143C69.7989 32.1024 69.3871 32.5262 69.113 33.0376C68.821 33.5681 68.675 34.1819 68.675 34.8789C68.675 35.5758 68.821 36.1894 69.113 36.7194C69.3869 37.2309 69.7987 37.6548 70.3014 37.9427C70.8168 38.2325 71.3995 38.3805 71.9904 38.3717C72.95 38.3692 73.738 38.0471 74.3543 37.4054Z" fill="#0D0D0D"/>
<path d="M89.4972 29.8758C90.3434 30.3411 91.0408 31.0373 91.5088 31.8838C91.995 32.7481 92.2384 33.7445 92.2389 34.8729C92.2394 36.0013 91.996 37.0016 91.5088 37.874C91.0432 38.7247 90.3454 39.4247 89.4972 39.8916C88.6429 40.3659 87.6743 40.603 86.5916 40.603C85.0901 40.603 83.9015 40.1011 83.0258 39.0973V44.5143H80.4182V29.2929H82.8999V30.7569C83.3241 30.2322 83.8724 29.8224 84.495 29.5649C85.1603 29.2939 85.8728 29.1587 86.5908 29.1674C87.6716 29.1654 88.6404 29.4015 89.4972 29.8758ZM88.6635 37.4054C89.2819 36.7643 89.5911 35.9208 89.5911 34.8751C89.5911 33.8294 89.2819 32.9857 88.6635 32.3441C88.0446 31.7049 87.2556 31.3853 86.2965 31.3853C85.7055 31.3767 85.1226 31.5246 84.6068 31.8143C84.1044 32.1026 83.6927 32.5264 83.4185 33.0376C83.1264 33.5681 82.9804 34.1819 82.9804 34.8789C82.9804 35.5758 83.1264 36.1894 83.4185 36.7194C83.6925 37.2308 84.1043 37.6546 84.6068 37.9427C85.1225 38.2326 85.7054 38.3806 86.2965 38.3717C87.2556 38.3692 88.0446 38.0471 88.6635 37.4054Z" fill="#0D0D0D"/>
<path d="M101.988 40.1886C100.938 39.8683 100.108 39.4431 99.4962 38.913L100.435 36.8005C101.031 37.2742 101.764 37.6611 102.635 37.961C103.476 38.2559 104.361 38.4074 105.252 38.4094C106.336 38.4094 107.146 38.235 107.681 37.8863C108.216 37.5375 108.484 37.0774 108.484 36.506C108.49 36.3111 108.452 36.1175 108.375 35.9386C108.298 35.7596 108.183 35.5998 108.037 35.4703C107.707 35.1807 107.32 34.9635 106.901 34.8329C106.442 34.6789 105.816 34.5045 105.024 34.3098C103.912 34.0452 103.012 33.7802 102.324 33.5146C101.639 33.2529 101.03 32.8255 100.55 32.2704C100.057 31.7055 99.8106 30.942 99.8106 29.98C99.8036 29.1949 100.033 28.4259 100.468 27.7733C100.905 27.1112 101.565 26.5848 102.449 26.1943C103.332 25.8037 104.413 25.6084 105.691 25.6084C106.578 25.6079 107.461 25.7204 108.319 25.9432C109.113 26.1353 109.868 26.4604 110.554 26.9049L109.699 29.0175C109.071 28.6461 108.398 28.358 107.697 28.1604C107.039 27.9706 106.358 27.872 105.674 27.8674C104.604 27.8674 103.809 28.0488 103.29 28.4115C102.771 28.7741 102.51 29.2551 102.508 29.8545C102.502 30.0478 102.539 30.2401 102.617 30.4173C102.694 30.5945 102.81 30.7522 102.955 30.879C103.288 31.1632 103.675 31.3768 104.092 31.5067C104.551 31.6606 105.177 31.835 105.969 32.0298C107.054 32.2789 107.944 32.5402 108.639 32.8137C109.321 33.0807 109.93 33.5082 110.414 34.0602C110.907 34.6186 111.154 35.3716 111.154 36.3192C111.163 37.1012 110.933 37.8671 110.497 38.5155C110.059 39.1706 109.395 39.6937 108.506 40.0848C107.616 40.4758 106.532 40.6711 105.252 40.6706C104.147 40.6733 103.046 40.5109 101.988 40.1886Z" fill="#0D0D0D"/>
<path d="M120.287 39.8534C119.957 40.1169 119.577 40.3092 119.17 40.4183C118.718 40.5457 118.252 40.6091 117.783 40.6066C116.559 40.6066 115.614 40.2858 114.947 39.6441C114.28 39.0025 113.947 38.0681 113.948 36.8411V31.4659H112.113V29.3735H113.948V26.8223H116.555V29.3742H119.535V31.4666H116.555V36.7798C116.555 37.3233 116.687 37.7381 116.952 38.024C117.216 38.31 117.598 38.453 118.098 38.453C118.682 38.453 119.169 38.2995 119.558 37.9926L120.287 39.8534Z" fill="#0D0D0D"/>
<path d="M124.02 39.8743C123.138 39.4072 122.405 38.7005 121.904 37.835C121.396 36.9637 121.142 35.9773 121.142 34.8758C121.142 33.7743 121.396 32.7911 121.904 31.9262C122.407 31.0654 123.14 30.3628 124.02 29.8974C124.924 29.4096 125.939 29.1655 127.065 29.165C128.204 29.165 129.226 29.4092 130.13 29.8974C131.011 30.3628 131.744 31.0654 132.247 31.9262C132.755 32.7911 133.008 33.7743 133.008 34.8758C133.008 35.9773 132.755 36.9637 132.247 37.835C131.746 38.7005 131.013 39.4072 130.13 39.8743C129.226 40.3631 128.205 40.6072 127.065 40.6067C125.939 40.6067 124.924 40.3626 124.02 39.8743ZM129.443 37.4083C130.068 36.7657 130.381 35.9215 130.381 34.8758C130.381 33.8301 130.068 32.9864 129.443 32.3447C128.817 31.7056 128.024 31.386 127.065 31.386C126.106 31.386 125.317 31.7068 124.698 32.3485C124.08 32.9896 123.77 33.8333 123.77 34.8795C123.77 35.9257 124.08 36.7691 124.698 37.4098C125.317 38.0515 126.106 38.3723 127.065 38.3723C128.025 38.3723 128.817 38.0502 129.443 37.4061V37.4083Z" fill="#0D0D0D"/>
<path d="M141.955 29.165V31.6542C141.756 31.6148 141.553 31.5938 141.35 31.5915C140.334 31.5915 139.542 31.8879 138.973 32.4807C138.403 33.0736 138.118 33.9277 138.117 35.0432V40.4602H135.51V29.2936H137.991V30.9249C138.743 29.7522 140.064 29.1655 141.955 29.165Z" fill="#0D0D0D"/>
<path d="M154.488 35.712H145.75C145.879 36.4961 146.31 37.1981 146.949 37.6677C147.594 38.1489 148.397 38.3896 149.357 38.3896C150.581 38.3896 151.589 37.9853 152.382 37.1767L153.778 38.7841C153.27 39.3898 152.617 39.8573 151.881 40.1434C151.116 40.4503 150.254 40.6038 149.295 40.6038C148.072 40.6038 146.994 40.3596 146.063 39.8714C145.162 39.4142 144.412 38.7061 143.902 37.8321C143.394 36.9608 143.14 35.9743 143.141 34.8728C143.141 33.7848 143.388 32.8051 143.881 31.9338C144.362 31.0746 145.074 30.368 145.935 29.8944C146.811 29.4067 147.798 29.1626 148.897 29.1621C149.981 29.1621 150.95 29.4027 151.803 29.884C152.649 30.3557 153.343 31.0595 153.805 31.9129C154.284 32.7842 154.524 33.7918 154.524 34.9356C154.528 35.1185 154.516 35.3773 154.488 35.712ZM146.782 31.9995C146.205 32.4942 145.854 33.1531 145.729 33.9761H152.048C151.936 33.1675 151.596 32.5122 151.026 32.01C150.457 31.5078 149.748 31.2567 148.899 31.2567C148.065 31.2567 147.359 31.5043 146.782 31.9995Z" fill="#0D0D0D"/>
</g>
<defs>
<clipPath id="clip0_476_4477">
<rect width="180" height="55" fill="white"/>
</clipPath>
</defs>
</svg>
