<svg width="180" height="55" viewBox="0 0 180 55" fill="none" xmlns="http://www.w3.org/2000/svg">
<g clip-path="url(#clip0_476_4478)">
<path d="M173.042 0H6.95794C3.11518 0 0 3.12998 0 6.99101V48.009C0 51.87 3.11518 55 6.95794 55H173.042C176.885 55 180 51.87 180 48.009V6.99101C180 3.12998 176.885 0 173.042 0Z" fill="none"/>
<path d="M56.0265 15.7452H51.072L49.9843 18.1699H49.3137L53.243 9.55469H53.8659L57.7952 18.1699H57.1246L56.0265 15.7452ZM55.7948 15.2192L53.5492 10.2467L51.3141 15.2192H55.7948Z" fill="#0D0D0D"/>
<path d="M63.9447 11.7451L61.0644 18.1693H60.4423L57.5747 11.7451H58.2214L60.7597 17.4923L63.3226 11.7451H63.9447Z" fill="#0D0D0D"/>
<path d="M69.0459 12.3057C69.4686 12.7114 69.6799 13.3082 69.6799 14.0962V18.1701H69.0943V17.025C68.8911 17.4025 68.5795 17.7092 68.2003 17.9048C67.8099 18.1142 67.3423 18.2189 66.7974 18.2189C66.0896 18.2189 65.5303 18.0506 65.1196 17.714C64.9208 17.5568 64.7615 17.3546 64.6545 17.1239C64.5475 16.8931 64.4957 16.6402 64.5034 16.3856C64.5034 15.8521 64.6924 15.4193 65.0704 15.0872C65.4484 14.7551 66.0526 14.5888 66.8831 14.5883H69.0668V14.0714C69.0668 13.4703 68.9061 13.015 68.5847 12.7054C68.2634 12.3958 67.7938 12.24 67.1759 12.238C66.761 12.2364 66.3494 12.3115 65.9615 12.4597C65.5998 12.592 65.2663 12.7924 64.9788 13.0503L64.674 12.607C65.009 12.3094 65.3989 12.0814 65.8214 11.936C66.272 11.7759 66.7465 11.6948 67.2243 11.6963C68.0155 11.6963 68.6227 11.8994 69.0459 12.3057ZM68.2338 17.3451C68.616 17.0844 68.9081 16.7102 69.0697 16.2744V15.0722H66.898C66.2712 15.0722 65.8177 15.1872 65.5375 15.4171C65.2574 15.647 65.1168 15.9616 65.1159 16.3608C65.1084 16.5513 65.1466 16.7408 65.2273 16.9132C65.308 17.0856 65.4287 17.2358 65.5793 17.3511C65.8887 17.5935 66.324 17.7145 66.8853 17.714C67.4143 17.714 67.8638 17.591 68.2338 17.3451Z" fill="#0D0D0D"/>
<path d="M72.1453 10.0407C72.0973 9.99612 72.0592 9.94181 72.0335 9.88133C72.0078 9.82085 71.9951 9.75557 71.9963 9.68979C71.9963 9.62352 72.0092 9.5579 72.0344 9.49668C72.0596 9.43546 72.0965 9.37985 72.143 9.33302C72.1895 9.2862 72.2447 9.24908 72.3054 9.22378C72.3662 9.19849 72.4312 9.18552 72.4969 9.18562C72.5623 9.18448 72.6271 9.19637 72.6879 9.22061C72.7486 9.24486 72.804 9.28097 72.8508 9.32688C72.8988 9.37147 72.9369 9.42578 72.9625 9.48625C72.9882 9.54673 73.0009 9.61199 72.9998 9.67777C73 9.74403 72.9872 9.80968 72.9622 9.87094C72.9371 9.9322 72.9003 9.98785 72.8539 10.0347C72.8074 10.0816 72.7522 10.1187 72.6915 10.144C72.6307 10.1692 72.5656 10.1821 72.4999 10.1819C72.4345 10.1834 72.3694 10.1717 72.3085 10.1474C72.2476 10.1232 72.1921 10.0869 72.1453 10.0407ZM72.1937 11.7455H72.8039V18.1697H72.1937V11.7455Z" fill="#0D0D0D"/>
<path d="M75.3787 9.03711H75.9888V18.1692H75.3787V9.03711Z" fill="#0D0D0D"/>
<path d="M82.5295 12.3057C82.9527 12.7115 83.1643 13.3083 83.1643 14.0963V18.1702H82.5787V17.0251C82.3753 17.4024 82.0637 17.7091 81.6847 17.9049C81.2943 18.1143 80.8264 18.219 80.281 18.219C79.5732 18.219 79.014 18.0507 78.6032 17.7141C78.4138 17.5539 78.2607 17.3546 78.1542 17.1297C78.0476 16.9048 77.9901 16.6595 77.9855 16.4103C77.9809 16.1611 78.0294 15.9138 78.1276 15.685C78.2258 15.4563 78.3714 15.2515 78.5548 15.0843C78.9328 14.7512 79.5367 14.5849 80.3667 14.5854H82.5511V14.0685C82.5511 13.4674 82.3905 13.012 82.0691 12.7025C81.7477 12.3929 81.2779 12.2371 80.6595 12.2351C80.2447 12.2335 79.833 12.3086 79.4451 12.4568C79.0836 12.5891 78.7504 12.7895 78.4631 13.0473L78.1577 12.604C78.4927 12.3065 78.8825 12.0784 79.305 11.9331C79.7559 11.7729 80.2306 11.6918 80.7087 11.6934C81.4999 11.6954 82.1068 11.8995 82.5295 12.3057ZM81.7182 17.3452C82.1003 17.0845 82.3925 16.7103 82.5541 16.2745V15.0723H80.3816C79.7548 15.0723 79.3013 15.1872 79.0212 15.4172C78.741 15.6471 78.601 15.9616 78.601 16.3609C78.5935 16.5514 78.6318 16.7408 78.7124 16.9132C78.7931 17.0856 78.9138 17.2359 79.0644 17.3512C79.3733 17.5936 79.8087 17.7146 80.3704 17.7141C80.8989 17.7141 81.3482 17.5911 81.7182 17.3452Z" fill="#0D0D0D"/>
<path d="M90.4858 12.1079C90.962 12.3792 91.3531 12.7799 91.6145 13.2643C91.8928 13.7837 92.0337 14.3668 92.0235 14.9571C92.0342 15.5454 91.8932 16.1263 91.6145 16.6432C91.3509 17.126 90.9603 17.5261 90.4858 17.7995C89.9955 18.0815 89.4394 18.226 88.875 18.2181C88.3328 18.2253 87.7989 18.0827 87.3313 17.8056C86.8735 17.5332 86.5029 17.1339 86.2637 16.6552V18.1692H85.6788V9.03711H86.289V13.2094C86.531 12.7446 86.8989 12.3587 87.3499 12.0967C87.8137 11.8282 88.3404 11.6902 88.875 11.6969C89.4384 11.6887 89.9941 11.8305 90.4858 12.1079ZM90.1565 17.3194C90.5455 17.0914 90.8645 16.7593 91.0781 16.3599C91.2984 15.9256 91.4134 15.4446 91.4134 14.9567C91.4134 14.4688 91.2984 13.9879 91.0781 13.5536C90.8643 13.1543 90.5454 12.8223 90.1565 12.5941C89.756 12.3615 89.3006 12.2423 88.8385 12.2492C88.3782 12.2418 87.9247 12.361 87.5265 12.5941C87.1405 12.8238 86.8242 13.1556 86.6116 13.5536C86.3908 13.9878 86.2756 14.4688 86.2756 14.9567C86.2756 15.4447 86.3908 15.9257 86.6116 16.3599C86.8238 16.7582 87.1402 17.09 87.5265 17.3194C87.9247 17.5525 88.3782 17.6717 88.8385 17.6643C89.3006 17.6712 89.756 17.552 90.1565 17.3194Z" fill="#0D0D0D"/>
<path d="M93.9152 9.03711H94.5253V18.1692H93.9152V9.03711Z" fill="#0D0D0D"/>
<path d="M102.482 15.1024H97.0033C97.011 15.5733 97.1415 16.0338 97.3818 16.4376C97.6128 16.8213 97.9443 17.1333 98.3399 17.3393C98.7604 17.557 99.2276 17.6669 99.7003 17.6593C100.096 17.6639 100.488 17.5872 100.854 17.4339C101.199 17.2881 101.504 17.0575 101.739 16.763L102.093 17.1694C101.812 17.5088 101.454 17.7748 101.05 17.9449C100.56 18.1452 100.033 18.2355 99.5058 18.2095C98.9783 18.1836 98.4627 18.042 97.9949 17.7946C97.5081 17.525 97.1048 17.1248 96.8297 16.6382C96.5434 16.1239 96.3981 15.5419 96.4088 14.9522C96.3994 14.3675 96.5356 13.7898 96.8051 13.2721C97.0558 12.7902 97.4338 12.3877 97.8973 12.109C98.372 11.8357 98.9089 11.6915 99.4555 11.6904C100.002 11.6894 100.54 11.8315 101.015 12.103C101.475 12.3783 101.851 12.7763 102.102 13.2533C102.371 13.7688 102.507 14.3446 102.498 14.9274L102.482 15.1024ZM98.2467 12.5365C97.8897 12.7367 97.5925 13.0299 97.3862 13.3856C97.1669 13.7623 97.0392 14.1862 97.0137 14.6223H101.894C101.878 14.1875 101.752 13.764 101.529 13.3916C101.314 13.0321 101.009 12.736 100.645 12.533C100.281 12.3301 99.8704 12.2273 99.4544 12.2352C99.0327 12.2296 98.6166 12.3342 98.2467 12.5388V12.5365Z" fill="#0D0D0D"/>
<path d="M108.381 17.8004C107.902 17.5264 107.507 17.1238 107.24 16.6373C106.968 16.12 106.825 15.5433 106.825 14.9576C106.825 14.3719 106.968 13.7952 107.24 13.2779C107.507 12.7914 107.902 12.3888 108.381 12.1148C108.881 11.8402 109.441 11.6963 110.01 11.6963C110.58 11.6963 111.14 11.8402 111.639 12.1148C112.119 12.389 112.514 12.7915 112.78 13.2779C113.053 13.7952 113.195 14.3719 113.195 14.9576C113.195 15.5433 113.053 16.12 112.78 16.6373C112.514 17.1237 112.119 17.5262 111.639 17.8004C111.14 18.075 110.58 18.2189 110.01 18.2189C109.441 18.2189 108.881 18.075 108.381 17.8004ZM111.322 17.3203C111.708 17.0911 112.025 16.7592 112.237 16.3608C112.458 15.9266 112.573 15.4456 112.573 14.9576C112.573 14.4696 112.458 13.9886 112.237 13.5544C112.025 13.1562 111.708 12.8243 111.322 12.5949C110.921 12.3688 110.469 12.2501 110.01 12.2501C109.551 12.2501 109.099 12.3688 108.698 12.5949C108.312 12.8247 107.996 13.1565 107.783 13.5544C107.563 13.9888 107.448 14.4697 107.448 14.9576C107.448 15.4455 107.563 15.9264 107.783 16.3608C107.996 16.7593 108.313 17.0912 108.7 17.3203C109.101 17.5464 109.553 17.6651 110.012 17.6651C110.472 17.6651 110.923 17.5464 111.324 17.3203H111.322Z" fill="#0D0D0D"/>
<path d="M120.09 12.3981C120.554 12.8655 120.786 13.5382 120.785 14.4163V18.1731H120.174V14.4652C120.174 13.7438 119.993 13.1943 119.631 12.8167C119.269 12.439 118.763 12.2494 118.113 12.2479C117.364 12.2479 116.774 12.4733 116.344 12.9241C115.913 13.3749 115.697 13.982 115.697 14.7454V18.1671H115.087V11.7429H115.672V13.133C115.886 12.6881 116.229 12.3192 116.655 12.0751C117.09 11.8206 117.605 11.6934 118.199 11.6934C118.996 11.6954 119.626 11.9303 120.09 12.3981Z" fill="#0D0D0D"/>
<path d="M129.595 17.763C129.43 17.9179 129.232 18.0335 129.016 18.1012C128.782 18.1796 128.537 18.2192 128.29 18.2184C127.737 18.2184 127.31 18.0646 127.009 17.757C126.708 17.4495 126.557 17.0207 126.557 16.4707V12.2743H125.389V11.7484H126.56V10.3418H127.17V11.7453H129.196V12.2713H127.17V16.4038C127.17 16.8226 127.27 17.1407 127.468 17.3581C127.667 17.5754 127.962 17.6841 128.354 17.6841C128.716 17.6974 129.07 17.5696 129.342 17.3272L129.595 17.763Z" fill="#0D0D0D"/>
<path d="M136.296 12.3972C136.759 12.8646 136.991 13.5373 136.991 14.4154V18.1722H136.381V14.4642C136.381 13.7429 136.2 13.1934 135.837 12.8157C135.475 12.438 134.969 12.2484 134.318 12.2469C133.57 12.2469 132.98 12.4724 132.549 12.9232C132.118 13.374 131.902 13.9811 131.902 14.7445V18.1662H131.292V9.03711H131.902V13.0862C132.115 12.6505 132.456 12.2915 132.878 12.0584C133.309 11.8164 133.818 11.6954 134.404 11.6954C135.199 11.6954 135.829 11.9294 136.296 12.3972Z" fill="#0D0D0D"/>
<path d="M144.899 15.1024H139.419C139.427 15.5733 139.557 16.0338 139.797 16.4376C140.028 16.8213 140.36 17.1333 140.755 17.3393C141.176 17.557 141.643 17.6669 142.116 17.6593C142.511 17.6639 142.904 17.5872 143.269 17.4339C143.615 17.2881 143.919 17.0575 144.154 16.763L144.508 17.1694C144.227 17.5088 143.87 17.7748 143.465 17.9449C142.976 18.1452 142.449 18.2355 141.921 18.2095C141.394 18.1836 140.878 18.042 140.41 17.7946C139.924 17.525 139.52 17.1248 139.245 16.6382C138.959 16.1239 138.814 15.5419 138.824 14.9522C138.815 14.3675 138.951 13.7898 139.221 13.2721C139.471 12.7902 139.849 12.3877 140.313 12.109C140.788 11.8357 141.324 11.6915 141.871 11.6904C142.418 11.6894 142.955 11.8315 143.431 12.103C143.891 12.3783 144.267 12.7763 144.517 13.2533C144.787 13.7688 144.923 14.3446 144.913 14.9274L144.899 15.1024ZM140.662 12.5388C140.305 12.739 140.008 13.0322 139.802 13.3878C139.582 13.7646 139.455 14.1884 139.429 14.6246H144.313C144.296 14.1897 144.17 13.7662 143.947 13.3938C143.733 13.0344 143.428 12.7383 143.064 12.5353C142.7 12.3323 142.289 12.2296 141.873 12.2375C141.45 12.2307 141.033 12.3345 140.662 12.5388Z" fill="#0D0D0D"/>
<path d="M59.0342 33.2638H61.5398V38.9967C60.7735 39.6034 59.9033 40.0631 58.9724 40.3529C57.9972 40.6673 56.9795 40.8268 55.9557 40.8255C54.5014 40.8255 53.1904 40.5069 52.0227 39.8698C50.8827 39.2606 49.9308 38.3469 49.2713 37.2287C48.6052 36.1052 48.2722 34.8376 48.2722 33.426C48.2722 32.0145 48.6052 30.7472 49.2713 29.6241C49.9331 28.5043 50.8886 27.5904 52.0324 26.9831C53.2071 26.3459 54.5285 26.0273 55.9967 26.0273C57.1918 26.0273 58.2788 26.226 59.2577 26.6232C60.2058 26.9995 61.0512 27.5983 61.7238 28.3701L60.0497 30.0163C58.9629 28.9204 57.6519 28.3721 56.1167 28.3716C55.1109 28.3716 54.2168 28.584 53.4346 29.0088C52.6684 29.4188 52.0326 30.0387 51.6003 30.797C51.1587 31.5649 50.9379 32.4415 50.9379 33.4268C50.9244 34.3344 51.1532 35.229 51.6003 36.0168C52.0351 36.7783 52.6698 37.4041 53.4346 37.8253C54.2153 38.2641 55.1019 38.4835 56.0943 38.4835C57.2084 38.4835 58.1866 38.2368 59.029 37.7434L59.0342 33.2638Z" fill="#0D0D0D"/>
<path d="M66.6969 40.048C65.8347 39.5888 65.1178 38.8944 64.628 38.0442C64.1313 37.1876 63.8829 36.2181 63.8829 35.1356C63.8829 34.0531 64.1313 33.0871 64.628 32.2376C65.1202 31.3916 65.8367 30.701 66.6969 30.2435C67.5795 29.7641 68.5714 29.5244 69.6726 29.5244C70.7862 29.5244 71.7848 29.7641 72.6684 30.2435C73.5277 30.7003 74.2439 31.3895 74.7366 32.2338C75.2333 33.0854 75.4816 34.0514 75.4816 35.1319C75.4816 36.2123 75.2333 37.1818 74.7366 38.0404C74.2474 38.8919 73.5307 39.5875 72.6684 40.048C71.7848 40.5274 70.7862 40.7671 69.6726 40.7671C68.5719 40.7656 67.58 40.5259 66.6969 40.048ZM71.9956 37.6226C72.6075 36.992 72.9132 36.163 72.9127 35.1356C72.9122 34.1082 72.6065 33.2792 71.9956 32.6486C71.3842 32.0179 70.6098 31.7029 69.6726 31.7034C68.7353 31.7039 67.9642 32.019 67.3593 32.6486C66.7543 33.2792 66.4521 34.1082 66.4526 35.1356C66.453 36.163 66.7553 36.992 67.3593 37.6226C67.9637 38.2533 68.7348 38.5684 69.6726 38.5679C70.6103 38.5674 71.3847 38.2515 71.9956 37.6204V37.6226Z" fill="#0D0D0D"/>
<path d="M79.8416 40.048C78.9796 39.5888 78.2629 38.8944 77.7734 38.0442C77.2767 37.1876 77.0283 36.2181 77.0283 35.1356C77.0283 34.0531 77.2767 33.0871 77.7734 32.2376C78.2652 31.3917 78.9815 30.701 79.8416 30.2435C80.7252 29.7641 81.7171 29.5244 82.8172 29.5244C83.9308 29.5244 84.9294 29.7641 85.813 30.2435C86.6728 30.7 87.3892 31.3893 87.882 32.2338C88.3786 33.0854 88.627 34.0514 88.627 35.1319C88.627 36.2123 88.3786 37.1818 87.882 38.0404C87.3927 38.8921 86.6757 39.5878 85.813 40.048C84.9304 40.5274 83.9318 40.7671 82.8172 40.7671C81.7171 40.7656 80.7252 40.5259 79.8416 40.048ZM85.141 37.6226C85.7519 36.992 86.0576 36.163 86.0581 35.1356C86.0586 34.1082 85.7529 33.2792 85.141 32.6486C84.5291 32.0179 83.7545 31.7029 82.8172 31.7034C81.88 31.7039 81.1101 32.019 80.5076 32.6486C79.9036 33.2792 79.6014 34.1082 79.6009 35.1356C79.6004 36.163 79.9027 36.992 80.5076 37.6226C81.1126 38.2533 81.8825 38.5684 82.8172 38.5679C83.752 38.5674 84.5266 38.2515 85.141 37.6204V37.6226Z" fill="#0D0D0D"/>
<path d="M101.873 29.6449V38.9558C101.873 42.8198 99.9161 44.7518 96.0027 44.7518C94.9974 44.7574 93.9963 44.6224 93.0278 44.3506C92.0896 44.0841 91.315 43.6972 90.704 43.1898L91.8454 41.258C92.3208 41.6547 92.922 41.9733 93.6492 42.2137C94.3627 42.4508 95.1091 42.572 95.8604 42.5729C97.0564 42.5729 97.9328 42.2989 98.4896 41.7509C99.0464 41.2029 99.3248 40.3671 99.3248 39.2436V38.668C98.8856 39.1501 98.3417 39.523 97.7357 39.7575C97.0785 40.0098 96.3802 40.1351 95.6771 40.1272C94.6445 40.1272 93.7102 39.9045 92.8743 39.4592C92.0554 39.0302 91.371 38.3798 90.8977 37.5808C90.4155 36.7723 90.1743 35.8474 90.1743 34.806C90.1743 33.7646 90.4155 32.8432 90.8977 32.0417C91.3718 31.2479 92.0564 30.6035 92.8743 30.1814C93.7102 29.7436 94.6445 29.5244 95.6771 29.5239C96.412 29.5144 97.1419 29.6471 97.8273 29.9146C98.4595 30.1654 99.0172 30.5757 99.447 31.1063V29.6449H101.873ZM98.4382 37.0751C99.0566 36.4931 99.3658 35.736 99.3658 34.8038C99.3658 33.8861 99.0566 33.1395 98.4382 32.5639C97.8198 31.9884 97.0284 31.7006 96.0638 31.7006C95.0863 31.7006 94.2881 31.9884 93.6693 32.5639C93.0504 33.1395 92.7415 33.8861 92.7425 34.8038C92.7425 35.7365 93.0514 36.4936 93.6693 37.0751C94.2871 37.6567 95.0853 37.9477 96.0638 37.9482C97.0284 37.9482 97.8198 37.6572 98.4382 37.0751Z" fill="#0D0D0D"/>
<path d="M105.214 25.3701H107.762V40.6228H105.214V25.3701Z" fill="#0D0D0D"/>
<path d="M121.291 35.9552H112.755C112.881 36.7258 113.302 37.4157 113.927 37.8772C114.559 38.3496 115.343 38.5857 116.281 38.5857C117.476 38.5857 118.461 38.1885 119.236 37.3941L120.602 38.9764C120.104 39.5716 119.467 40.031 118.747 40.3124C118.002 40.6129 117.16 40.7632 116.22 40.7632C115.024 40.7632 113.971 40.5235 113.061 40.0441C112.182 39.5941 111.449 38.8985 110.951 38.0402C110.454 37.1837 110.206 36.2142 110.206 35.1317C110.206 34.0623 110.447 33.0995 110.929 32.2435C111.401 31.399 112.098 30.7048 112.941 30.2396C113.796 29.7602 114.761 29.5205 115.835 29.5205C116.894 29.5205 117.842 29.7569 118.678 30.2298C119.504 30.6936 120.183 31.3849 120.634 32.2232C121.103 33.0797 121.337 34.0698 121.338 35.1933C121.335 35.3729 121.321 35.6261 121.291 35.9552ZM113.767 32.3088C113.202 32.7952 112.859 33.4426 112.738 34.2511H118.907C118.798 33.4562 118.465 32.812 117.908 32.3186C117.351 31.8252 116.659 31.5785 115.83 31.5785C115.016 31.5775 114.329 31.8209 113.767 32.3088Z" fill="#0D0D0D"/>
<path d="M138.75 26.8493C139.667 27.2605 140.37 27.8496 140.859 28.6165C141.348 29.3834 141.592 30.2948 141.593 31.3507C141.593 32.3921 141.348 33.2998 140.859 34.0737C140.37 34.8476 139.667 35.4402 138.75 35.8514C137.832 36.2627 136.756 36.4683 135.519 36.4683H132.299V40.6203H129.65V26.2324H135.522C136.756 26.2324 137.832 26.438 138.75 26.8493ZM138.026 33.4673C138.622 32.9744 138.92 32.2689 138.92 31.3507C138.92 30.4326 138.622 29.7268 138.026 29.2334C137.43 28.7395 136.554 28.4928 135.397 28.4933H132.299V34.2037H135.397C136.552 34.2062 137.428 33.9607 138.026 33.4673Z" fill="#0D0D0D"/>
<path d="M144.201 25.3701H146.749V40.6228H144.201V25.3701Z" fill="#0D0D0D"/>
<path d="M157.927 30.6832C158.776 31.4572 159.201 32.6253 159.201 34.1876V40.6208H156.796V39.2849C156.469 39.7767 156.004 40.1593 155.461 40.3841C154.884 40.6376 154.188 40.7643 153.375 40.7643C152.561 40.7643 151.848 40.6238 151.234 40.3428C150.662 40.0947 150.172 39.6886 149.819 39.1714C149.485 38.6704 149.311 38.0789 149.319 37.4756C149.319 36.4893 149.683 35.6981 150.409 35.102C151.136 34.5059 152.281 34.2079 153.844 34.2079H156.657V34.0434C156.657 33.276 156.429 32.6869 155.973 32.2761C155.518 31.8654 154.842 31.6598 153.946 31.6593C153.334 31.6595 152.725 31.7566 152.142 31.947C151.596 32.1143 151.088 32.3865 150.644 32.7488L149.646 30.8779C150.264 30.416 150.962 30.0746 151.704 29.871C152.533 29.6343 153.39 29.5167 154.252 29.5216C155.853 29.5216 157.078 29.9088 157.927 30.6832ZM155.604 38.4524C156.091 38.1689 156.462 37.721 156.654 37.1878V35.915H154.024C152.557 35.915 151.823 36.4016 151.824 37.3749C151.817 37.5913 151.864 37.8059 151.96 37.9996C152.056 38.1932 152.198 38.3599 152.373 38.4847C152.74 38.7592 153.25 38.8962 153.902 38.8957C154.499 38.9062 155.087 38.753 155.604 38.4524Z" fill="#0D0D0D"/>
<path d="M172.448 29.6456L167.353 41.5051C166.878 42.6968 166.3 43.5361 165.621 44.023C164.941 44.5099 164.119 44.753 163.155 44.7525C162.607 44.7518 162.064 44.6615 161.545 44.4851C161.063 44.3345 160.618 44.0825 160.24 43.7457L161.259 41.8515C161.511 42.0894 161.805 42.2775 162.126 42.406C162.446 42.5408 162.788 42.6107 163.135 42.6119C163.582 42.6119 163.952 42.4954 164.245 42.2625C164.538 42.0296 164.806 41.6391 165.05 41.0911L165.233 40.6591L160.485 29.6426H163.135L166.558 37.7611L170.002 29.6426L172.448 29.6456Z" fill="#0D0D0D"/>
<path d="M43.3773 26.824L36.5289 22.8418L30.8965 28.3268L36.0439 33.3451L43.3773 29.0781C43.5733 28.9638 43.736 28.7994 43.8491 28.6016C43.9622 28.4038 44.0218 28.1794 44.0218 27.9511C44.0218 27.7227 43.9622 27.4984 43.8491 27.3006C43.736 27.1027 43.5733 26.9384 43.3773 26.824Z" fill="#0D0D0D"/>
<path d="M35.3667 22.1601L27.83 17.7728L11.3148 9.2373L29.969 27.4226L35.3667 22.1601Z" fill="#0D0D0D"/>
<path d="M11.5883 47.1505L27.8583 38.1123L34.8817 34.0234L29.969 29.2334L11.5883 47.1505Z" fill="#0D0D0D"/>
<path d="M10.2122 9.97266L10.1943 46.6994L29.04 28.327L10.2122 9.97266Z" fill="#0D0D0D"/>
</g>
<defs>
<clipPath id="clip0_476_4478">
<rect width="180" height="55" fill="white"/>
</clipPath>
</defs>
</svg>
