<svg width="28" height="28" viewBox="0 0 28 28" fill="none" xmlns="http://www.w3.org/2000/svg">
<g opacity="0.6" filter="url(#filter0_f_1175_3258)">
<circle cx="30" cy="33" r="13" stroke="#7AD446" stroke-width="2"/>
</g>
<g filter="url(#filter1_f_1175_3258)">
<circle cx="30" cy="33" r="14" fill="#00DEA0"/>
<circle cx="30" cy="33" r="13" stroke="#7AD446" stroke-width="2"/>
</g>
<mask id="path-4-inside-1_1175_3258" fill="white">
<path d="M29.5484 19.4248C29.5484 19.2727 29.4223 19.1501 29.2702 19.1566C21.8881 19.4717 16 25.5561 16 33.0158C16 40.4755 21.8881 46.5599 29.2702 46.875C29.4223 46.8815 29.5484 46.7589 29.5484 46.6068C29.5484 46.4596 29.43 46.3395 29.283 46.3331C22.1943 46.0249 16.5419 40.1804 16.5419 33.0158C16.5419 25.8512 22.1943 20.0067 29.283 19.6985C29.43 19.6921 29.5484 19.572 29.5484 19.4248Z"/>
</mask>
<path d="M29.5484 19.4248C29.5484 19.2727 29.4223 19.1501 29.2702 19.1566C21.8881 19.4717 16 25.5561 16 33.0158C16 40.4755 21.8881 46.5599 29.2702 46.875C29.4223 46.8815 29.5484 46.7589 29.5484 46.6068C29.5484 46.4596 29.43 46.3395 29.283 46.3331C22.1943 46.0249 16.5419 40.1804 16.5419 33.0158C16.5419 25.8512 22.1943 20.0067 29.283 19.6985C29.43 19.6921 29.5484 19.572 29.5484 19.4248Z" fill="#00DEA0"/>
<path d="M29.283 46.3331L29.346 44.8829L29.283 46.3331ZM29.2702 46.875L29.2083 48.3253L29.2702 46.875ZM29.283 19.6985L29.2199 18.2482L29.283 19.6985ZM29.2083 17.7063C21.0526 18.0544 14.5484 24.7751 14.5484 33.0158H17.4516C17.4516 26.3371 22.7236 20.8889 29.3322 20.6069L29.2083 17.7063ZM14.5484 33.0158C14.5484 41.2565 21.0526 47.9772 29.2083 48.3253L29.3322 45.4247C22.7236 45.1427 17.4516 39.6945 17.4516 33.0158H14.5484ZM15.0903 33.0158C15.0903 40.961 21.3582 47.4415 29.2199 47.7834L29.346 44.8829C23.0304 44.6082 17.9935 39.3998 17.9935 33.0158H15.0903ZM29.2199 18.2482C21.3582 18.5901 15.0903 25.0706 15.0903 33.0158H17.9935C17.9935 26.6318 23.0304 21.4234 29.346 21.1487L29.2199 18.2482ZM31 46.6068C31 45.6583 30.2453 44.922 29.346 44.8829L29.2199 47.7834C28.6148 47.7571 28.0968 47.2608 28.0968 46.6068H31ZM29.2083 48.3253C30.198 48.3676 31 47.5724 31 46.6068H28.0968C28.0968 45.9454 28.6465 45.3955 29.3322 45.4247L29.2083 48.3253ZM29.346 21.1487C30.2453 21.1096 31 20.3733 31 19.4248H28.0968C28.0968 18.7708 28.6148 18.2746 29.2199 18.2482L29.346 21.1487ZM29.3322 20.6069C28.6465 20.6361 28.0968 20.0862 28.0968 19.4248H31C31 18.4592 30.1981 17.664 29.2083 17.7063L29.3322 20.6069Z" fill="#7AD446" mask="url(#path-4-inside-1_1175_3258)"/>
<mask id="path-6-inside-2_1175_3258" fill="white">
<path d="M30.4517 19.4248C30.4517 19.2727 30.5778 19.1501 30.7298 19.1566C38.1119 19.4717 44 25.5561 44 33.0158C44 40.4755 38.1119 46.5599 30.7298 46.875C30.5778 46.8815 30.4517 46.7589 30.4517 46.6068C30.4517 46.4596 30.57 46.3395 30.7171 46.3331C37.8058 46.0249 43.4581 40.1804 43.4581 33.0158C43.4581 25.8512 37.8058 20.0067 30.7171 19.6985C30.57 19.6921 30.4517 19.572 30.4517 19.4248Z"/>
</mask>
<path d="M30.4517 19.4248C30.4517 19.2727 30.5778 19.1501 30.7298 19.1566C38.1119 19.4717 44 25.5561 44 33.0158C44 40.4755 38.1119 46.5599 30.7298 46.875C30.5778 46.8815 30.4517 46.7589 30.4517 46.6068C30.4517 46.4596 30.57 46.3395 30.7171 46.3331C37.8058 46.0249 43.4581 40.1804 43.4581 33.0158C43.4581 25.8512 37.8058 20.0067 30.7171 19.6985C30.57 19.6921 30.4517 19.572 30.4517 19.4248Z" fill="#00DEA0"/>
<path d="M30.7171 46.3331L30.654 44.8829L30.7171 46.3331ZM30.6679 20.6069C37.2765 20.8889 42.5484 26.3371 42.5484 33.0158H45.4517C45.4517 24.7751 38.9474 18.0544 30.7917 17.7063L30.6679 20.6069ZM42.5484 33.0158C42.5484 39.6945 37.2765 45.1427 30.6679 45.4247L30.7917 48.3253C38.9474 47.9772 45.4517 41.2565 45.4517 33.0158H42.5484ZM42.0065 33.0158C42.0065 39.3998 36.9697 44.6082 30.654 44.8829L30.7802 47.7834C38.6419 47.4415 44.9097 40.961 44.9097 33.0158H42.0065ZM30.654 21.1487C36.9697 21.4234 42.0065 26.6318 42.0065 33.0158H44.9097C44.9097 25.0706 38.6419 18.5901 30.7802 18.2482L30.654 21.1487ZM31.9033 46.6068C31.9033 47.2608 31.3853 47.7571 30.7802 47.7834L30.654 44.8829C29.7548 44.922 29 45.6583 29 46.6068H31.9033ZM30.6679 45.4247C31.3536 45.3955 31.9033 45.9454 31.9033 46.6068H29C29 47.5724 29.802 48.3676 30.7917 48.3253L30.6679 45.4247ZM30.7802 18.2482C31.3853 18.2746 31.9033 18.7708 31.9033 19.4248H29C29 20.3733 29.7548 21.1096 30.654 21.1487L30.7802 18.2482ZM30.7917 17.7063C29.802 17.664 29 18.4592 29 19.4248H31.9033C31.9033 20.0862 31.3536 20.6361 30.6679 20.6069L30.7917 17.7063Z" fill="#7AD446" mask="url(#path-6-inside-2_1175_3258)"/>
<path d="M21.5623 35.7354H22.1436V31.6857H22.1774L22.2721 31.8606L24.8138 35.7354H25.5574V30.8313H24.9761V34.8811H24.9423L24.8273 34.6793L22.3261 30.8313H21.5623V35.7354Z" fill="white"/>
<path d="M28.9939 35.8027C29.7195 35.8027 30.2873 35.5919 30.6974 35.1703C31.112 34.7443 31.3194 34.1209 31.3194 33.3002V33.2733C31.3194 32.7261 31.2247 32.2687 31.0354 31.9009C30.8462 31.5287 30.578 31.2484 30.231 31.06C29.884 30.8672 29.4716 30.7708 28.9939 30.7708C28.5207 30.7708 28.1106 30.8672 27.7636 31.06C27.4166 31.2484 27.1484 31.5287 26.9592 31.9009C26.7699 32.2687 26.6752 32.7261 26.6752 33.2733V33.3002C26.6752 34.1209 26.8803 34.7443 27.2904 35.1703C27.705 35.5919 28.2729 35.8027 28.9939 35.8027ZM28.9939 35.278C28.6334 35.278 28.3269 35.2085 28.0746 35.0694C27.8222 34.9304 27.6307 34.7376 27.5 34.4909C27.3738 34.2442 27.3107 33.9572 27.3107 33.6298V32.9436C27.3107 32.6207 27.3738 32.3359 27.5 32.0893C27.6261 31.8426 27.8132 31.6498 28.061 31.5107C28.3134 31.3672 28.6244 31.2955 28.9939 31.2955C29.368 31.2955 29.6789 31.3672 29.9268 31.5107C30.1747 31.6498 30.3617 31.8426 30.4879 32.0893C30.6141 32.3359 30.6772 32.6207 30.6772 32.9436V33.6298C30.6772 33.9572 30.6118 34.2442 30.4811 34.4909C30.3549 34.7376 30.1656 34.9304 29.9133 35.0694C29.6654 35.2085 29.359 35.278 28.9939 35.278Z" fill="white"/>
<path d="M32.4416 35.7354H33.0365V30.8313H32.4416V35.7354Z" fill="white"/>
<path d="M34.5805 35.7354H35.1754V33.8384H36.4057L37.6901 35.7354H38.3999L37.0682 33.7711C37.4873 33.7217 37.805 33.5693 38.0214 33.3136C38.2377 33.0535 38.3458 32.7261 38.3458 32.3315C38.3458 31.8561 38.2061 31.4883 37.9267 31.2282C37.6473 30.9636 37.2372 30.8313 36.6964 30.8313H34.5805V35.7354ZM36.5882 31.356C36.9353 31.356 37.2079 31.4278 37.4062 31.5713C37.6045 31.7148 37.7036 31.9211 37.7036 32.1902V32.5266C37.7036 32.8001 37.6045 33.0087 37.4062 33.1522C37.2079 33.2912 36.9353 33.3607 36.5882 33.3607H35.1754V31.356H36.5882Z" fill="white"/>
<defs>
<filter id="filter0_f_1175_3258" x="4" y="7" width="52" height="52" filterUnits="userSpaceOnUse" color-interpolation-filters="sRGB">
<feFlood flood-opacity="0" result="BackgroundImageFix"/>
<feBlend mode="normal" in="SourceGraphic" in2="BackgroundImageFix" result="shape"/>

</filter>
<filter id="filter1_f_1175_3258" x="-84" y="-81" width="228" height="228" filterUnits="userSpaceOnUse" color-interpolation-filters="sRGB">
<feFlood flood-opacity="0" result="BackgroundImageFix"/>
<feBlend mode="normal" in="SourceGraphic" in2="BackgroundImageFix" result="shape"/>

</filter>
</defs>
</svg>
