<svg width="1548" height="679" viewBox="0 0 1548 679" fill="none" xmlns="http://www.w3.org/2000/svg">
<g opacity="0.2" clip-path="url(#clip0_426_2864)">
<rect width="97" height="1" transform="matrix(-1 0 0 -1 270 606.5)" fill="url(#paint0_linear_426_2864)"/>
</g>
<g opacity="0.3" filter="url(#filter0_f_426_2864)">
<ellipse cx="174" cy="606" rx="37" ry="28" transform="rotate(180 174 606)" fill="#7AD446"/>
</g>
<g opacity="0.3" filter="url(#filter1_f_426_2864)">
<ellipse cx="174" cy="606" rx="6" ry="5" transform="rotate(180 174 606)" fill="#EAFF8A"/>
</g>
<g opacity="0.8" filter="url(#filter2_f_426_2864)">
<circle cx="174" cy="606" r="1" transform="rotate(180 174 606)" fill="#EEFFA3"/>
</g>
<g opacity="0.4">
<g opacity="0.2" clip-path="url(#clip1_426_2864)">
<rect width="194" height="1" transform="matrix(-1 0 0 -1 270 540.5)" fill="url(#paint1_linear_426_2864)"/>
</g>
<g opacity="0.3" filter="url(#filter3_f_426_2864)">
<ellipse cx="77" cy="540" rx="37" ry="28" transform="rotate(180 77 540)" fill="#7AD446"/>
</g>
<g opacity="0.3" filter="url(#filter4_f_426_2864)">
<ellipse cx="77" cy="540" rx="6" ry="5" transform="rotate(180 77 540)" fill="#EAFF8A"/>
</g>
<g opacity="0.8" filter="url(#filter5_f_426_2864)">
<circle cx="77" cy="540" r="1" transform="rotate(180 77 540)" fill="#EEFFA3"/>
</g>
</g>
<g opacity="0.2" clip-path="url(#clip2_426_2864)">
<rect width="44" height="1" transform="matrix(-1 0 0 -1 270 408.5)" fill="url(#paint2_linear_426_2864)"/>
</g>
<g opacity="0.3" filter="url(#filter6_f_426_2864)">
<ellipse cx="227" cy="408" rx="37" ry="28" transform="rotate(180 227 408)" fill="#7AD446"/>
</g>
<g opacity="0.3" filter="url(#filter7_f_426_2864)">
<ellipse cx="227" cy="408" rx="6" ry="5" transform="rotate(180 227 408)" fill="#EAFF8A"/>
</g>
<g opacity="0.8" filter="url(#filter8_f_426_2864)">
<circle cx="227" cy="408" r="1" transform="rotate(180 227 408)" fill="#EEFFA3"/>
</g>
<g opacity="0.2" clip-path="url(#clip3_426_2864)">
<rect width="173" height="1" transform="matrix(-1 0 0 -1 270 276.5)" fill="url(#paint3_linear_426_2864)"/>
</g>
<g opacity="0.3" filter="url(#filter9_f_426_2864)">
<ellipse cx="98" cy="276" rx="37" ry="28" transform="rotate(180 98 276)" fill="#7AD446"/>
</g>
<g opacity="0.3" filter="url(#filter10_f_426_2864)">
<ellipse cx="98" cy="276" rx="6" ry="5" transform="rotate(180 98 276)" fill="#EAFF8A"/>
</g>
<g opacity="0.8" filter="url(#filter11_f_426_2864)">
<circle cx="98" cy="276" r="1" transform="rotate(180 98 276)" fill="#EEFFA3"/>
</g>
<g opacity="0.9">
<g opacity="0.2" clip-path="url(#clip4_426_2864)">
<rect width="97" height="1" transform="matrix(1 0 0 -1 625 412.5)" fill="url(#paint4_linear_426_2864)"/>
</g>
<g opacity="0.3" filter="url(#filter12_f_426_2864)">
<ellipse cx="37" cy="28" rx="37" ry="28" transform="matrix(1 0 0 -1 684 440)" fill="#7AD446"/>
</g>
<g opacity="0.3" filter="url(#filter13_f_426_2864)">
<ellipse cx="6" cy="5" rx="6" ry="5" transform="matrix(1 0 0 -1 715 417)" fill="#EAFF8A"/>
</g>
<g opacity="0.8" filter="url(#filter14_f_426_2864)">
<circle cx="1" cy="1" r="1" transform="matrix(1 0 0 -1 720 413)" fill="#EEFFA3"/>
</g>
</g>
<g opacity="0.3">
<g opacity="0.2" clip-path="url(#clip5_426_2864)">
<rect width="119" height="1" transform="matrix(1 0 0 -1 625 284.5)" fill="#7AD446"/>
</g>
<g opacity="0.3" filter="url(#filter15_f_426_2864)">
<ellipse cx="32" cy="24" rx="32" ry="24" transform="matrix(1 0 0 -1 712 308)" fill="#7AD446"/>
</g>
<g opacity="0.3" filter="url(#filter16_f_426_2864)">
<ellipse cx="5.18919" cy="4.28571" rx="5.18919" ry="4.28571" transform="matrix(1 0 0 -1 738.811 288.286)" fill="#EAFF8A"/>
</g>
<g opacity="0.8" filter="url(#filter17_f_426_2864)">
<ellipse cx="0.864865" cy="0.857143" rx="0.864865" ry="0.857143" transform="matrix(1 0 0 -1 743.135 284.857)" fill="#EEFFA3"/>
</g>
</g>
<g opacity="0.4">
<g opacity="0.2" clip-path="url(#clip6_426_2864)">
<rect width="97" height="1" transform="matrix(1 0 0 -1 625 156.5)" fill="url(#paint5_linear_426_2864)"/>
</g>
<g opacity="0.3" filter="url(#filter18_f_426_2864)">
<ellipse cx="37" cy="28" rx="37" ry="28" transform="matrix(1 0 0 -1 684 184)" fill="#7AD446"/>
</g>
<g opacity="0.3" filter="url(#filter19_f_426_2864)">
<ellipse cx="6" cy="5" rx="6" ry="5" transform="matrix(1 0 0 -1 715 161)" fill="#EAFF8A"/>
</g>
<g opacity="0.8" filter="url(#filter20_f_426_2864)">
<circle cx="1" cy="1" r="1" transform="matrix(1 0 0 -1 720 157)" fill="#EEFFA3"/>
</g>
</g>
<g opacity="0.2" clip-path="url(#clip7_426_2864)">
<rect width="184" height="1" transform="matrix(1 0 0 -1 625 90.5)" fill="url(#paint6_linear_426_2864)"/>
</g>
<g opacity="0.3" filter="url(#filter21_f_426_2864)">
<ellipse cx="37" cy="28" rx="37" ry="28" transform="matrix(1 0 0 -1 771 118)" fill="#7AD446"/>
</g>
<g opacity="0.3" filter="url(#filter22_f_426_2864)">
<ellipse cx="6" cy="5" rx="6" ry="5" transform="matrix(1 0 0 -1 802 95)" fill="#EAFF8A"/>
</g>
<g opacity="0.8" filter="url(#filter23_f_426_2864)">
<circle cx="1" cy="1" r="1" transform="matrix(1 0 0 -1 807 91)" fill="#EEFFA3"/>
</g>
<path opacity="0.2" d="M579.5 455.5V561" stroke="#7AD446"/>
<g opacity="0.3" filter="url(#filter24_f_426_2864)">
<ellipse cx="36.5" cy="28" rx="36.5" ry="28" transform="matrix(-1 0 0 1 616 533)" fill="#7AD446"/>
</g>
<g opacity="0.3" filter="url(#filter25_f_426_2864)">
<ellipse cx="5.91892" cy="5" rx="5.91892" ry="5" transform="matrix(-1 0 0 1 585.419 556)" fill="#EAFF8A"/>
</g>
<g opacity="0.8" filter="url(#filter26_f_426_2864)">
<ellipse cx="0.986486" cy="1" rx="0.986486" ry="1" transform="matrix(-1 0 0 1 580.486 560)" fill="#EEFFA3"/>
</g>
<path opacity="0.1" d="M509.5 505.5V611" stroke="#7AD446"/>
<g opacity="0.7">
<g opacity="0.3" filter="url(#filter27_f_426_2864)">
<ellipse cx="36.5" cy="28" rx="36.5" ry="28" transform="matrix(-1 0 0 1 546 583)" fill="#7AD446"/>
</g>
<g opacity="0.3" filter="url(#filter28_f_426_2864)">
<ellipse cx="5.91892" cy="5" rx="5.91892" ry="5" transform="matrix(-1 0 0 1 515.419 606)" fill="#EAFF8A"/>
</g>
<g opacity="0.8" filter="url(#filter29_f_426_2864)">
<ellipse cx="0.986486" cy="1" rx="0.986486" ry="1" transform="matrix(-1 0 0 1 510.486 610)" fill="#EEFFA3"/>
</g>
</g>
<path opacity="0.06" d="M616 485H670.5C688.173 485 702.5 499.327 702.5 517V581.5" stroke="#7AD446"/>
<g opacity="0.5">
<g opacity="0.3" filter="url(#filter30_f_426_2864)">
<ellipse cx="36.5" cy="28" rx="36.5" ry="28" transform="matrix(-1 0 0 1 739 554)" fill="#7AD446"/>
</g>
<g opacity="0.3" filter="url(#filter31_f_426_2864)">
<ellipse cx="5.91892" cy="5" rx="5.91892" ry="5" transform="matrix(-1 0 0 1 708.419 577)" fill="#EAFF8A"/>
</g>
<g opacity="0.8" filter="url(#filter32_f_426_2864)">
<ellipse cx="0.986486" cy="1" rx="0.986486" ry="1" transform="matrix(-1 0 0 1 703.486 581)" fill="#EEFFA3"/>
</g>
</g>
<g opacity="0.2" clip-path="url(#clip8_426_2864)">
<rect width="97" height="1" transform="matrix(-1 0 0 1 1548 67.5)" fill="url(#paint7_linear_426_2864)"/>
</g>
<g opacity="0.3" filter="url(#filter33_f_426_2864)">
<ellipse cx="37" cy="28" rx="37" ry="28" transform="matrix(-1 0 0 1 1489 40)" fill="#7AD446"/>
</g>
<g opacity="0.3" filter="url(#filter34_f_426_2864)">
<ellipse cx="6" cy="5" rx="6" ry="5" transform="matrix(-1 0 0 1 1458 63)" fill="#EAFF8A"/>
</g>
<g opacity="0.8" filter="url(#filter35_f_426_2864)">
<circle cx="1" cy="1" r="1" transform="matrix(-1 0 0 1 1453 67)" fill="#EEFFA3"/>
</g>
<g opacity="0.4">
<g opacity="0.2" clip-path="url(#clip9_426_2864)">
<rect width="388" height="1" transform="matrix(-1 0 0 1 1548 133.5)" fill="url(#paint8_linear_426_2864)"/>
</g>
<g opacity="0.3" filter="url(#filter36_f_426_2864)">
<ellipse cx="37" cy="28" rx="37" ry="28" transform="matrix(-1 0 0 1 1198 106)" fill="#7AD446"/>
</g>
<g opacity="0.3" filter="url(#filter37_f_426_2864)">
<ellipse cx="6" cy="5" rx="6" ry="5" transform="matrix(-1 0 0 1 1167 129)" fill="#EAFF8A"/>
</g>
<g opacity="0.8" filter="url(#filter38_f_426_2864)">
<circle cx="1" cy="1" r="1" transform="matrix(-1 0 0 1 1162 133)" fill="#EEFFA3"/>
</g>
</g>
<g opacity="0.2" clip-path="url(#clip10_426_2864)">
<rect width="44" height="1" transform="matrix(-1 0 0 1 1548 265.5)" fill="url(#paint9_linear_426_2864)"/>
</g>
<g opacity="0.3" filter="url(#filter39_f_426_2864)">
<ellipse cx="37" cy="28" rx="37" ry="28" transform="matrix(-1 0 0 1 1542 238)" fill="#7AD446"/>
</g>
<g opacity="0.3" filter="url(#filter40_f_426_2864)">
<ellipse cx="6" cy="5" rx="6" ry="5" transform="matrix(-1 0 0 1 1511 261)" fill="#EAFF8A"/>
</g>
<g opacity="0.8" filter="url(#filter41_f_426_2864)">
<circle cx="1" cy="1" r="1" transform="matrix(-1 0 0 1 1506 265)" fill="#EEFFA3"/>
</g>
<g opacity="0.2" clip-path="url(#clip11_426_2864)">
<rect width="291" height="1" transform="matrix(-1 0 0 1 1548 397.5)" fill="url(#paint10_linear_426_2864)"/>
</g>
<g opacity="0.3" filter="url(#filter42_f_426_2864)">
<ellipse cx="37" cy="28" rx="37" ry="28" transform="matrix(-1 0 0 1 1295 370)" fill="#7AD446"/>
</g>
<g opacity="0.3" filter="url(#filter43_f_426_2864)">
<ellipse cx="6" cy="5" rx="6" ry="5" transform="matrix(-1 0 0 1 1264 393)" fill="#EAFF8A"/>
</g>
<g opacity="0.8" filter="url(#filter44_f_426_2864)">
<circle cx="1" cy="1" r="1" transform="matrix(-1 0 0 1 1259 397)" fill="#EEFFA3"/>
</g>
<g opacity="0.8">
<g opacity="0.2" clip-path="url(#clip12_426_2864)">
<rect width="184" height="1" transform="matrix(-1 0 0 1 1548 463.5)" fill="url(#paint11_linear_426_2864)"/>
</g>
<g opacity="0.3" filter="url(#filter45_f_426_2864)">
<ellipse cx="37" cy="28" rx="37" ry="28" transform="matrix(-1 0 0 1 1402 436)" fill="#7AD446"/>
</g>
<g opacity="0.3" filter="url(#filter46_f_426_2864)">
<ellipse cx="6" cy="5" rx="6" ry="5" transform="matrix(-1 0 0 1 1371 459)" fill="#EAFF8A"/>
</g>
<g opacity="0.8" filter="url(#filter47_f_426_2864)">
<circle cx="1" cy="1" r="1" transform="matrix(-1 0 0 1 1366 463)" fill="#EEFFA3"/>
</g>
</g>
<g opacity="0.5">
<g opacity="0.2" clip-path="url(#clip13_426_2864)">
<rect width="97" height="1" transform="matrix(-1 0 0 1 1548 595.5)" fill="url(#paint12_linear_426_2864)"/>
</g>
<g opacity="0.3" filter="url(#filter48_f_426_2864)">
<ellipse cx="37" cy="28" rx="37" ry="28" transform="matrix(-1 0 0 1 1489 568)" fill="#7AD446"/>
</g>
<g opacity="0.3" filter="url(#filter49_f_426_2864)">
<ellipse cx="6" cy="5" rx="6" ry="5" transform="matrix(-1 0 0 1 1458 591)" fill="#EAFF8A"/>
</g>
<g opacity="0.8" filter="url(#filter50_f_426_2864)">
<circle cx="1" cy="1" r="1" transform="matrix(-1 0 0 1 1453 595)" fill="#EEFFA3"/>
</g>
</g>
<defs>
<filter id="filter0_f_426_2864" x="97" y="538" width="154" height="136" filterUnits="userSpaceOnUse" color-interpolation-filters="sRGB">
<feFlood flood-opacity="0" result="BackgroundImageFix"/>
<feBlend mode="normal" in="SourceGraphic" in2="BackgroundImageFix" result="shape"/>
<feGaussianBlur stdDeviation="20" result="effect1_foregroundBlur_426_2864"/>
</filter>
<filter id="filter1_f_426_2864" x="158" y="591" width="32" height="30" filterUnits="userSpaceOnUse" color-interpolation-filters="sRGB">
<feFlood flood-opacity="0" result="BackgroundImageFix"/>
<feBlend mode="normal" in="SourceGraphic" in2="BackgroundImageFix" result="shape"/>
<feGaussianBlur stdDeviation="5" result="effect1_foregroundBlur_426_2864"/>
</filter>
<filter id="filter2_f_426_2864" x="172" y="604" width="4" height="4" filterUnits="userSpaceOnUse" color-interpolation-filters="sRGB">
<feFlood flood-opacity="0" result="BackgroundImageFix"/>
<feBlend mode="normal" in="SourceGraphic" in2="BackgroundImageFix" result="shape"/>
<feGaussianBlur stdDeviation="0.5" result="effect1_foregroundBlur_426_2864"/>
</filter>
<filter id="filter3_f_426_2864" x="0" y="472" width="154" height="136" filterUnits="userSpaceOnUse" color-interpolation-filters="sRGB">
<feFlood flood-opacity="0" result="BackgroundImageFix"/>
<feBlend mode="normal" in="SourceGraphic" in2="BackgroundImageFix" result="shape"/>
<feGaussianBlur stdDeviation="20" result="effect1_foregroundBlur_426_2864"/>
</filter>
<filter id="filter4_f_426_2864" x="61" y="525" width="32" height="30" filterUnits="userSpaceOnUse" color-interpolation-filters="sRGB">
<feFlood flood-opacity="0" result="BackgroundImageFix"/>
<feBlend mode="normal" in="SourceGraphic" in2="BackgroundImageFix" result="shape"/>
<feGaussianBlur stdDeviation="5" result="effect1_foregroundBlur_426_2864"/>
</filter>
<filter id="filter5_f_426_2864" x="75" y="538" width="4" height="4" filterUnits="userSpaceOnUse" color-interpolation-filters="sRGB">
<feFlood flood-opacity="0" result="BackgroundImageFix"/>
<feBlend mode="normal" in="SourceGraphic" in2="BackgroundImageFix" result="shape"/>
<feGaussianBlur stdDeviation="0.5" result="effect1_foregroundBlur_426_2864"/>
</filter>
<filter id="filter6_f_426_2864" x="150" y="340" width="154" height="136" filterUnits="userSpaceOnUse" color-interpolation-filters="sRGB">
<feFlood flood-opacity="0" result="BackgroundImageFix"/>
<feBlend mode="normal" in="SourceGraphic" in2="BackgroundImageFix" result="shape"/>
<feGaussianBlur stdDeviation="20" result="effect1_foregroundBlur_426_2864"/>
</filter>
<filter id="filter7_f_426_2864" x="211" y="393" width="32" height="30" filterUnits="userSpaceOnUse" color-interpolation-filters="sRGB">
<feFlood flood-opacity="0" result="BackgroundImageFix"/>
<feBlend mode="normal" in="SourceGraphic" in2="BackgroundImageFix" result="shape"/>
<feGaussianBlur stdDeviation="5" result="effect1_foregroundBlur_426_2864"/>
</filter>
<filter id="filter8_f_426_2864" x="225" y="406" width="4" height="4" filterUnits="userSpaceOnUse" color-interpolation-filters="sRGB">
<feFlood flood-opacity="0" result="BackgroundImageFix"/>
<feBlend mode="normal" in="SourceGraphic" in2="BackgroundImageFix" result="shape"/>
<feGaussianBlur stdDeviation="0.5" result="effect1_foregroundBlur_426_2864"/>
</filter>
<filter id="filter9_f_426_2864" x="21" y="208" width="154" height="136" filterUnits="userSpaceOnUse" color-interpolation-filters="sRGB">
<feFlood flood-opacity="0" result="BackgroundImageFix"/>
<feBlend mode="normal" in="SourceGraphic" in2="BackgroundImageFix" result="shape"/>
<feGaussianBlur stdDeviation="20" result="effect1_foregroundBlur_426_2864"/>
</filter>
<filter id="filter10_f_426_2864" x="82" y="261" width="32" height="30" filterUnits="userSpaceOnUse" color-interpolation-filters="sRGB">
<feFlood flood-opacity="0" result="BackgroundImageFix"/>
<feBlend mode="normal" in="SourceGraphic" in2="BackgroundImageFix" result="shape"/>
<feGaussianBlur stdDeviation="5" result="effect1_foregroundBlur_426_2864"/>
</filter>
<filter id="filter11_f_426_2864" x="96" y="274" width="4" height="4" filterUnits="userSpaceOnUse" color-interpolation-filters="sRGB">
<feFlood flood-opacity="0" result="BackgroundImageFix"/>
<feBlend mode="normal" in="SourceGraphic" in2="BackgroundImageFix" result="shape"/>
<feGaussianBlur stdDeviation="0.5" result="effect1_foregroundBlur_426_2864"/>
</filter>
<filter id="filter12_f_426_2864" x="644" y="344" width="154" height="136" filterUnits="userSpaceOnUse" color-interpolation-filters="sRGB">
<feFlood flood-opacity="0" result="BackgroundImageFix"/>
<feBlend mode="normal" in="SourceGraphic" in2="BackgroundImageFix" result="shape"/>
<feGaussianBlur stdDeviation="20" result="effect1_foregroundBlur_426_2864"/>
</filter>
<filter id="filter13_f_426_2864" x="705" y="397" width="32" height="30" filterUnits="userSpaceOnUse" color-interpolation-filters="sRGB">
<feFlood flood-opacity="0" result="BackgroundImageFix"/>
<feBlend mode="normal" in="SourceGraphic" in2="BackgroundImageFix" result="shape"/>
<feGaussianBlur stdDeviation="5" result="effect1_foregroundBlur_426_2864"/>
</filter>
<filter id="filter14_f_426_2864" x="719" y="410" width="4" height="4" filterUnits="userSpaceOnUse" color-interpolation-filters="sRGB">
<feFlood flood-opacity="0" result="BackgroundImageFix"/>
<feBlend mode="normal" in="SourceGraphic" in2="BackgroundImageFix" result="shape"/>
<feGaussianBlur stdDeviation="0.5" result="effect1_foregroundBlur_426_2864"/>
</filter>
<filter id="filter15_f_426_2864" x="672" y="220" width="144" height="128" filterUnits="userSpaceOnUse" color-interpolation-filters="sRGB">
<feFlood flood-opacity="0" result="BackgroundImageFix"/>
<feBlend mode="normal" in="SourceGraphic" in2="BackgroundImageFix" result="shape"/>
<feGaussianBlur stdDeviation="20" result="effect1_foregroundBlur_426_2864"/>
</filter>
<filter id="filter16_f_426_2864" x="728.811" y="269.715" width="30.3784" height="28.5713" filterUnits="userSpaceOnUse" color-interpolation-filters="sRGB">
<feFlood flood-opacity="0" result="BackgroundImageFix"/>
<feBlend mode="normal" in="SourceGraphic" in2="BackgroundImageFix" result="shape"/>
<feGaussianBlur stdDeviation="5" result="effect1_foregroundBlur_426_2864"/>
</filter>
<filter id="filter17_f_426_2864" x="742.135" y="282.144" width="3.72974" height="3.71387" filterUnits="userSpaceOnUse" color-interpolation-filters="sRGB">
<feFlood flood-opacity="0" result="BackgroundImageFix"/>
<feBlend mode="normal" in="SourceGraphic" in2="BackgroundImageFix" result="shape"/>
<feGaussianBlur stdDeviation="0.5" result="effect1_foregroundBlur_426_2864"/>
</filter>
<filter id="filter18_f_426_2864" x="644" y="88" width="154" height="136" filterUnits="userSpaceOnUse" color-interpolation-filters="sRGB">
<feFlood flood-opacity="0" result="BackgroundImageFix"/>
<feBlend mode="normal" in="SourceGraphic" in2="BackgroundImageFix" result="shape"/>
<feGaussianBlur stdDeviation="20" result="effect1_foregroundBlur_426_2864"/>
</filter>
<filter id="filter19_f_426_2864" x="705" y="141" width="32" height="30" filterUnits="userSpaceOnUse" color-interpolation-filters="sRGB">
<feFlood flood-opacity="0" result="BackgroundImageFix"/>
<feBlend mode="normal" in="SourceGraphic" in2="BackgroundImageFix" result="shape"/>
<feGaussianBlur stdDeviation="5" result="effect1_foregroundBlur_426_2864"/>
</filter>
<filter id="filter20_f_426_2864" x="719" y="154" width="4" height="4" filterUnits="userSpaceOnUse" color-interpolation-filters="sRGB">
<feFlood flood-opacity="0" result="BackgroundImageFix"/>
<feBlend mode="normal" in="SourceGraphic" in2="BackgroundImageFix" result="shape"/>
<feGaussianBlur stdDeviation="0.5" result="effect1_foregroundBlur_426_2864"/>
</filter>
<filter id="filter21_f_426_2864" x="731" y="22" width="154" height="136" filterUnits="userSpaceOnUse" color-interpolation-filters="sRGB">
<feFlood flood-opacity="0" result="BackgroundImageFix"/>
<feBlend mode="normal" in="SourceGraphic" in2="BackgroundImageFix" result="shape"/>
<feGaussianBlur stdDeviation="20" result="effect1_foregroundBlur_426_2864"/>
</filter>
<filter id="filter22_f_426_2864" x="792" y="75" width="32" height="30" filterUnits="userSpaceOnUse" color-interpolation-filters="sRGB">
<feFlood flood-opacity="0" result="BackgroundImageFix"/>
<feBlend mode="normal" in="SourceGraphic" in2="BackgroundImageFix" result="shape"/>
<feGaussianBlur stdDeviation="5" result="effect1_foregroundBlur_426_2864"/>
</filter>
<filter id="filter23_f_426_2864" x="806" y="88" width="4" height="4" filterUnits="userSpaceOnUse" color-interpolation-filters="sRGB">
<feFlood flood-opacity="0" result="BackgroundImageFix"/>
<feBlend mode="normal" in="SourceGraphic" in2="BackgroundImageFix" result="shape"/>
<feGaussianBlur stdDeviation="0.5" result="effect1_foregroundBlur_426_2864"/>
</filter>
<filter id="filter24_f_426_2864" x="503" y="493" width="153" height="136" filterUnits="userSpaceOnUse" color-interpolation-filters="sRGB">
<feFlood flood-opacity="0" result="BackgroundImageFix"/>
<feBlend mode="normal" in="SourceGraphic" in2="BackgroundImageFix" result="shape"/>
<feGaussianBlur stdDeviation="20" result="effect1_foregroundBlur_426_2864"/>
</filter>
<filter id="filter25_f_426_2864" x="563.581" y="546" width="31.8379" height="30" filterUnits="userSpaceOnUse" color-interpolation-filters="sRGB">
<feFlood flood-opacity="0" result="BackgroundImageFix"/>
<feBlend mode="normal" in="SourceGraphic" in2="BackgroundImageFix" result="shape"/>
<feGaussianBlur stdDeviation="5" result="effect1_foregroundBlur_426_2864"/>
</filter>
<filter id="filter26_f_426_2864" x="577.513" y="559" width="3.97302" height="4" filterUnits="userSpaceOnUse" color-interpolation-filters="sRGB">
<feFlood flood-opacity="0" result="BackgroundImageFix"/>
<feBlend mode="normal" in="SourceGraphic" in2="BackgroundImageFix" result="shape"/>
<feGaussianBlur stdDeviation="0.5" result="effect1_foregroundBlur_426_2864"/>
</filter>
<filter id="filter27_f_426_2864" x="433" y="543" width="153" height="136" filterUnits="userSpaceOnUse" color-interpolation-filters="sRGB">
<feFlood flood-opacity="0" result="BackgroundImageFix"/>
<feBlend mode="normal" in="SourceGraphic" in2="BackgroundImageFix" result="shape"/>
<feGaussianBlur stdDeviation="20" result="effect1_foregroundBlur_426_2864"/>
</filter>
<filter id="filter28_f_426_2864" x="493.581" y="596" width="31.8379" height="30" filterUnits="userSpaceOnUse" color-interpolation-filters="sRGB">
<feFlood flood-opacity="0" result="BackgroundImageFix"/>
<feBlend mode="normal" in="SourceGraphic" in2="BackgroundImageFix" result="shape"/>
<feGaussianBlur stdDeviation="5" result="effect1_foregroundBlur_426_2864"/>
</filter>
<filter id="filter29_f_426_2864" x="507.513" y="609" width="3.97302" height="4" filterUnits="userSpaceOnUse" color-interpolation-filters="sRGB">
<feFlood flood-opacity="0" result="BackgroundImageFix"/>
<feBlend mode="normal" in="SourceGraphic" in2="BackgroundImageFix" result="shape"/>
<feGaussianBlur stdDeviation="0.5" result="effect1_foregroundBlur_426_2864"/>
</filter>
<filter id="filter30_f_426_2864" x="626" y="514" width="153" height="136" filterUnits="userSpaceOnUse" color-interpolation-filters="sRGB">
<feFlood flood-opacity="0" result="BackgroundImageFix"/>
<feBlend mode="normal" in="SourceGraphic" in2="BackgroundImageFix" result="shape"/>
<feGaussianBlur stdDeviation="20" result="effect1_foregroundBlur_426_2864"/>
</filter>
<filter id="filter31_f_426_2864" x="686.581" y="567" width="31.8379" height="30" filterUnits="userSpaceOnUse" color-interpolation-filters="sRGB">
<feFlood flood-opacity="0" result="BackgroundImageFix"/>
<feBlend mode="normal" in="SourceGraphic" in2="BackgroundImageFix" result="shape"/>
<feGaussianBlur stdDeviation="5" result="effect1_foregroundBlur_426_2864"/>
</filter>
<filter id="filter32_f_426_2864" x="700.513" y="580" width="3.97302" height="4" filterUnits="userSpaceOnUse" color-interpolation-filters="sRGB">
<feFlood flood-opacity="0" result="BackgroundImageFix"/>
<feBlend mode="normal" in="SourceGraphic" in2="BackgroundImageFix" result="shape"/>
<feGaussianBlur stdDeviation="0.5" result="effect1_foregroundBlur_426_2864"/>
</filter>
<filter id="filter33_f_426_2864" x="1375" y="0" width="154" height="136" filterUnits="userSpaceOnUse" color-interpolation-filters="sRGB">
<feFlood flood-opacity="0" result="BackgroundImageFix"/>
<feBlend mode="normal" in="SourceGraphic" in2="BackgroundImageFix" result="shape"/>
<feGaussianBlur stdDeviation="20" result="effect1_foregroundBlur_426_2864"/>
</filter>
<filter id="filter34_f_426_2864" x="1436" y="53" width="32" height="30" filterUnits="userSpaceOnUse" color-interpolation-filters="sRGB">
<feFlood flood-opacity="0" result="BackgroundImageFix"/>
<feBlend mode="normal" in="SourceGraphic" in2="BackgroundImageFix" result="shape"/>
<feGaussianBlur stdDeviation="5" result="effect1_foregroundBlur_426_2864"/>
</filter>
<filter id="filter35_f_426_2864" x="1450" y="66" width="4" height="4" filterUnits="userSpaceOnUse" color-interpolation-filters="sRGB">
<feFlood flood-opacity="0" result="BackgroundImageFix"/>
<feBlend mode="normal" in="SourceGraphic" in2="BackgroundImageFix" result="shape"/>
<feGaussianBlur stdDeviation="0.5" result="effect1_foregroundBlur_426_2864"/>
</filter>
<filter id="filter36_f_426_2864" x="1084" y="66" width="154" height="136" filterUnits="userSpaceOnUse" color-interpolation-filters="sRGB">
<feFlood flood-opacity="0" result="BackgroundImageFix"/>
<feBlend mode="normal" in="SourceGraphic" in2="BackgroundImageFix" result="shape"/>
<feGaussianBlur stdDeviation="20" result="effect1_foregroundBlur_426_2864"/>
</filter>
<filter id="filter37_f_426_2864" x="1145" y="119" width="32" height="30" filterUnits="userSpaceOnUse" color-interpolation-filters="sRGB">
<feFlood flood-opacity="0" result="BackgroundImageFix"/>
<feBlend mode="normal" in="SourceGraphic" in2="BackgroundImageFix" result="shape"/>
<feGaussianBlur stdDeviation="5" result="effect1_foregroundBlur_426_2864"/>
</filter>
<filter id="filter38_f_426_2864" x="1159" y="132" width="4" height="4" filterUnits="userSpaceOnUse" color-interpolation-filters="sRGB">
<feFlood flood-opacity="0" result="BackgroundImageFix"/>
<feBlend mode="normal" in="SourceGraphic" in2="BackgroundImageFix" result="shape"/>
<feGaussianBlur stdDeviation="0.5" result="effect1_foregroundBlur_426_2864"/>
</filter>
<filter id="filter39_f_426_2864" x="1428" y="198" width="154" height="136" filterUnits="userSpaceOnUse" color-interpolation-filters="sRGB">
<feFlood flood-opacity="0" result="BackgroundImageFix"/>
<feBlend mode="normal" in="SourceGraphic" in2="BackgroundImageFix" result="shape"/>
<feGaussianBlur stdDeviation="20" result="effect1_foregroundBlur_426_2864"/>
</filter>
<filter id="filter40_f_426_2864" x="1489" y="251" width="32" height="30" filterUnits="userSpaceOnUse" color-interpolation-filters="sRGB">
<feFlood flood-opacity="0" result="BackgroundImageFix"/>
<feBlend mode="normal" in="SourceGraphic" in2="BackgroundImageFix" result="shape"/>
<feGaussianBlur stdDeviation="5" result="effect1_foregroundBlur_426_2864"/>
</filter>
<filter id="filter41_f_426_2864" x="1503" y="264" width="4" height="4" filterUnits="userSpaceOnUse" color-interpolation-filters="sRGB">
<feFlood flood-opacity="0" result="BackgroundImageFix"/>
<feBlend mode="normal" in="SourceGraphic" in2="BackgroundImageFix" result="shape"/>
<feGaussianBlur stdDeviation="0.5" result="effect1_foregroundBlur_426_2864"/>
</filter>
<filter id="filter42_f_426_2864" x="1181" y="330" width="154" height="136" filterUnits="userSpaceOnUse" color-interpolation-filters="sRGB">
<feFlood flood-opacity="0" result="BackgroundImageFix"/>
<feBlend mode="normal" in="SourceGraphic" in2="BackgroundImageFix" result="shape"/>
<feGaussianBlur stdDeviation="20" result="effect1_foregroundBlur_426_2864"/>
</filter>
<filter id="filter43_f_426_2864" x="1242" y="383" width="32" height="30" filterUnits="userSpaceOnUse" color-interpolation-filters="sRGB">
<feFlood flood-opacity="0" result="BackgroundImageFix"/>
<feBlend mode="normal" in="SourceGraphic" in2="BackgroundImageFix" result="shape"/>
<feGaussianBlur stdDeviation="5" result="effect1_foregroundBlur_426_2864"/>
</filter>
<filter id="filter44_f_426_2864" x="1256" y="396" width="4" height="4" filterUnits="userSpaceOnUse" color-interpolation-filters="sRGB">
<feFlood flood-opacity="0" result="BackgroundImageFix"/>
<feBlend mode="normal" in="SourceGraphic" in2="BackgroundImageFix" result="shape"/>
<feGaussianBlur stdDeviation="0.5" result="effect1_foregroundBlur_426_2864"/>
</filter>
<filter id="filter45_f_426_2864" x="1288" y="396" width="154" height="136" filterUnits="userSpaceOnUse" color-interpolation-filters="sRGB">
<feFlood flood-opacity="0" result="BackgroundImageFix"/>
<feBlend mode="normal" in="SourceGraphic" in2="BackgroundImageFix" result="shape"/>
<feGaussianBlur stdDeviation="20" result="effect1_foregroundBlur_426_2864"/>
</filter>
<filter id="filter46_f_426_2864" x="1349" y="449" width="32" height="30" filterUnits="userSpaceOnUse" color-interpolation-filters="sRGB">
<feFlood flood-opacity="0" result="BackgroundImageFix"/>
<feBlend mode="normal" in="SourceGraphic" in2="BackgroundImageFix" result="shape"/>
<feGaussianBlur stdDeviation="5" result="effect1_foregroundBlur_426_2864"/>
</filter>
<filter id="filter47_f_426_2864" x="1363" y="462" width="4" height="4" filterUnits="userSpaceOnUse" color-interpolation-filters="sRGB">
<feFlood flood-opacity="0" result="BackgroundImageFix"/>
<feBlend mode="normal" in="SourceGraphic" in2="BackgroundImageFix" result="shape"/>
<feGaussianBlur stdDeviation="0.5" result="effect1_foregroundBlur_426_2864"/>
</filter>
<filter id="filter48_f_426_2864" x="1375" y="528" width="154" height="136" filterUnits="userSpaceOnUse" color-interpolation-filters="sRGB">
<feFlood flood-opacity="0" result="BackgroundImageFix"/>
<feBlend mode="normal" in="SourceGraphic" in2="BackgroundImageFix" result="shape"/>
<feGaussianBlur stdDeviation="20" result="effect1_foregroundBlur_426_2864"/>
</filter>
<filter id="filter49_f_426_2864" x="1436" y="581" width="32" height="30" filterUnits="userSpaceOnUse" color-interpolation-filters="sRGB">
<feFlood flood-opacity="0" result="BackgroundImageFix"/>
<feBlend mode="normal" in="SourceGraphic" in2="BackgroundImageFix" result="shape"/>
<feGaussianBlur stdDeviation="5" result="effect1_foregroundBlur_426_2864"/>
</filter>
<filter id="filter50_f_426_2864" x="1450" y="594" width="4" height="4" filterUnits="userSpaceOnUse" color-interpolation-filters="sRGB">
<feFlood flood-opacity="0" result="BackgroundImageFix"/>
<feBlend mode="normal" in="SourceGraphic" in2="BackgroundImageFix" result="shape"/>
<feGaussianBlur stdDeviation="0.5" result="effect1_foregroundBlur_426_2864"/>
</filter>
<linearGradient id="paint0_linear_426_2864" x1="97" y1="1.00032" x2="0" y2="1.00032" gradientUnits="userSpaceOnUse">
<stop stop-color="#7AD446"/>
<stop offset="1" stop-color="#7AD446" stop-opacity="0"/>
</linearGradient>
<linearGradient id="paint1_linear_426_2864" x1="194" y1="1.00032" x2="0" y2="1.00032" gradientUnits="userSpaceOnUse">
<stop stop-color="#7AD446"/>
<stop offset="1" stop-color="#7AD446" stop-opacity="0"/>
</linearGradient>
<linearGradient id="paint2_linear_426_2864" x1="44" y1="1.00032" x2="0" y2="1.00032" gradientUnits="userSpaceOnUse">
<stop stop-color="#7AD446"/>
<stop offset="1" stop-color="#7AD446" stop-opacity="0"/>
</linearGradient>
<linearGradient id="paint3_linear_426_2864" x1="173" y1="1.00032" x2="0" y2="1.00032" gradientUnits="userSpaceOnUse">
<stop stop-color="#7AD446"/>
<stop offset="1" stop-color="#7AD446" stop-opacity="0"/>
</linearGradient>
<linearGradient id="paint4_linear_426_2864" x1="97" y1="1.00032" x2="0" y2="1.00032" gradientUnits="userSpaceOnUse">
<stop stop-color="#7AD446"/>
<stop offset="1" stop-color="#7AD446" stop-opacity="0"/>
</linearGradient>
<linearGradient id="paint5_linear_426_2864" x1="97" y1="1.00032" x2="0" y2="1.00032" gradientUnits="userSpaceOnUse">
<stop stop-color="#7AD446"/>
<stop offset="1" stop-color="#7AD446" stop-opacity="0"/>
</linearGradient>
<linearGradient id="paint6_linear_426_2864" x1="184" y1="1.00032" x2="0" y2="1.00032" gradientUnits="userSpaceOnUse">
<stop stop-color="#7AD446"/>
<stop offset="1" stop-color="#7AD446" stop-opacity="0"/>
</linearGradient>
<linearGradient id="paint7_linear_426_2864" x1="97" y1="1.00032" x2="0" y2="1.00032" gradientUnits="userSpaceOnUse">
<stop stop-color="#7AD446"/>
<stop offset="1" stop-color="#7AD446" stop-opacity="0"/>
</linearGradient>
<linearGradient id="paint8_linear_426_2864" x1="388" y1="1.00032" x2="0" y2="1.00032" gradientUnits="userSpaceOnUse">
<stop stop-color="#7AD446"/>
<stop offset="1" stop-color="#7AD446" stop-opacity="0"/>
</linearGradient>
<linearGradient id="paint9_linear_426_2864" x1="44" y1="1.00032" x2="0" y2="1.00032" gradientUnits="userSpaceOnUse">
<stop stop-color="#7AD446"/>
<stop offset="1" stop-color="#7AD446" stop-opacity="0"/>
</linearGradient>
<linearGradient id="paint10_linear_426_2864" x1="291" y1="1.00032" x2="0" y2="1.00032" gradientUnits="userSpaceOnUse">
<stop stop-color="#7AD446"/>
<stop offset="1" stop-color="#7AD446" stop-opacity="0"/>
</linearGradient>
<linearGradient id="paint11_linear_426_2864" x1="184" y1="1.00032" x2="0" y2="1.00032" gradientUnits="userSpaceOnUse">
<stop stop-color="#7AD446"/>
<stop offset="1" stop-color="#7AD446" stop-opacity="0"/>
</linearGradient>
<linearGradient id="paint12_linear_426_2864" x1="97" y1="1.00032" x2="0" y2="1.00032" gradientUnits="userSpaceOnUse">
<stop stop-color="#7AD446"/>
<stop offset="1" stop-color="#7AD446" stop-opacity="0"/>
</linearGradient>
<clipPath id="clip0_426_2864">
<rect width="97" height="1" fill="white" transform="matrix(-1 0 0 -1 270 606.5)"/>
</clipPath>
<clipPath id="clip1_426_2864">
<rect width="194" height="1" fill="white" transform="matrix(-1 0 0 -1 270 540.5)"/>
</clipPath>
<clipPath id="clip2_426_2864">
<rect width="44" height="1" fill="white" transform="matrix(-1 0 0 -1 270 408.5)"/>
</clipPath>
<clipPath id="clip3_426_2864">
<rect width="173" height="1" fill="white" transform="matrix(-1 0 0 -1 270 276.5)"/>
</clipPath>
<clipPath id="clip4_426_2864">
<rect width="97" height="1" fill="white" transform="matrix(1 0 0 -1 625 412.5)"/>
</clipPath>
<clipPath id="clip5_426_2864">
<rect width="119" height="1" fill="white" transform="matrix(1 0 0 -1 625 284.5)"/>
</clipPath>
<clipPath id="clip6_426_2864">
<rect width="97" height="1" fill="white" transform="matrix(1 0 0 -1 625 156.5)"/>
</clipPath>
<clipPath id="clip7_426_2864">
<rect width="184" height="1" fill="white" transform="matrix(1 0 0 -1 625 90.5)"/>
</clipPath>
<clipPath id="clip8_426_2864">
<rect width="97" height="1" fill="white" transform="matrix(-1 0 0 1 1548 67.5)"/>
</clipPath>
<clipPath id="clip9_426_2864">
<rect width="388" height="1" fill="white" transform="matrix(-1 0 0 1 1548 133.5)"/>
</clipPath>
<clipPath id="clip10_426_2864">
<rect width="44" height="1" fill="white" transform="matrix(-1 0 0 1 1548 265.5)"/>
</clipPath>
<clipPath id="clip11_426_2864">
<rect width="291" height="1" fill="white" transform="matrix(-1 0 0 1 1548 397.5)"/>
</clipPath>
<clipPath id="clip12_426_2864">
<rect width="184" height="1" fill="white" transform="matrix(-1 0 0 1 1548 463.5)"/>
</clipPath>
<clipPath id="clip13_426_2864">
<rect width="97" height="1" fill="white" transform="matrix(-1 0 0 1 1548 595.5)"/>
</clipPath>
</defs>
</svg>
