<svg width="342" height="349" viewBox="0 0 342 349" fill="none" xmlns="http://www.w3.org/2000/svg">
<path opacity="0.2" d="M542.5 375.5C542.5 481.54 456.761 567.5 351 567.5C245.239 567.5 159.5 481.54 159.5 375.5C159.5 269.46 245.239 183.5 351 183.5C456.761 183.5 542.5 269.46 542.5 375.5Z" stroke="black"/>
<path opacity="0.25" d="M463.5 375.5C463.5 437.91 413.13 488.5 351 488.5C288.87 488.5 238.5 437.91 238.5 375.5C238.5 313.09 288.87 262.5 351 262.5C413.13 262.5 463.5 313.09 463.5 375.5Z" stroke="black"/>
<path opacity="0.15" d="M622.5 375.5C622.5 525.168 500.946 646.5 351 646.5C201.054 646.5 79.5 525.168 79.5 375.5C79.5 225.832 201.054 104.5 351 104.5C500.946 104.5 622.5 225.832 622.5 375.5Z" stroke="black"/>
<circle opacity="0.05" cx="351" cy="376" r="375.5" stroke="black"/>
</svg>
