<svg width="32" height="32" viewBox="0 0 32 32" fill="none" xmlns="http://www.w3.org/2000/svg">
<path d="M15.25 3.2249C14.4938 3.31865 13.7625 3.46865 13.2125 3.65615C10.1313 4.68115 7.9125 7.16865 7.2125 10.3749C7.1 10.8687 7.09375 11.2624 7.09375 15.9687C7.09375 20.6937 7.1 21.0687 7.2125 21.5937C7.88125 24.7937 10.125 27.3187 13.2125 28.3437C14.1625 28.6624 14.875 28.7687 16 28.7749C17.125 28.7749 17.8375 28.6624 18.7875 28.3437C20.3938 27.8062 21.75 26.8937 22.825 25.6249C23.9062 24.3437 24.5875 22.8624 24.85 21.1874C24.9312 20.6874 24.9375 19.8312 24.9188 15.7187C24.8938 10.3124 24.9188 10.6312 24.4625 9.2499C23.8625 7.44365 22.6 5.7999 20.9563 4.6999C20.0437 4.0874 18.6813 3.5374 17.5938 3.34365C17.0312 3.24365 15.6562 3.1749 15.25 3.2249ZM17.2875 4.59365C18.3688 4.78115 19.3313 5.16865 20.2625 5.7874C21.6875 6.7374 22.7875 8.1874 23.3 9.81865C23.6625 10.9437 23.6562 10.8874 23.6562 16.0312C23.6562 20.3937 23.65 20.8249 23.5438 21.2999C23.0813 23.3999 21.95 25.0937 20.25 26.2187C18.9563 27.0812 17.5688 27.4999 16 27.4999C14.4313 27.4999 13.0438 27.0812 11.7375 26.2124C10.05 25.0874 8.90625 23.3749 8.45625 21.2937C8.35625 20.8312 8.34375 20.3374 8.34375 15.9999C8.34375 10.7624 8.3375 10.8437 8.73125 9.6874C9.6125 7.08115 11.9375 5.0874 14.6562 4.5999C15.3313 4.48115 16.6062 4.4749 17.2875 4.59365Z" fill="white"/>
<path d="M15.375 10.4498V13.8436L13.9813 12.4498L12.5938 11.0623L12.1688 11.4873C11.9375 11.7186 11.75 11.9373 11.75 11.9686C11.75 12.0061 12.6313 12.9123 13.7063 13.9811C14.9813 15.2561 15.7188 15.9436 15.825 15.9686C15.925 15.9936 16.075 15.9936 16.1688 15.9686C16.2812 15.9436 17.0188 15.2561 18.3 13.9811C19.3688 12.9123 20.25 12.0061 20.25 11.9686C20.25 11.9373 20.0625 11.7186 19.8313 11.4873L19.4062 11.0623L18.0188 12.4498L16.625 13.8436V10.4498V7.0623H16H15.375V10.4498Z" fill="white"/>
</svg>
