<svg width="12" height="10" viewBox="0 0 12 10" fill="none" xmlns="http://www.w3.org/2000/svg">
<path d="M9.51091 1.20382C9.68699 1.03618 9.92132 0.9435 10.1644 0.945339C10.4075 0.947179 10.6404 1.04339 10.814 1.21368C10.9875 1.38396 11.0881 1.615 11.0945 1.85803C11.1009 2.10107 11.0127 2.3371 10.8484 2.51632L5.86091 8.75382C5.77515 8.84619 5.67164 8.92032 5.55657 8.97177C5.44151 9.02323 5.31725 9.05095 5.19122 9.05329C5.0652 9.05562 4.94 9.03252 4.8231 8.98536C4.70621 8.9382 4.60003 8.86795 4.51091 8.77882L1.20341 5.47132C1.1113 5.38549 1.03742 5.28199 0.986181 5.16699C0.934941 5.05199 0.907389 4.92785 0.905168 4.80197C0.902947 4.67609 0.926103 4.55105 0.973254 4.43432C1.02041 4.31758 1.09059 4.21154 1.17961 4.12252C1.26863 4.03349 1.37468 3.96331 1.49141 3.91616C1.60815 3.86901 1.73318 3.84586 1.85906 3.84808C1.98494 3.8503 2.10908 3.87785 2.22408 3.92909C2.33908 3.98033 2.44258 4.05421 2.52841 4.14632L5.14591 6.76257L9.48716 1.23132C9.49497 1.22169 9.50332 1.21251 9.51216 1.20382H9.51091Z" fill="white"/>
</svg>
