<svg width="32" height="32" viewBox="0 0 32 32" fill="none" xmlns="http://www.w3.org/2000/svg">
<mask id="mask0_1387_9955" style="mask-type:alpha" maskUnits="userSpaceOnUse" x="0" y="0" width="32" height="32">
<path d="M14.5438 3.46851C12.5751 3.78725 10.9126 4.55601 9.44385 5.82475C7.8001 7.24351 6.5876 9.33101 6.20635 11.406L6.1001 11.9873L5.46885 12.0123C4.99385 12.031 4.76885 12.0685 4.53135 12.181C3.9501 12.4373 3.5126 12.9873 3.38135 13.6123C3.2876 14.056 3.2876 17.9435 3.38135 18.3873C3.5126 19.031 4.00635 19.6248 4.6001 19.8498C4.86885 19.956 5.08135 19.9685 6.2626 19.9685H7.6251L7.79385 19.7935L7.96885 19.6248L7.9876 16.0248L8.0001 12.4248L7.8001 12.2248C7.6876 12.1123 7.55635 12.006 7.5126 11.9935C7.44385 11.9685 7.4501 11.8623 7.5501 11.4373C8.2126 8.6685 10.0876 6.44351 12.6626 5.36226C16.8563 3.61226 21.7001 5.40601 23.7376 9.46851C24.2063 10.4185 24.6626 11.9373 24.4876 11.9935C24.4438 12.006 24.3126 12.1123 24.2001 12.2248L24.0001 12.4248L24.0126 16.0185L24.0313 19.6123L24.1813 19.7748C24.2626 19.8623 24.4126 19.9498 24.5126 19.9685L24.6938 20.0123L24.6563 20.4248C24.4688 22.381 23.7688 23.931 22.4938 25.1935C21.6126 26.0685 20.5563 26.6998 19.4063 27.031C18.7188 27.231 18.6876 27.231 18.6876 27.0123C18.6876 26.431 18.2501 25.7623 17.7001 25.4873C17.4251 25.356 17.3313 25.3435 16.3438 25.3435C15.3876 25.3435 15.2501 25.356 15.0001 25.4748C14.6626 25.6373 14.3501 25.9373 14.1688 26.2748C13.9813 26.6373 13.9813 27.3623 14.1688 27.7248C14.3501 28.0623 14.6626 28.3623 15.0001 28.5248C15.2626 28.6498 15.3813 28.656 16.7501 28.6498C18.4188 28.6498 18.9876 28.5748 20.0501 28.2185C23.4063 27.0935 25.7126 24.1248 25.9751 20.5873L26.0188 20.0123L26.5876 19.9873C27.3251 19.9498 27.7063 19.7935 28.1188 19.3373C28.6501 18.7623 28.6563 18.706 28.6563 15.9998C28.6563 13.2935 28.6501 13.2373 28.1188 12.6623C27.6938 12.1935 27.3313 12.0435 26.5313 12.0123L25.9001 11.9873L25.7938 11.406C25.0813 7.53101 21.9313 4.38725 17.9376 3.55601C17.1376 3.38725 15.3251 3.34351 14.5438 3.46851Z" fill="black"/>
<path d="M14.9689 6.0623C12.2189 6.4998 9.98763 8.34355 9.07513 10.9373C8.70638 11.9998 8.67513 12.3373 8.70013 15.5936C8.72513 18.3436 8.73763 18.5623 8.86263 19.0373C9.75013 22.4186 12.5876 24.6436 16.0001 24.6436C19.4564 24.6436 22.3751 22.3061 23.1626 18.9061C23.2689 18.4561 23.2814 18.1061 23.2814 15.2811V12.1561L23.1126 11.5436C22.7439 10.1936 22.1626 9.18105 21.2189 8.21855C19.8189 6.79355 18.1939 6.08731 16.2189 6.03105C15.7376 6.01855 15.1751 6.03105 14.9689 6.0623ZM14.5001 19.5623C15.4064 20.3311 16.5814 20.3436 17.4626 19.5873C17.5939 19.4748 17.7814 19.3623 17.8814 19.3436C18.2939 19.2498 18.7501 19.7123 18.6564 20.1311C18.5189 20.7373 17.0626 21.4936 16.0189 21.4998C14.9251 21.5061 13.6564 20.8873 13.4064 20.2248C13.3064 19.9686 13.3064 19.9373 13.4064 19.7311C13.5314 19.4686 13.8314 19.2998 14.0939 19.3436C14.1939 19.3623 14.3814 19.4623 14.5001 19.5623Z" fill="black"/>
</mask>
<g mask="url(#mask0_1387_9955)">
<rect width="32" height="32" fill="#0D0D0D"/>
</g>
</svg>
