<svg width="32" height="32" viewBox="0 0 32 32" fill="none" xmlns="http://www.w3.org/2000/svg">
<mask id="mask0_1387_9839" style="mask-type:alpha" maskUnits="userSpaceOnUse" x="0" y="0" width="32" height="64">
<path d="M12.6063 2.8125C12.4375 2.95 12.1938 3.51875 11.9063 4.45C11.8188 4.75625 11.7063 5 11.6688 5C11.625 5 11.2313 5.18125 10.7813 5.39375C10.0438 5.75625 9.175 6.29375 8.7375 6.65625L8.575 6.79375L7.675 6.61875C6.5625 6.4 6.30625 6.39375 6.10625 6.575C5.85625 6.8125 2.875 12.0312 2.875 12.2375C2.875 12.4688 3.05625 12.7375 3.75 13.5312L4.3 14.1625L4.2375 14.5C4.15625 14.9437 4.15625 17.0562 4.2375 17.4937L4.3 17.8375L3.725 18.4812C3.06875 19.2312 2.875 19.525 2.875 19.7688C2.875 19.9688 5.8625 25.1937 6.10625 25.4188C6.30625 25.6063 6.5625 25.6 7.675 25.3812L8.575 25.2062L8.7375 25.3438C9.175 25.7062 10.0438 26.2437 10.7813 26.6063C11.2313 26.8187 11.625 27 11.6625 27C11.7063 27 11.8938 27.4438 12.0875 27.9875C12.2875 28.525 12.475 29.0125 12.5188 29.0687C12.7 29.3062 12.7875 29.3125 16.0813 29.3125C19.2063 29.3125 19.3 29.3062 19.4563 29.1875C19.625 29.0563 19.8125 28.6062 20.125 27.6125C20.2313 27.275 20.35 27 20.3938 27C20.4375 27 20.8063 26.8375 21.2188 26.6375C21.9313 26.2875 22.7375 25.8 23.275 25.3937L23.5125 25.2125L24.4 25.3875C25.4375 25.5875 25.75 25.6063 25.9313 25.45C26.1188 25.2937 29.1313 20.0687 29.1688 19.825C29.2125 19.575 29.0813 19.3687 28.3188 18.4812L27.7688 17.8375L27.825 17.4625C27.9 16.9812 27.9 15.0125 27.825 14.5312L27.7688 14.1562L28.2688 13.55C29.025 12.6375 29.1438 12.45 29.1063 12.1875C29.075 11.9375 26.075 6.725 25.8688 6.54375C25.6875 6.4 25.3813 6.4125 24.3375 6.6125L23.4563 6.7875L22.8688 6.3625C22.3313 5.96875 20.525 5 20.3438 5C20.2938 5 20.125 4.59375 19.9313 4.025C19.7063 3.3625 19.55 2.99375 19.4313 2.86875L19.2625 2.6875H16.0125C12.85 2.6875 12.7625 2.69375 12.6063 2.8125ZM17.4063 7.46875C18.2438 7.61875 18.9938 7.8625 19.7813 8.24375C22.2938 9.475 24.0063 11.675 24.5438 14.3625C24.7063 15.1875 24.6875 16.7625 24.5063 17.625C24.1125 19.4625 23.4188 20.7688 22.125 22.0687C20.4375 23.7812 18.4063 24.625 16 24.625C13.6375 24.625 11.6438 23.8063 9.91875 22.1312C8.64375 20.8875 7.98125 19.7625 7.59375 18.175C7.06875 16.0188 7.3625 13.7688 8.4125 11.825C9.375 10.0562 11.2 8.50625 13.125 7.825C14.5125 7.3375 15.95 7.21875 17.4063 7.46875Z" fill="black"/>
<path d="M13.5312 11.2811C12.2375 11.9748 11.2812 13.1623 10.8625 14.6061C10.6562 15.3061 10.6562 16.6811 10.8625 17.3998C11.2187 18.6373 12.1437 19.8998 13.1312 20.4811L13.3125 20.5873V21.6998V22.8123L13.4875 22.8811C14.825 23.4061 16.8437 23.4436 18.2312 22.9748L18.6562 22.8311L18.675 21.7123L18.6875 20.5936L18.975 20.4123C19.9375 19.8061 20.7875 18.6186 21.1375 17.3936C21.325 16.7498 21.3375 15.3186 21.1625 14.6873C20.7937 13.3373 19.9 12.1373 18.7437 11.4436C18.0437 11.0248 17.65 11.0436 17.425 11.4998C17.325 11.6936 17.3125 11.9373 17.3125 13.6873V15.6561L16.6937 16.0811C16.35 16.3123 16.05 16.4998 16.025 16.4998C15.9937 16.4998 15.6875 16.3123 15.3312 16.0748L14.6875 15.6561V13.6873C14.6875 11.9373 14.675 11.6936 14.575 11.4998C14.375 11.0998 14.0187 11.0248 13.5312 11.2811Z" fill="black"/>
</mask>
<g mask="url(#mask0_1387_9839)">
<rect width="32" height="32" fill="#0D0D0D"/>
</g>
</svg>
