<svg width="32" height="32" viewBox="0 0 32 32" fill="none" xmlns="http://www.w3.org/2000/svg">
<mask id="mask0_1387_10767" style="mask-type:alpha" maskUnits="userSpaceOnUse" x="0" y="0" width="32" height="160">
<path d="M7.4375 0.0689297C6.4125 0.26893 5.53125 1.23143 5.375 2.32518C5.3375 2.55018 5.3125 7.82518 5.3125 14.7002V26.6877H5.1125C4.375 26.6939 3.3625 27.3439 3 28.0627C2.725 28.6064 2.6875 28.8377 2.6875 30.2314V31.5627L2.86875 31.7627L3.05 31.9689L14.5125 31.9877C22.3875 32.0002 26.0375 31.9877 26.1938 31.9377C26.625 31.8189 26.6562 31.7002 26.6562 30.2502C26.6562 28.8502 26.6125 28.5752 26.3062 28.0252C25.9312 27.3564 25.075 26.7814 24.35 26.7064L24 26.6689L24.0063 25.1314C24.0125 23.7689 24.0188 23.6252 24.0938 23.8814C24.5312 25.4752 26.6938 25.8252 27.6313 24.4627C28.0125 23.9064 28 24.2002 28 16.3689V9.21268L28.2188 9.10643C28.55 8.95018 28.9312 8.57518 29.1125 8.22518L29.2812 7.90643L29.3 6.18143L29.3188 4.45643L29.1562 4.26268C28.95 4.01893 28.65 3.95018 28.3813 4.08768C28.1187 4.22518 28 4.48143 28 4.93768V5.31268H27.35H26.7063L26.675 4.88768C26.6375 4.38143 26.5125 4.16268 26.2125 4.06268C25.9375 3.96893 25.6125 4.06893 25.4563 4.30018C25.3563 4.45018 25.3438 4.63768 25.325 5.83768C25.3 7.28143 25.3563 7.85018 25.5625 8.24393C25.7125 8.54393 26.1625 8.98143 26.45 9.10643L26.6875 9.21268L26.675 16.3689C26.6562 23.1939 26.65 23.5377 26.5438 23.7002C26.3 24.0627 25.7 24.0627 25.4625 23.7002C25.3687 23.5627 25.3438 23.3502 25.3125 22.4689C25.2812 21.5439 25.2563 21.3752 25.1438 21.1502C24.9312 20.7564 24.7 20.5064 24.3313 20.3002L24 20.1127V11.3127C24 5.68143 23.975 2.39393 23.9375 2.18143C23.7375 1.12518 22.875 0.26268 21.8125 0.0626793C21.4 -0.0123215 7.84375 -0.0123215 7.4375 0.0689297ZM21.1187 2.88143L21.3125 3.07518V7.33143C21.3125 11.2752 21.3 11.6064 21.2 11.7252C21.1438 11.8002 21.0312 11.8939 20.9563 11.9314C20.8625 11.9814 19.0688 12.0002 14.6313 12.0002H8.4375L8.2375 11.8189L8.03125 11.6377V7.34393V3.05018L8.2375 2.86893L8.4375 2.68768H14.6813H20.925L21.1187 2.88143ZM15.7 13.4502C15.975 13.5877 16 13.7752 16 15.5877V17.3002L17.1125 17.3252C18.2875 17.3439 18.4125 17.3752 18.5688 17.6752C18.7563 18.0252 18.7188 18.1064 16.625 21.6064C15.5188 23.4564 14.5312 25.0439 14.4313 25.1439C14.2188 25.3439 13.8625 25.3752 13.6313 25.2127C13.3375 25.0064 13.3125 24.8127 13.3125 23.0002V21.3127H12.1813H11.05L10.8688 21.1314C10.4938 20.7564 10.4625 20.8252 12.7688 16.9877C14.5625 14.0002 14.875 13.5189 15.0563 13.4252C15.2688 13.3189 15.4625 13.3252 15.7 13.4502Z" fill="black"/>
</mask>
<g mask="url(#mask0_1387_10767)">
<rect width="32" height="32" fill="#0D0D0D"/>
</g>
</svg>
