<svg width="32" height="32" viewBox="0 0 32 32" fill="none" xmlns="http://www.w3.org/2000/svg">
<mask id="mask0_1387_9709" style="mask-type:alpha" maskUnits="userSpaceOnUse" x="0" y="0" width="32" height="128">
<g clip-path="url(#clip0_1387_9709)">
<path d="M22 20C27.525 20 32 15.525 32 10C32 9.04375 31.8625 8.11875 31.6125 7.2375C31.4187 6.5625 30.5875 6.4125 30.0938 6.90625L25.2938 11.7063C25.1063 11.8938 24.85 12 24.5875 12H21C20.45 12 20 11.55 20 11V7.4125C20 7.15 20.1063 6.89375 20.2938 6.70625L25.0938 1.90625C25.5875 1.4125 25.4313 0.58125 24.7625 0.3875C23.8813 0.1375 22.9562 0 22 0C16.475 0 12 4.475 12 10C12 11.1938 12.2125 12.3438 12.5938 13.4062L1.24375 24.7563C0.45 25.55 0 26.6313 0 27.7563C0 30.1 1.9 32 4.24375 32C5.36875 32 6.45 31.55 7.24375 30.7563L18.5938 19.4062C19.6562 19.7938 20.8062 20 22 20ZM5 28.5C4.16875 28.5 3.5 27.8312 3.5 27C3.5 26.1688 4.16875 25.5 5 25.5C5.83125 25.5 6.5 26.1688 6.5 27C6.5 27.8312 5.83125 28.5 5 28.5Z" fill="black"/>
</g>
</mask>
<g mask="url(#mask0_1387_9709)">
<rect width="32" height="32" fill="#0D0D0D"/>
</g>
<defs>
<clipPath id="clip0_1387_9709">
<rect width="32" height="32" fill="white"/>
</clipPath>
</defs>
</svg>
