<svg width="32" height="32" viewBox="0 0 32 32" fill="none" xmlns="http://www.w3.org/2000/svg">
<mask id="mask0_1387_9053" style="mask-type:alpha" maskUnits="userSpaceOnUse" x="0" y="0" width="32" height="96">
<g clip-path="url(#clip0_1387_9053)">
<path d="M24.3401 19.0602C28.9541 13.8762 30.8961 9.69223 31.6221 6.62423C32.0421 4.85023 32.0501 3.46423 31.9421 2.49423C31.9003 2.11372 31.8281 1.73718 31.7261 1.36823C31.6825 1.21216 31.6304 1.0586 31.5701 0.908227C31.4241 0.580227 31.2341 0.438227 30.8661 0.316227C30.7605 0.282463 30.6538 0.252444 30.5461 0.226227C30.1713 0.135375 29.7902 0.0731954 29.4061 0.0402269C28.4261 -0.0477731 27.0261 -0.0197731 25.2461 0.416227C22.1741 1.16423 18.0101 3.10223 12.9241 7.62423L8.12407 8.10023H8.11207C6.95873 8.22882 5.88364 8.74661 5.06407 9.56823L0.300072 14.3402C0.149181 14.4922 0.049726 14.6876 0.0156975 14.899C-0.018331 15.1105 0.0147796 15.3272 0.110371 15.5189C0.205963 15.7105 0.359225 15.8673 0.548597 15.9673C0.737969 16.0673 0.95392 16.1054 1.16607 16.0762L4.95807 15.5342C5.51807 15.4542 6.14207 15.5602 6.86807 15.7982C7.33207 15.9502 7.74207 16.1182 8.17807 16.2942L8.58407 16.4602C8.97607 18.0922 9.90407 19.6202 11.1341 20.8502C12.3601 22.0782 13.8861 23.0102 15.5161 23.4042L15.6801 23.8082C15.8581 24.2442 16.0261 24.6562 16.1781 25.1222C16.4141 25.8482 16.5221 26.4742 16.4421 27.0342L15.9001 30.8342C15.8715 31.046 15.9098 31.2614 16.0097 31.4502C16.1097 31.6391 16.2662 31.792 16.4573 31.8874C16.6485 31.9829 16.8647 32.0162 17.0757 31.9826C17.2867 31.949 17.482 31.8503 17.6341 31.7002L22.3981 26.9282C23.2181 26.1082 23.7341 25.0302 23.8621 23.8762L24.3401 19.0602ZM24.5601 11.6622C22.9661 13.2622 20.7001 13.5842 19.5041 12.3862C18.3081 11.1862 18.6321 8.92023 20.2261 7.32223C21.8221 5.72423 24.0861 5.40223 25.2821 6.60023C26.4801 7.79823 26.1561 10.0642 24.5621 11.6622H24.5601Z" fill="black"/>
<path d="M10.41 21.5741C11.4722 22.6491 12.6881 23.5604 14.018 24.2781C11.782 26.2921 4.15998 28.3341 3.90998 28.0841C3.65798 27.8301 5.38398 19.7061 7.58798 17.7241C8.27998 19.1041 9.26198 20.4241 10.41 21.5741Z" fill="black"/>
</g>
</mask>
<g mask="url(#mask0_1387_9053)">
<rect width="32" height="32" fill="#0D0D0D"/>
</g>
<defs>
<clipPath id="clip0_1387_9053">
<rect width="32" height="32" fill="white"/>
</clipPath>
</defs>
</svg>
