<svg width="92" height="99" viewBox="0 0 92 99" fill="none" xmlns="http://www.w3.org/2000/svg">
<path d="M35.1344 42.6146H33.566V44.637H31.3923V42.6146H26.2056V41.115L30.7457 35.0065H33.0845L28.8746 40.7986H31.4611V38.9963H33.566V40.7986H35.1344V42.6146ZM44.6198 42.6146H43.0514V44.637H40.8777V42.6146H35.691V41.115L40.2311 35.0065H42.5699L38.36 40.7986H40.9465V38.9963H43.0514V40.7986H44.6198V42.6146ZM48.6171 34.8414C49.9654 34.8414 51.0202 35.2542 51.7815 36.0796C52.5427 36.8959 52.9234 38.0745 52.9234 39.6154C52.9234 40.7069 52.717 41.6424 52.3043 42.422C51.9007 43.2016 51.3274 43.7932 50.5845 44.1968C49.8416 44.6003 48.984 44.8021 48.0118 44.8021C47.4982 44.8021 47.0075 44.7471 46.5397 44.637C46.0719 44.5178 45.673 44.3527 45.3428 44.1417L46.1682 42.5046C46.636 42.8256 47.2368 42.9861 47.9705 42.9861C48.7868 42.9861 49.4334 42.7476 49.9104 42.2707C50.3873 41.7846 50.6441 41.0875 50.6808 40.1795C50.103 40.7573 49.305 41.0462 48.287 41.0462C47.6724 41.0462 47.113 40.9224 46.6085 40.6748C46.104 40.4271 45.7051 40.0786 45.4116 39.6292C45.1181 39.1706 44.9713 38.6432 44.9713 38.047C44.9713 37.405 45.1318 36.8409 45.4528 36.3548C45.7739 35.8687 46.2095 35.4972 46.7598 35.2404C47.3193 34.9744 47.9384 34.8414 48.6171 34.8414ZM48.7822 39.3815C49.2684 39.3815 49.6627 39.2485 49.9654 38.9825C50.2773 38.7074 50.4332 38.3589 50.4332 37.9369C50.4332 37.515 50.2818 37.1711 49.9792 36.9051C49.6857 36.6391 49.2775 36.5061 48.7547 36.5061C48.2778 36.5061 47.888 36.6345 47.5853 36.8913C47.2918 37.1482 47.1451 37.4967 47.1451 37.9369C47.1451 38.3772 47.2918 38.7303 47.5853 38.9963C47.888 39.2531 48.287 39.3815 48.7822 39.3815ZM61.4782 35.0065V36.4511L57.9011 44.637H55.4797L58.933 36.8226H55.7411V38.391H53.76V35.0065H61.4782ZM34.9285 60.8304H33.8141V63.637H31.6678V56.2353H33.8141V59.1107H34.9697L36.9784 56.2353H39.2622L36.6757 59.7848L39.441 63.637H36.9096L34.9285 60.8304ZM47.3326 58.6154C47.9196 58.7897 48.369 59.074 48.6808 59.4684C48.9927 59.8628 49.1486 60.3489 49.1486 60.9267C49.1486 61.7797 48.823 62.4447 48.1718 62.9216C47.5298 63.3986 46.608 63.637 45.4065 63.637H40.66V54.0065H45.1451C46.264 54.0065 47.1354 54.2221 47.7591 54.6531C48.3827 55.0842 48.6946 55.6987 48.6946 56.4967C48.6946 56.9736 48.5754 57.3955 48.3369 57.7624C48.0984 58.1201 47.7636 58.4045 47.3326 58.6154ZM42.875 57.9963H44.9525C45.4386 57.9963 45.8054 57.9 46.0531 57.7074C46.3007 57.5056 46.4245 57.2121 46.4245 56.8269C46.4245 56.4508 46.2961 56.1619 46.0393 55.9601C45.7917 55.7584 45.4294 55.6575 44.9525 55.6575H42.875V57.9963ZM45.3239 61.9861C46.3695 61.9861 46.8923 61.5733 46.8923 60.7479C46.8923 59.9499 46.3695 59.5509 45.3239 59.5509H42.875V61.9861H45.3239ZM56.9647 57.9963H54.4607V63.637H52.3283V57.9963H49.8243V56.2353H56.9647V57.9963Z" fill="white"/>
<path opacity="0.2" d="M82.6809 49.8405C82.6809 58.4081 79.919 66.7475 74.8049 73.6215C69.6909 80.4954 62.4971 85.5376 54.2909 88C46.0848 90.4624 37.3034 90.2138 29.2497 87.2911C21.1959 84.3685 14.2989 78.9274 9.58189 71.7751C4.86486 64.6229 2.57912 56.1406 3.0638 47.5867C3.54848 39.0327 6.77774 30.8629 12.2725 24.2893C17.7672 17.7157 25.2347 13.0885 33.5671 11.0943C41.8994 9.10005 50.6526 9.845 58.5281 13.2186L57.0601 16.6457C49.9216 13.5878 41.9875 12.9125 34.4349 14.7201C26.8823 16.5278 20.1136 20.7219 15.133 26.6804C10.1525 32.6388 7.2254 40.0441 6.78608 47.7976C6.34676 55.5511 8.4186 63.2396 12.6942 69.7225C16.9698 76.2054 23.2214 81.1373 30.5215 83.7865C37.8215 86.4357 45.7812 86.661 53.2194 84.4291C60.6576 82.1971 67.1782 77.6267 71.8137 71.3961C76.4492 65.1654 78.9527 57.6064 78.9527 49.8405H82.6809Z" stroke="#8BD5FF" stroke-width="4.58595"/>
<g filter="url(#filter0_f_1315_28463)">
<path d="M42.8405 10C49.1277 10 55.3257 11.488 60.9277 14.3424C66.5296 17.1967 71.3765 21.3363 75.0721 26.4228C78.7676 31.5093 81.2069 37.3982 82.1904 43.608C83.174 49.8179 82.6739 56.1723 80.731 62.1518C78.7882 68.1314 75.4577 73.5662 71.0119 78.0119C66.5662 82.4577 61.1314 85.7881 55.1519 87.731C49.1723 89.6739 42.8179 90.174 36.6081 89.1904C30.3982 88.2069 24.5093 85.7676 19.4228 82.0721L21.8776 78.6934C26.4309 82.0016 31.7025 84.1852 37.2614 85.0656C42.8203 85.946 48.5086 85.4984 53.8613 83.7592C59.2141 82.0199 64.0792 79.0386 68.0589 75.0589C72.0386 71.0791 75.02 66.214 76.7592 60.8613C78.4984 55.5086 78.946 49.8202 78.0656 44.2614C77.1852 38.7025 75.0016 33.4309 71.6934 28.8776C68.3853 24.3243 64.0464 20.6186 59.0317 18.0634C54.0169 15.5083 48.4687 14.1763 42.8405 14.1763L42.8405 10Z" stroke="url(#paint0_linear_1315_28463)" stroke-width="4.58595"/>
</g>
<path d="M60.9277 14.3424C55.9002 11.7807 50.3926 10.3195 44.7713 10.0468C43.7058 9.99511 42.8405 10.8648 42.8405 11.9315V11.9315C42.8405 12.9983 43.7059 13.8576 44.7711 13.9149C49.7825 14.1842 54.6896 15.4995 59.1739 17.7844C64.2327 20.3619 68.6096 24.1002 71.9468 28.6935C75.284 33.2868 77.4868 38.6047 78.375 44.2124C79.2631 49.8201 78.8115 55.5584 77.057 60.9581C75.3026 66.3578 72.295 71.2657 68.2804 75.2803C64.2657 79.295 59.3578 82.3026 53.9581 84.057C48.5584 85.8115 42.8201 86.2631 37.2124 85.375C32.2415 84.5877 27.4984 82.7674 23.2859 80.0397C22.3905 79.4599 21.1852 79.6464 20.5582 80.5095V80.5095C19.9311 81.3725 20.12 82.5847 21.0124 83.1691C25.7205 86.2526 31.035 88.3078 36.6081 89.1904C42.8179 90.174 49.1723 89.6739 55.1519 87.731C61.1314 85.7881 66.5662 82.4577 71.0119 78.0119C75.4577 73.5662 78.7882 68.1314 80.731 62.1518C82.6739 56.1723 83.174 49.8179 82.1904 43.608C81.2069 37.3982 78.7676 31.5093 75.0721 26.4228C71.3765 21.3363 66.5296 17.1967 60.9277 14.3424Z" stroke="url(#paint1_linear_1315_28463)" stroke-width="4.58595"/>
<defs>
<filter id="filter0_f_1315_28463" x="9.34104" y="0.828101" width="82.5118" height="98.0248" filterUnits="userSpaceOnUse" color-interpolation-filters="sRGB">
<feFlood flood-opacity="0" result="BackgroundImageFix"/>
<feBlend mode="normal" in="SourceGraphic" in2="BackgroundImageFix" result="shape"/>
<feGaussianBlur stdDeviation="3.43947" result="effect1_foregroundBlur_1315_28463"/>
</filter>
<linearGradient id="paint0_linear_1315_28463" x1="4.00862" y1="19.9601" x2="85.4868" y2="21.3822" gradientUnits="userSpaceOnUse">
<stop stop-color="#4478FF"/>
<stop offset="1" stop-color="#1E4DC6"/>
</linearGradient>
<linearGradient id="paint1_linear_1315_28463" x1="4.00862" y1="19.9601" x2="85.4868" y2="21.3822" gradientUnits="userSpaceOnUse">
<stop stop-color="#4478FF"/>
<stop offset="1" stop-color="#1E4DC6"/>
</linearGradient>
</defs>
</svg>
