<svg width="216" height="118" viewBox="0 0 216 118" fill="none" xmlns="http://www.w3.org/2000/svg">
<path d="M25.2973 33.295V33.6041H22.3648L16.6806 25.0736H11.433V33.6041H8.74854V12.0498H17.311C21.7266 12.0498 24.1657 14.853 24.1657 18.5166C24.1657 21.7191 22.3131 23.9271 19.5149 24.7361L25.2973 33.295ZM11.433 22.6106H17.1457C19.8638 22.6106 21.3468 21.1343 21.3468 18.5475C21.3468 16.0226 19.8638 14.5129 17.1457 14.5129H11.433V22.6106Z" fill="white"/>
<path d="M27.9043 25.764C27.9043 21.2089 30.1573 17.6045 35.038 17.6045C39.4846 17.6045 41.8616 20.8997 41.8616 25.2719V26.5344H30.6224C30.6224 29.5204 32.1339 31.5841 35.069 31.5841C37.136 31.5841 38.619 30.7236 39.0505 29.0593H41.6343C41.2002 31.9474 38.4201 33.8797 35.0561 33.8797C30.3924 33.8797 27.9043 30.3707 27.9043 25.764ZM39.1745 24.3805C39.1745 21.8865 37.8465 19.9155 35.0406 19.9155C32.0744 19.9155 30.749 21.9174 30.6482 24.3805H39.1745Z" fill="white"/>
<path d="M46.1713 17.87H48.4243L48.6413 20.3331H48.7653C49.5973 18.7332 51.2044 17.5918 53.6434 17.5918C57.1315 17.5918 59.17 19.7792 59.17 23.381V33.6042H56.5837V23.7829C56.5837 21.3173 55.4417 19.9028 52.9406 19.9028C50.3156 19.9028 48.7731 21.7501 48.7731 24.9217V33.6042H46.1893L46.1713 17.87Z" fill="white"/>
<path d="M63.1826 25.764C63.1826 21.2398 65.4356 17.6045 70.3163 17.6045C75.197 17.6045 77.4474 21.2398 77.4474 25.764C77.4474 30.2882 75.2564 33.8926 70.3163 33.8926C65.3762 33.8926 63.1826 30.2779 63.1826 25.764ZM74.8094 25.764C74.8094 22.3786 73.5175 19.9155 70.3034 19.9155C67.0892 19.9155 65.8077 22.3966 65.8077 25.764C65.8077 29.1314 67.1357 31.5841 70.3163 31.5841C73.4969 31.5841 74.8223 29.1391 74.8223 25.764H74.8094Z" fill="white"/>
<path d="M79.1475 18.1793V17.8701H81.832L86.679 30.5873H86.8134L91.4641 17.8701H94.1512V18.1793L88.0355 33.6043H85.3536L79.1475 18.1793Z" fill="white"/>
<path d="M96.0037 29.0156C96.0037 26.3671 97.8873 24.0895 102.52 24.0895C103.837 24.0883 105.147 24.2748 106.411 24.6435V23.0744C106.411 21.3173 105.328 19.8101 102.768 19.8101C100.443 19.8101 99.3083 21.0983 99.2773 22.6107H96.7763C96.7763 19.5937 99.3083 17.5918 102.768 17.5918C106.811 17.5918 108.943 20.0265 108.943 23.0023V33.5939H106.749L106.563 31.3756H106.45C105.491 32.9782 103.732 33.8696 101.507 33.8696C98.0733 33.8799 96.0037 31.7569 96.0037 29.0156ZM106.411 27.5084V26.7072C105.151 26.3217 103.838 26.1348 102.52 26.1532C99.9568 26.1532 98.6288 27.1374 98.6288 28.9873C98.6288 30.5589 99.6778 31.7286 101.964 31.7286C104.641 31.726 106.411 29.786 106.411 27.5084Z" fill="white"/>
<path d="M115.271 29.6626V20.0577H112.651V17.8703H115.335V14.5209L117.56 13.6553H117.867V17.8729H121.727V20.0602H117.865V29.4487C117.865 30.9585 118.513 31.6052 119.932 31.6052C120.455 31.6165 120.976 31.5541 121.482 31.4197H121.792V33.638C121.022 33.808 120.235 33.8901 119.446 33.8827C116.322 33.8802 115.271 32.2802 115.271 29.6626Z" fill="white"/>
<path d="M125.461 13.0364C125.461 11.9569 126.047 11.251 127.251 11.251C128.455 11.251 129.042 11.9569 129.042 13.0364C129.042 14.116 128.424 14.8399 127.251 14.8399C126.078 14.8399 125.461 14.1443 125.461 13.0364ZM125.954 17.8698H128.538V33.604H125.954V17.8698Z" fill="white"/>
<path d="M132.564 25.764C132.564 21.2398 134.817 17.6045 139.695 17.6045C144.573 17.6045 146.828 21.2398 146.828 25.764C146.828 30.2882 144.635 33.8926 139.695 33.8926C134.755 33.8926 132.564 30.2779 132.564 25.764ZM144.19 25.764C144.19 22.3786 142.898 19.9155 139.682 19.9155C136.465 19.9155 135.173 22.4095 135.173 25.764C135.173 29.1185 136.501 31.5841 139.682 31.5841C142.862 31.5841 144.203 29.1391 144.203 25.764H144.19Z" fill="white"/>
<path d="M151.148 17.87H153.401L153.618 20.3331H153.732C154.567 18.7332 156.174 17.5918 158.613 17.5918C162.101 17.5918 164.139 19.7792 164.139 23.381V33.6042H161.556V23.7829C161.556 21.3173 160.414 19.9028 157.913 19.9028C155.287 19.9028 153.742 21.7501 153.742 24.9217V33.6042H151.148V17.87Z" fill="white"/>
<path d="M181.378 31.4172H181.254L180.916 33.6046H178.66V10.8213H181.244V20.0603H181.378C182.213 18.6742 183.786 17.5947 186.132 17.5947C190.579 17.5947 192.803 21.0754 192.832 25.7233C192.803 30.804 190.271 33.8828 186.132 33.8828C183.786 33.8802 182.213 32.8033 181.378 31.4172ZM190.209 25.7207C190.209 22.5826 188.974 19.9032 185.701 19.9032C182.551 19.9032 181.192 22.611 181.192 25.7207C181.192 28.8305 182.551 31.5718 185.701 31.5718C188.974 31.5718 190.209 28.8923 190.209 25.7207Z" fill="white"/>
<path d="M198.361 40.3466L201.045 33.4933L201.014 33.4315L194.684 18.192V17.8828H197.464L202.249 30.229H202.373L207.006 17.8828H209.722V18.192L200.983 40.6558H198.361V40.3466Z" fill="white"/>
<path d="M12.4174 61.8799H11.1023V103.512H12.4174V61.8799Z" fill="white"/>
<path d="M129.553 61.8799H128.238V103.512H129.553V61.8799Z" fill="white"/>
<path d="M152.678 61.9883H137.465V63.2997H152.678V103.515H153.993V63.2997H169.265V61.9883H153.993H152.678Z" fill="white"/>
<path d="M80.8605 61.8799H79.5454V103.515H80.8605V64.0621L111.558 103.515H112.873V61.8799H111.558V101.317L80.8605 61.8799Z" fill="white"/>
<path d="M44.28 61.1357C40.0035 61.1357 35.8231 62.4002 32.2673 64.7693C28.7115 67.1383 25.94 70.5055 24.3032 74.4452C22.6665 78.3848 22.2379 82.72 23.0719 86.9024C23.9058 91.0849 25.9647 94.9269 28.9882 97.9426C32.0118 100.958 35.8642 103.012 40.0583 103.845C44.2525 104.677 48.6001 104.251 52.5513 102.62C56.5025 100.989 59.88 98.226 62.2566 94.6808C64.6332 91.1356 65.9022 86.9673 65.9033 82.703C65.8985 76.9853 63.6189 71.5032 59.565 67.4597C55.511 63.4163 50.0139 61.1419 44.28 61.1357ZM44.28 102.948C40.2634 102.947 36.3374 101.759 32.9983 99.5327C29.6592 97.3067 27.0571 94.1433 25.5209 90.4426C23.9848 86.7419 23.5837 82.6701 24.3683 78.742C25.1529 74.814 27.0879 71.2062 29.9288 68.3748C32.7697 65.5434 36.3887 63.6156 40.3283 62.8352C44.2679 62.0549 48.3511 62.4569 52.0615 63.9906C55.772 65.5243 58.943 68.1207 61.1736 71.4514C63.4043 74.7822 64.5943 78.6978 64.5933 82.703C64.5858 88.0719 62.4429 93.2186 58.6347 97.014C54.8266 100.809 49.6642 102.944 44.28 102.948Z" fill="white"/>
<path d="M189.38 103.515H190.692V85.8432L209.194 61.8799H207.536L190.036 84.5447L172.539 61.8799H170.878L189.38 85.8432V103.515Z" fill="white"/>
</svg>
