<svg width="131" height="58" viewBox="0 0 131 58" fill="none" xmlns="http://www.w3.org/2000/svg">
<g clip-path="url(#clip0_339_1645)">
<path d="M2.67748 0.481079H1.825V27.3188H2.67748V0.481079Z" fill="white"/>
<path d="M78.6438 0.481079H77.7914V27.3188H78.6438V0.481079Z" fill="white"/>
<path d="M93.6405 0.550049H83.7744V1.39498H93.6405V27.3187H94.493V1.39498H104.399V0.550049H94.493H93.6405Z" fill="white"/>
<path d="M47.0638 0.481079H46.2113V27.3188H47.0638V1.88642L66.9736 27.3188H67.8261V0.481079H66.9736V25.9031L47.0638 0.481079Z" fill="white"/>
<path d="M23.3423 0C20.5685 2.11544e-08 17.857 0.81526 15.5507 2.34268C13.2444 3.8701 11.4469 6.04107 10.3855 8.58105C9.32408 11.121 9.04645 13.9159 9.58772 16.6123C10.129 19.3087 11.4648 21.7854 13.4263 23.7293C15.3878 25.6731 17.8868 26.9968 20.6074 27.533C23.3279 28.0691 26.1477 27.7936 28.7103 26.7413C31.2728 25.689 33.463 23.9071 35.0038 21.6211C36.5446 19.335 37.3668 16.6474 37.3664 13.8982C37.3618 10.2133 35.8828 6.6806 33.2537 4.07512C30.6246 1.46964 27.0601 0.00410676 23.3423 0ZM23.3423 26.9532C20.7371 26.9535 18.1903 26.1882 16.024 24.7539C13.8577 23.3196 12.1692 21.2808 11.172 18.8953C10.1748 16.5099 9.9137 13.8849 10.4217 11.3524C10.9298 8.81982 12.1841 6.49348 14.0261 4.66753C15.8682 2.84159 18.2151 1.59805 20.7702 1.09418C23.3253 0.590308 25.9738 0.84874 28.3807 1.83679C30.7876 2.82484 32.8449 4.49813 34.2923 6.64505C35.7397 8.79198 36.5122 11.3161 36.5122 13.8982C36.5085 17.3592 35.1199 20.6774 32.6509 23.1248C30.1819 25.5723 26.8342 26.9491 23.3423 26.9532Z" fill="white"/>
<path d="M117.442 27.3188H118.296V15.926L130.294 0.481079H129.217L117.868 15.0897L106.522 0.481079H105.445L117.442 15.9277V27.3188Z" fill="white"/>
<path d="M0.34447 46.4573C0.298329 46.4573 0.254077 46.4754 0.22145 46.5078C0.188824 46.5401 0.170494 46.584 0.170494 46.6297V53.4995C0.170494 53.5452 0.188824 53.5891 0.22145 53.6214C0.254077 53.6538 0.298329 53.6719 0.34447 53.6719C0.390611 53.6719 0.434862 53.6538 0.467489 53.6214C0.500115 53.5891 0.518445 53.5452 0.518445 53.4995V46.6297C0.518445 46.584 0.500115 46.5401 0.467489 46.5078C0.434862 46.4754 0.390611 46.4573 0.34447 46.4573Z" fill="white"/>
<path d="M29.5045 42.1102C29.4583 42.1102 29.4141 42.1284 29.3815 42.1607C29.3488 42.1931 29.3305 42.2369 29.3305 42.2827V53.4909C29.3305 53.5366 29.3488 53.5805 29.3815 53.6128C29.4141 53.6452 29.4583 53.6633 29.5045 53.6633C29.5506 53.6633 29.5949 53.6452 29.6275 53.6128C29.6601 53.5805 29.6785 53.5366 29.6785 53.4909V42.2827C29.6785 42.2369 29.6601 42.1931 29.6275 42.1607C29.5949 42.1284 29.5506 42.1102 29.5045 42.1102Z" fill="white"/>
<path d="M31.9889 42.1102C31.9427 42.1102 31.8985 42.1284 31.8658 42.1607C31.8332 42.1931 31.8149 42.2369 31.8149 42.2827V53.4909C31.8149 53.5366 31.8332 53.5805 31.8658 53.6128C31.8985 53.6452 31.9427 53.6633 31.9889 53.6633C32.035 53.6633 32.0792 53.6452 32.1119 53.6128C32.1445 53.5805 32.1628 53.5366 32.1628 53.4909V42.2827C32.1628 42.2369 32.1445 42.1931 32.1119 42.1607C32.0792 42.1284 32.035 42.1102 31.9889 42.1102Z" fill="white"/>
<path d="M6.04565 46.4572H4.22412V42.2791C4.22412 42.2334 4.20579 42.1895 4.17317 42.1572C4.14054 42.1249 4.09629 42.1067 4.05015 42.1067C4.00401 42.1067 3.95975 42.1249 3.92713 42.1572C3.8945 42.1895 3.87617 42.2334 3.87617 42.2791V46.4572H2.09814C2.052 46.4572 2.00775 46.4754 1.97512 46.5077C1.9425 46.5401 1.92417 46.5839 1.92417 46.6296C1.92417 46.6754 1.9425 46.7192 1.97512 46.7516C2.00775 46.7839 2.052 46.8021 2.09814 46.8021H3.87617V53.5029C3.87617 53.5486 3.8945 53.5925 3.92713 53.6248C3.95975 53.6571 4.00401 53.6753 4.05015 53.6753C4.09629 53.6753 4.14054 53.6571 4.17317 53.6248C4.20579 53.5925 4.22412 53.5486 4.22412 53.5029V46.8021H6.04565C6.09179 46.8021 6.13604 46.7839 6.16866 46.7516C6.20129 46.7192 6.21962 46.6754 6.21962 46.6296C6.21962 46.5839 6.20129 46.5401 6.16866 46.5077C6.13604 46.4754 6.09179 46.4572 6.04565 46.4572Z" fill="white"/>
<path d="M78.5116 46.4572H76.6797V42.2791C76.6797 42.2334 76.6613 42.1895 76.6287 42.1572C76.5961 42.1249 76.5518 42.1067 76.5057 42.1067C76.4595 42.1067 76.4153 42.1249 76.3827 42.1572C76.35 42.1895 76.3317 42.2334 76.3317 42.2791V46.4572H74.5572C74.511 46.4572 74.4668 46.4754 74.4341 46.5077C74.4015 46.5401 74.3832 46.5839 74.3832 46.6296C74.3832 46.6754 74.4015 46.7192 74.4341 46.7516C74.4668 46.7839 74.511 46.8021 74.5572 46.8021H76.3387V53.5029C76.3387 53.5486 76.357 53.5925 76.3896 53.6248C76.4222 53.6571 76.4665 53.6753 76.5126 53.6753C76.5588 53.6753 76.603 53.6571 76.6357 53.6248C76.6683 53.5925 76.6866 53.5486 76.6866 53.5029V46.8021H78.5116C78.5578 46.8021 78.602 46.7839 78.6346 46.7516C78.6673 46.7192 78.6856 46.6754 78.6856 46.6296C78.6856 46.5839 78.6673 46.5401 78.6346 46.5077C78.602 46.4754 78.5578 46.4572 78.5116 46.4572Z" fill="white"/>
<path d="M11.2632 46.4573C9.94096 46.4659 9.05368 47.2988 9.05542 48.5265C9.05542 49.6697 10.6212 50.5078 11.1727 50.6664C11.6633 50.8113 12.9125 51.3941 12.8272 52.358C12.7402 53.284 11.886 53.4219 11.385 53.4219C11.1101 53.4219 10.3272 53.1581 10.1097 52.5356C10.1064 52.5102 10.0975 52.4858 10.0835 52.4642C10.0695 52.4426 10.0509 52.4244 10.0289 52.4109C10.0069 52.3974 9.98216 52.3889 9.95644 52.386C9.93073 52.3832 9.9047 52.3861 9.88026 52.3944C9.85581 52.4028 9.83355 52.4165 9.81511 52.4345C9.79667 52.4525 9.78251 52.4743 9.77366 52.4984C9.76481 52.5225 9.76149 52.5482 9.76394 52.5738C9.7664 52.5993 9.77457 52.624 9.78786 52.646C10.0575 53.4236 10.9761 53.7599 11.385 53.7599C12.4288 53.7599 13.0864 53.2598 13.1682 52.389C13.2743 51.2423 11.973 50.5492 11.2701 50.3422C10.7186 50.1801 9.39642 49.4283 9.39642 48.5265C9.39642 47.4833 10.1289 46.8022 11.2667 46.8022H11.284C11.7081 46.8091 12.1237 46.9212 12.4929 47.1281C12.8621 47.335 13.1732 47.6302 13.3979 47.9868C13.4243 48.018 13.4611 48.0389 13.5016 48.0459C13.5421 48.0528 13.5838 48.0452 13.6193 48.0245C13.6548 48.0039 13.6817 47.9714 13.6953 47.9329C13.7089 47.8945 13.7083 47.8524 13.6936 47.8143C13.6623 47.7471 12.8742 46.4418 11.2632 46.4573Z" fill="white"/>
<path d="M0.342732 44.6605C0.532017 44.6605 0.685463 44.5084 0.685463 44.3208C0.685463 44.1332 0.532017 43.9811 0.342732 43.9811C0.153446 43.9811 0 44.1332 0 44.3208C0 44.5084 0.153446 44.6605 0.342732 44.6605Z" fill="white"/>
<path d="M45.8599 46.4675C45.8138 46.4675 45.7695 46.4857 45.7369 46.518C45.7043 46.5504 45.6859 46.5942 45.6859 46.64V48.2747C45.2844 47.5656 44.6571 47.0085 43.902 46.6905C43.147 46.3725 42.3069 46.3116 41.5132 46.5173C40.7195 46.7229 40.017 47.1836 39.5156 47.8272C39.0143 48.4707 38.7423 49.2609 38.7423 50.074C38.7423 50.8871 39.0143 51.6773 39.5156 52.3208C40.017 52.9644 40.7195 53.4251 41.5132 53.6307C42.3069 53.8364 43.147 53.7755 43.902 53.4575C44.6571 53.1395 45.2844 52.5824 45.6859 51.8734V53.508C45.6859 53.5538 45.7043 53.5976 45.7369 53.63C45.7695 53.6623 45.8138 53.6805 45.8599 53.6805C45.9061 53.6805 45.9503 53.6623 45.9829 53.63C46.0156 53.5976 46.0339 53.5538 46.0339 53.508V46.6296C46.0312 46.5857 46.0117 46.5445 45.9794 46.5143C45.947 46.4842 45.9043 46.4675 45.8599 46.4675ZM42.4587 53.408C41.8331 53.4085 41.2197 53.2363 40.6872 52.9107C40.1548 52.5851 39.7244 52.1189 39.4443 51.5644C39.1641 51.01 39.0454 50.3892 39.1012 49.7715C39.1571 49.1539 39.3854 48.5639 39.7606 48.0677C40.1358 47.5715 40.643 47.1887 41.2254 46.9621C41.8078 46.7356 42.4423 46.6743 43.0579 46.7851C43.6734 46.8959 44.2457 47.1745 44.7105 47.5896C45.1753 48.0046 45.5143 48.5398 45.6894 49.1351V51.0077C45.4841 51.6997 45.0586 52.3073 44.4764 52.7398C43.8941 53.1724 43.1864 53.4068 42.4587 53.408Z" fill="white"/>
<path d="M72.8974 46.4244C72.8513 46.4244 72.807 46.4426 72.7744 46.4749C72.7418 46.5073 72.7235 46.5511 72.7235 46.5969V51.0319C72.5198 51.7265 72.0946 52.3371 71.5116 52.7723C70.9286 53.2074 70.2191 53.4438 69.4893 53.446C66.7752 53.446 66.3716 51.3543 66.3716 50.1094V46.5934H66.0237V50.1749C66.0515 52.4631 67.3059 53.7753 69.4806 53.7753C70.1392 53.7736 70.7856 53.5987 71.3538 53.2685C71.922 52.9383 72.3916 52.4646 72.7148 51.8958V53.4615C72.7148 53.5072 72.7331 53.5511 72.7657 53.5834C72.7983 53.6158 72.8426 53.6339 72.8887 53.6339C72.9349 53.6339 72.9791 53.6158 73.0118 53.5834C73.0444 53.5511 73.0627 53.5072 73.0627 53.4615V46.5934C73.0619 46.5497 73.0444 46.508 73.0137 46.4766C72.983 46.4453 72.9415 46.4266 72.8974 46.4244Z" fill="white"/>
<path d="M60.6235 46.4244C59.8899 46.4244 59.1727 46.6401 58.5628 47.044C57.9528 47.448 57.4774 48.0221 57.1967 48.6939C56.9159 49.3656 56.8425 50.1048 56.9856 50.818C57.1287 51.5311 57.482 52.1861 58.0007 52.7003C58.5194 53.2144 59.1803 53.5645 59.8998 53.7064C60.6194 53.8483 61.3651 53.7754 62.0429 53.4972C62.7207 53.2189 63.3 52.7477 63.7075 52.1432C64.1151 51.5386 64.3326 50.8278 64.3326 50.1007C64.3317 49.126 63.9406 48.1915 63.2452 47.5022C62.5498 46.813 61.6069 46.4254 60.6235 46.4244ZM60.6235 53.4373C59.9572 53.4373 59.306 53.2415 58.752 52.8746C58.1981 52.5077 57.7664 51.9862 57.5115 51.3761C57.2566 50.766 57.1901 50.0947 57.3202 49.4471C57.4503 48.7995 57.7712 48.2047 58.2424 47.7379C58.7137 47.271 59.314 46.9532 59.9674 46.8246C60.6209 46.696 61.2982 46.7624 61.9136 47.0153C62.529 47.2682 63.055 47.6964 63.4248 48.2456C63.7947 48.7948 63.992 49.4404 63.9916 50.1007C63.9903 50.9855 63.6349 51.8337 63.0035 52.4592C62.3721 53.0847 61.5162 53.4364 60.6235 53.4373Z" fill="white"/>
<path d="M26.8305 46.4676C26.7843 46.4676 26.7401 46.4858 26.7075 46.5181C26.6748 46.5505 26.6565 46.5943 26.6565 46.6401V48.2748C26.2549 47.5664 25.6277 47.01 24.873 46.6925C24.1184 46.375 23.2788 46.3144 22.4857 46.5201C21.6926 46.7259 20.9907 47.1864 20.4898 47.8296C19.9888 48.4728 19.7171 49.2624 19.7171 50.075C19.7171 50.8875 19.9888 51.6772 20.4898 52.3204C20.9907 52.9636 21.6926 53.4241 22.4857 53.6298C23.2788 53.8355 24.1184 53.7749 24.873 53.4575C25.6277 53.14 26.2549 52.5835 26.6565 51.8752V53.5081C26.6565 53.5539 26.6748 53.5977 26.7075 53.6301C26.7401 53.6624 26.7843 53.6806 26.8305 53.6806C26.8766 53.6806 26.9209 53.6624 26.9535 53.6301C26.9861 53.5977 27.0045 53.5539 27.0045 53.5081V46.6297C27.0018 46.5858 26.9823 46.5446 26.95 46.5144C26.9176 46.4843 26.8749 46.4676 26.8305 46.4676ZM23.4293 53.4081C22.8039 53.4073 22.1912 53.234 21.6596 52.9076C21.128 52.5812 20.6986 52.1145 20.4195 51.5599C20.1403 51.0053 20.0225 50.3846 20.0792 49.7673C20.1358 49.1501 20.3647 48.5607 20.7402 48.0651C21.1158 47.5695 21.6231 47.1873 22.2054 46.9613C22.7877 46.7353 23.4219 46.6744 24.0371 46.7855C24.6523 46.8966 25.2242 47.1752 25.6887 47.5902C26.1531 48.0052 26.4919 48.5402 26.667 49.1352V51.0078C26.4613 51.7009 26.0348 52.3093 25.4511 52.742C24.8675 53.1747 24.1581 53.4084 23.4293 53.4081Z" fill="white"/>
<path d="M51.8586 46.3951C51.2007 46.3961 50.5548 46.5703 49.9871 46.8999C49.4195 47.2296 48.9504 47.7028 48.6279 48.2712V42.2791C48.6279 42.2334 48.6095 42.1895 48.5769 42.1572C48.5443 42.1249 48.5 42.1067 48.4539 42.1067C48.4078 42.1067 48.3635 42.1249 48.3309 42.1572C48.2982 42.1895 48.2799 42.2334 48.2799 42.2791V53.5046C48.2799 53.5503 48.2982 53.5942 48.3309 53.6265C48.3635 53.6589 48.4078 53.677 48.4539 53.677C48.5 53.677 48.5443 53.6589 48.5769 53.6265C48.6095 53.5942 48.6279 53.5503 48.6279 53.5046V51.8699C48.9476 52.4339 49.4119 52.9041 49.9738 53.2332C50.5357 53.5623 51.1753 53.7386 51.8279 53.7441C52.4806 53.7497 53.1231 53.5844 53.6907 53.265C54.2582 52.9455 54.7306 52.4833 55.0601 51.9249C55.3896 51.3665 55.5646 50.7318 55.5673 50.0849C55.57 49.438 55.4003 48.8019 55.0755 48.2408C54.7507 47.6798 54.2821 47.2136 53.7173 46.8895C53.1524 46.5654 52.5113 46.3949 51.8586 46.3951ZM51.8586 53.408C51.1309 53.4068 50.4232 53.1724 49.8409 52.7399C49.2587 52.3073 48.8332 51.6997 48.6279 51.0077V49.1351C48.8033 48.5404 49.1423 48.0059 49.6069 47.5914C50.0716 47.1769 50.6434 46.8989 51.2585 46.7883C51.8736 46.6778 52.5076 46.7392 53.0895 46.9657C53.6713 47.1921 54.1781 47.5747 54.5529 48.0705C54.9278 48.5663 55.156 49.1558 55.2119 49.7729C55.2679 50.3899 55.1494 51.0103 54.8697 51.5644C54.59 52.1185 54.1601 52.5844 53.6283 52.9101C53.0965 53.2357 52.4837 53.4081 51.8586 53.408Z" fill="white"/>
<path d="M96.8799 46.4244C96.2216 46.4265 95.5756 46.6015 95.0077 46.9317C94.4399 47.2619 93.9705 47.7354 93.6475 48.304V46.7383C93.6475 46.6925 93.6291 46.6487 93.5965 46.6163C93.5639 46.584 93.5196 46.5658 93.4735 46.5658C93.4274 46.5658 93.3831 46.584 93.3505 46.6163C93.3179 46.6487 93.2995 46.6925 93.2995 46.7383V53.6063C93.2995 53.6521 93.3179 53.6959 93.3505 53.7283C93.3831 53.7606 93.4274 53.7788 93.4735 53.7788C93.5196 53.7788 93.5639 53.7606 93.5965 53.7283C93.6291 53.6959 93.6475 53.6521 93.6475 53.6063V49.173C93.8509 48.4783 94.276 47.8675 94.8591 47.4323C95.4421 46.9971 96.1518 46.7609 96.8817 46.759C99.594 46.759 99.9993 48.8506 99.9993 50.0973V53.6029C99.9993 53.6486 100.018 53.6925 100.05 53.7248C100.083 53.7571 100.127 53.7753 100.173 53.7753C100.219 53.7753 100.264 53.7571 100.296 53.7248C100.329 53.6925 100.347 53.6486 100.347 53.6029V50.0249C100.348 50.0197 100.348 50.0145 100.347 50.0093C100.302 47.7298 99.0494 46.4244 96.8799 46.4244Z" fill="white"/>
<path d="M91.1544 50.7371C91.1104 50.7277 91.0644 50.7355 91.0262 50.759C90.9879 50.7825 90.9603 50.8197 90.9491 50.863C90.7924 51.5223 90.4371 52.1188 89.9303 52.5732C89.4235 53.0276 88.7892 53.3185 88.1117 53.4072C87.4342 53.4958 86.7454 53.3782 86.137 53.0697C85.5286 52.7613 85.0292 52.2767 84.7051 51.6803C85.2967 51.5079 86.8572 50.9113 91.1422 49.2662C91.1774 49.248 91.2052 49.2183 91.221 49.1823C91.2368 49.1462 91.2397 49.1059 91.2292 49.0679C90.9753 48.2115 90.4156 47.476 89.6546 46.9987C88.8935 46.5215 87.9832 46.3351 87.0937 46.4743C86.2041 46.6136 85.3961 47.0691 84.8206 47.7556C84.2451 48.4422 83.9414 49.3129 83.9662 50.2052C83.991 51.0975 84.3427 51.9503 84.9555 52.6043C85.5683 53.2584 86.4004 53.6691 87.2963 53.7596C88.1923 53.85 89.0908 53.6142 89.8242 53.0961C90.5575 52.578 91.0755 51.813 91.2814 50.944C91.2919 50.8999 91.2845 50.8535 91.2607 50.8147C91.237 50.776 91.1988 50.7481 91.1544 50.7371ZM84.3033 50.1008C84.297 49.3067 84.5767 48.5363 85.0919 47.9282C85.6072 47.32 86.3244 46.9138 87.1146 46.7825C87.9048 46.6512 88.7164 46.8035 89.4036 47.2119C90.0908 47.6204 90.6085 48.2583 90.8639 49.011C88.557 49.8991 85.2636 51.1527 84.5729 51.3889C84.397 50.9817 84.3053 50.5437 84.3033 50.1008Z" fill="white"/>
<path d="M109.156 50.737C109.112 50.7276 109.066 50.7355 109.027 50.7589C108.989 50.7824 108.962 50.8197 108.95 50.8629C108.794 51.5227 108.439 52.1198 107.932 52.5746C107.425 53.0295 106.79 53.3206 106.112 53.4093C105.434 53.498 104.745 53.3801 104.137 53.0713C103.528 52.7624 103.028 52.2772 102.705 51.6803C103.296 51.5078 104.858 50.9112 109.142 49.2662C109.177 49.2482 109.205 49.2187 109.222 49.1826C109.238 49.1465 109.241 49.106 109.23 49.0679C108.98 48.2189 108.428 47.4881 107.677 47.0095C106.927 46.531 106.027 46.3368 105.144 46.4625C104.26 46.5883 103.452 47.0256 102.868 47.6942C102.283 48.3628 101.962 49.2178 101.962 50.1025C101.959 50.6441 102.078 51.1795 102.31 51.6699C102.309 51.6745 102.309 51.6791 102.31 51.6837C102.64 52.3711 103.178 52.9398 103.849 53.3111C104.52 53.6825 105.29 53.8383 106.054 53.7569C106.818 53.6755 107.538 53.361 108.114 52.8568C108.689 52.3526 109.093 51.6836 109.269 50.9422C109.279 50.9002 109.274 50.8558 109.253 50.8177C109.232 50.7797 109.197 50.7509 109.156 50.737ZM102.303 50.1008C102.303 49.3111 102.585 48.547 103.1 47.9442C103.614 47.3413 104.328 46.9388 105.113 46.8081C105.899 46.6775 106.706 46.8271 107.391 47.2304C108.076 47.6337 108.595 48.2646 108.855 49.011C106.548 49.899 103.256 51.1526 102.564 51.3888C102.392 50.9808 102.303 50.543 102.303 50.1008Z" fill="white"/>
<path d="M114.803 46.4245H114.712C113.016 46.4245 111.976 47.5056 111.49 48.1816V46.5935C111.49 46.5477 111.472 46.5039 111.439 46.4715C111.407 46.4392 111.363 46.421 111.316 46.421C111.27 46.421 111.226 46.4392 111.193 46.4715C111.161 46.5039 111.142 46.5477 111.142 46.5935V53.6081C111.142 53.6538 111.161 53.6977 111.193 53.73C111.226 53.7623 111.27 53.7805 111.316 53.7805C111.363 53.7805 111.407 53.7623 111.439 53.73C111.472 53.6977 111.49 53.6538 111.49 53.6081V48.8179C111.624 48.5609 112.63 46.7607 114.714 46.7607H114.796C114.842 46.7607 114.886 46.7425 114.919 46.7102C114.952 46.6779 114.97 46.634 114.97 46.5883C114.968 46.5452 114.949 46.5045 114.919 46.4742C114.888 46.4439 114.846 46.4261 114.803 46.4245Z" fill="white"/>
<path d="M122.411 46.1124C122.393 46.0716 122.36 46.0393 122.318 46.0223C122.277 46.0052 122.23 46.0048 122.188 46.021L120.457 46.7228C120.011 46.5169 119.523 46.4118 119.031 46.4151C118.538 46.4184 118.053 46.53 117.609 46.7418C117.165 46.9537 116.775 47.2605 116.465 47.6401C116.155 48.0198 115.935 48.4628 115.819 48.9373C115.703 49.4117 115.695 49.9057 115.795 50.3837C115.895 50.8617 116.1 51.3117 116.397 51.7013C116.694 52.0909 117.074 52.4103 117.511 52.6366C117.947 52.8629 118.429 52.9903 118.921 53.0098V53.365C118.551 53.3903 118.193 53.5027 117.877 53.6929C117.56 53.883 117.293 54.1454 117.099 54.4582C117.088 54.4952 117.089 54.5351 117.102 54.5715C117.116 54.6078 117.142 54.6384 117.176 54.6584C117.209 54.6783 117.249 54.6864 117.288 54.6814C117.327 54.6764 117.363 54.6585 117.39 54.6306C117.643 54.223 118.036 53.9197 118.496 53.7769C118.957 53.634 119.454 53.6612 119.896 53.8535C120.338 54.0457 120.695 54.39 120.901 54.8228C121.107 55.2556 121.148 55.7475 121.016 56.2079C120.885 56.6682 120.59 57.0658 120.185 57.3272C119.781 57.5886 119.295 57.6962 118.817 57.63C118.339 57.5639 117.901 57.3285 117.584 56.9673C117.268 56.6062 117.094 56.1437 117.094 55.6652C117.094 55.6195 117.076 55.5756 117.043 55.5433C117.011 55.511 116.966 55.4928 116.92 55.4928C116.874 55.4928 116.83 55.511 116.797 55.5433C116.765 55.5756 116.746 55.6195 116.746 55.6652C116.746 56.1168 116.878 56.5588 117.128 56.9368C117.377 57.3148 117.732 57.6124 118.15 57.7931C118.567 57.9739 119.029 58.0298 119.478 57.9542C119.927 57.8785 120.345 57.6745 120.678 57.3672C121.012 57.0599 121.248 56.6626 121.358 56.2242C121.467 55.7858 121.445 55.3253 121.294 54.8992C121.143 54.4731 120.87 54.1 120.508 53.8256C120.146 53.5512 119.711 53.3875 119.257 53.3546V53.0098C119.965 52.9748 120.643 52.7163 121.193 52.272C121.742 51.8277 122.134 51.221 122.311 50.5403C122.488 49.8597 122.44 49.1408 122.176 48.4887C121.911 47.8367 121.443 47.2856 120.84 46.9159L122.31 46.3193C122.349 46.3031 122.382 46.2731 122.4 46.2349C122.419 46.1968 122.423 46.1531 122.411 46.1124ZM122.082 49.7335C122.082 50.3198 121.907 50.893 121.578 51.3805C121.249 51.868 120.782 52.2479 120.235 52.4722C119.689 52.6965 119.087 52.7551 118.507 52.6406C117.927 52.5261 117.394 52.2436 116.976 51.8289C116.558 51.4141 116.273 50.8858 116.158 50.3107C116.043 49.7356 116.102 49.1396 116.329 48.598C116.556 48.0564 116.939 47.5936 117.431 47.2681C117.923 46.9426 118.502 46.769 119.093 46.7694C119.886 46.7703 120.646 47.0829 121.206 47.6386C121.767 48.1944 122.082 48.9478 122.082 49.7335Z" fill="white"/>
<path d="M130.904 46.44C130.864 46.4219 130.817 46.4201 130.775 46.4348C130.733 46.4496 130.698 46.4798 130.678 46.5193L127.423 53.2167L124.187 46.5193C124.167 46.4794 124.132 46.4488 124.089 46.4341C124.047 46.4193 124 46.4214 123.959 46.44C123.919 46.46 123.888 46.4948 123.873 46.5369C123.858 46.5791 123.86 46.6253 123.879 46.6659L127.233 53.6064L125.217 57.7569C125.198 57.7972 125.196 57.8433 125.21 57.8854C125.225 57.9275 125.255 57.9624 125.295 57.9827C125.319 57.9939 125.344 57.9998 125.37 58C125.402 57.9994 125.433 57.9901 125.46 57.9731C125.487 57.956 125.509 57.9319 125.523 57.9034L130.984 46.6659C131.003 46.6253 131.005 46.5791 130.99 46.5369C130.975 46.4948 130.945 46.46 130.904 46.44Z" fill="white"/>
<path d="M7.42527 42.2792C7.37359 42.2792 7.32403 42.2995 7.28749 42.3357C7.25094 42.372 7.23042 42.4211 7.23042 42.4723C7.23042 42.5792 7.42527 45.9641 7.42527 45.9641C7.42527 45.9641 7.61838 42.5792 7.61838 42.4723C7.61838 42.4214 7.59809 42.3725 7.56193 42.3363C7.52576 42.3002 7.47664 42.2796 7.42527 42.2792Z" fill="white"/>
</g>
<defs>
<clipPath id="clip0_339_1645">
<rect width="131" height="58" fill="white"/>
</clipPath>
</defs>
</svg>
