<svg width="28" height="28" viewBox="0 0 28 28" fill="none" xmlns="http://www.w3.org/2000/svg">
<g clip-path="url(#clip0_1335_50685)">
<circle cx="14" cy="14" r="13.65" stroke="#7AD446" stroke-width="0.7"/>
<path d="M5.56226 16.7362H6.14362V12.6864H6.17742L6.27206 12.8613L8.81381 16.7362H9.55741V11.832H8.97605V15.8818H8.94225L8.82733 15.68L6.32613 11.832H5.56226V16.7362Z" fill="white"/>
<path d="M12.9939 16.8034C13.7195 16.8034 14.2873 16.5926 14.6974 16.1711C15.112 15.745 15.3194 15.1216 15.3194 14.3009V14.274C15.3194 13.7269 15.2247 13.2694 15.0354 12.9017C14.8462 12.5294 14.578 12.2491 14.231 12.0608C13.884 11.8679 13.4716 11.7715 12.9939 11.7715C12.5207 11.7715 12.1106 11.8679 11.7636 12.0608C11.4166 12.2491 11.1484 12.5294 10.9592 12.9017C10.7699 13.2694 10.6752 13.7269 10.6752 14.274V14.3009C10.6752 15.1216 10.8803 15.745 11.2904 16.1711C11.705 16.5926 12.2728 16.8034 12.9939 16.8034ZM12.9939 16.2787C12.6334 16.2787 12.3269 16.2092 12.0746 16.0702C11.8222 15.9311 11.6307 15.7383 11.5 15.4916C11.3738 15.245 11.3107 14.9579 11.3107 14.6305V13.9444C11.3107 13.6215 11.3738 13.3367 11.5 13.09C11.6261 12.8434 11.8132 12.6505 12.061 12.5115C12.3134 12.368 12.6244 12.2962 12.9939 12.2962C13.368 12.2962 13.6789 12.368 13.9268 12.5115C14.1747 12.6505 14.3617 12.8434 14.4879 13.09C14.6141 13.3367 14.6772 13.6215 14.6772 13.9444V14.6305C14.6772 14.9579 14.6118 15.245 14.4811 15.4916C14.3549 15.7383 14.1656 15.9311 13.9133 16.0702C13.6654 16.2092 13.359 16.2787 12.9939 16.2787Z" fill="white"/>
<path d="M16.4416 16.7362H17.0365V11.832H16.4416V16.7362Z" fill="white"/>
<path d="M18.5805 16.7362H19.1754V14.8391H20.4057L21.6901 16.7362H22.3999L21.0682 14.7718C21.4873 14.7225 21.805 14.57 22.0214 14.3144C22.2377 14.0542 22.3458 13.7269 22.3458 13.3322C22.3458 12.8568 22.2061 12.4891 21.9267 12.2289C21.6473 11.9643 21.2372 11.832 20.6964 11.832H18.5805V16.7362ZM20.5882 12.3568C20.9353 12.3568 21.2079 12.4285 21.4062 12.572C21.6045 12.7155 21.7036 12.9218 21.7036 13.1909V13.5273C21.7036 13.8009 21.6045 14.0094 21.4062 14.1529C21.2079 14.2919 20.9353 14.3615 20.5882 14.3615H19.1754V12.3568H20.5882Z" fill="white"/>
</g>
<defs>
<clipPath id="clip0_1335_50685">
<rect width="28" height="28" fill="white"/>
</clipPath>
</defs>
</svg>
