<svg width="98" height="99" viewBox="0 0 98 99" fill="none" xmlns="http://www.w3.org/2000/svg">
<path d="M41.8302 42.6146H40.2618V44.637H38.0881V42.6146H32.9013V41.115L37.4414 35.0065H39.7803L35.5704 40.7986H38.1568V38.9963H40.2618V40.7986H41.8302V42.6146ZM45.7718 38.6248C47.1293 38.6248 48.129 38.8954 48.771 39.4366C49.4222 39.9777 49.7478 40.7023 49.7478 41.6103C49.7478 42.1973 49.6011 42.7339 49.3076 43.22C49.0141 43.6969 48.5647 44.0821 47.9593 44.3756C47.3632 44.66 46.6248 44.8021 45.7443 44.8021C45.0656 44.8021 44.396 44.715 43.7357 44.5407C43.0845 44.3573 42.5296 44.1005 42.071 43.7703L42.9515 42.0643C43.3183 42.3395 43.7402 42.555 44.2172 42.7109C44.6941 42.8577 45.1848 42.931 45.6893 42.931C46.2488 42.931 46.689 42.821 47.01 42.6009C47.331 42.3807 47.4916 42.0735 47.4916 41.6791C47.4916 41.2663 47.3219 40.9545 46.9825 40.7435C46.6523 40.5326 46.0745 40.4271 45.249 40.4271H42.7864L43.2817 35.0065H49.1563V36.795H45.139L44.9876 38.6248H45.7718ZM55.0837 38.9275C55.9276 39.0651 56.5742 39.3815 57.0236 39.8768C57.473 40.3629 57.6977 40.9683 57.6977 41.6928C57.6977 42.2523 57.551 42.7705 57.2575 43.2475C56.964 43.7152 56.5146 44.0913 55.9092 44.3756C55.313 44.66 54.5793 44.8021 53.708 44.8021C53.0292 44.8021 52.3597 44.715 51.6993 44.5407C51.0481 44.3573 50.4932 44.1005 50.0346 43.7703L50.9014 42.0643C51.2682 42.3395 51.6901 42.555 52.1671 42.7109C52.6532 42.8577 53.1485 42.931 53.6529 42.931C54.2124 42.931 54.6527 42.8256 54.9737 42.6146C55.2947 42.3945 55.4552 42.0872 55.4552 41.6928C55.4552 40.9041 54.8544 40.5097 53.6529 40.5097H52.6348V39.0376L54.616 36.795H50.5161V35.0065H57.2575V36.4511L55.0837 38.9275ZM61.8943 38.6248C63.2518 38.6248 64.2515 38.8954 64.8935 39.4366C65.5447 39.9777 65.8703 40.7023 65.8703 41.6103C65.8703 42.1973 65.7236 42.7339 65.4301 43.22C65.1366 43.6969 64.6872 44.0821 64.0818 44.3756C63.4856 44.66 62.7473 44.8021 61.8668 44.8021C61.1881 44.8021 60.5185 44.715 59.8582 44.5407C59.207 44.3573 58.652 44.1005 58.1935 43.7703L59.074 42.0643C59.4408 42.3395 59.8627 42.555 60.3397 42.7109C60.8166 42.8577 61.3073 42.931 61.8118 42.931C62.3713 42.931 62.8115 42.821 63.1325 42.6009C63.4535 42.3807 63.6141 42.0735 63.6141 41.6791C63.6141 41.2663 63.4444 40.9545 63.105 40.7435C62.7748 40.5326 62.197 40.4271 61.3715 40.4271H58.9089L59.4041 35.0065H65.2788V36.795H61.2615L61.1101 38.6248H61.8943ZM40.4285 60.8304H39.3141V63.637H37.1678V56.2353H39.3141V59.1107H40.4697L42.4784 56.2353H44.7622L42.1757 59.7848L44.941 63.637H42.4096L40.4285 60.8304ZM52.8326 58.6154C53.4196 58.7897 53.869 59.074 54.1808 59.4684C54.4927 59.8628 54.6486 60.3489 54.6486 60.9267C54.6486 61.7797 54.323 62.4447 53.6718 62.9216C53.0298 63.3986 52.108 63.637 50.9065 63.637H46.16V54.0065H50.6451C51.764 54.0065 52.6354 54.2221 53.2591 54.6531C53.8827 55.0842 54.1946 55.6987 54.1946 56.4967C54.1946 56.9736 54.0754 57.3955 53.8369 57.7624C53.5984 58.1201 53.2636 58.4045 52.8326 58.6154ZM48.375 57.9963H50.4525C50.9386 57.9963 51.3054 57.9 51.5531 57.7074C51.8007 57.5056 51.9245 57.2121 51.9245 56.8269C51.9245 56.4508 51.7961 56.1619 51.5393 55.9601C51.2917 55.7584 50.9294 55.6575 50.4525 55.6575H48.375V57.9963ZM50.8239 61.9861C51.8695 61.9861 52.3923 61.5733 52.3923 60.7479C52.3923 59.9499 51.8695 59.5509 50.8239 59.5509H48.375V61.9861H50.8239ZM62.4647 57.9963H59.9607V63.637H57.8283V57.9963H55.3243V56.2353H62.4647V57.9963Z" fill="white"/>
<path opacity="0.2" d="M88.6809 49.8405C88.6809 58.4081 85.919 66.7475 80.8049 73.6215C75.6909 80.4954 68.4971 85.5376 60.2909 88C52.0848 90.4624 43.3034 90.2138 35.2497 87.2911C27.1959 84.3685 20.2989 78.9274 15.5819 71.7751C10.8649 64.6229 8.57912 56.1406 9.0638 47.5867C9.54848 39.0327 12.7777 30.8629 18.2725 24.2893C23.7672 17.7157 31.2347 13.0885 39.5671 11.0943C47.8994 9.10005 56.6526 9.845 64.5281 13.2186L63.0601 16.6457C55.9216 13.5878 47.9875 12.9125 40.4349 14.7201C32.8823 16.5278 26.1136 20.7219 21.133 26.6804C16.1525 32.6388 13.2254 40.0441 12.7861 47.7976C12.3468 55.5511 14.4186 63.2396 18.6942 69.7225C22.9698 76.2054 29.2214 81.1373 36.5215 83.7865C43.8215 86.4357 51.7812 86.661 59.2194 84.4291C66.6576 82.1971 73.1782 77.6267 77.8137 71.3961C82.4492 65.1654 84.9527 57.6064 84.9527 49.8405H88.6809Z" stroke="#8BD5FF" stroke-width="4.58595"/>
<g filter="url(#filter0_f_1315_28469)">
<path d="M48.8405 10C56.4007 10 63.8048 12.1511 70.1881 16.202C76.5713 20.253 81.6702 26.0366 84.8892 32.8772C88.1082 39.7179 89.3143 47.3332 88.3668 54.8338C87.4193 62.3344 84.3571 69.4105 79.5381 75.2357C74.719 81.061 68.342 85.3948 61.1519 87.731C53.9617 90.0672 46.2552 90.3094 38.9326 88.4293C31.6099 86.5491 24.9733 82.6243 19.798 77.1132C14.6227 71.602 11.1223 64.7321 9.70568 57.3058L13.808 56.5233C15.0761 63.1711 18.2096 69.3209 22.8424 74.2543C27.4752 79.1877 33.4161 82.7012 39.9711 84.3842C46.5262 86.0673 53.4249 85.8505 59.8613 83.7592C66.2978 81.6678 72.0063 77.7883 76.3202 72.5737C80.6341 67.3591 83.3752 61.0247 84.2235 54.3104C85.0717 47.5961 83.992 40.779 81.1104 34.6554C78.2289 28.5318 73.6645 23.3545 67.9503 19.7282C62.2362 16.1019 55.6082 14.1763 48.8405 14.1763L48.8405 10Z" stroke="url(#paint0_linear_1315_28469)" stroke-width="4.58595"/>
</g>
<path d="M70.1881 16.202C64.3493 12.4967 57.6565 10.3808 50.7713 10.0468C49.7058 9.99511 48.8405 10.8648 48.8405 11.9315V11.9315C48.8405 12.9983 49.7059 13.8576 50.7711 13.9149C56.9228 14.2454 62.8984 16.1512 68.1181 19.4637C73.8825 23.1219 78.487 28.3447 81.3938 34.522C84.3007 40.6994 85.3899 47.5763 84.5342 54.3496C83.6785 61.1229 80.9133 67.513 76.5616 72.7733C72.2098 78.0337 66.4511 81.9473 59.9581 84.057C53.4651 86.1667 46.5059 86.3854 39.8933 84.6876C33.2806 82.9898 27.2876 79.4455 22.6141 74.4687C18.3821 69.9622 15.3904 64.4495 13.913 58.4687C13.6572 57.4331 12.6509 56.744 11.603 56.9439V56.9439C10.5551 57.1438 9.86304 58.1568 10.1135 59.1937C11.7317 65.8943 15.0642 72.0722 19.798 77.1132C24.9733 82.6243 31.6099 86.5491 38.9326 88.4293C46.2552 90.3094 53.9617 90.0672 61.1519 87.731C68.342 85.3948 74.719 81.061 79.5381 75.2357C84.3571 69.4105 87.4193 62.3344 88.3668 54.8338C89.3143 47.3332 88.1082 39.7179 84.8892 32.8772C81.6702 26.0366 76.5713 20.253 70.1881 16.202Z" stroke="url(#paint1_linear_1315_28469)" stroke-width="4.58595"/>
<defs>
<filter id="filter0_f_1315_28469" x="0.144751" y="0.828101" width="97.7082" height="98.0248" filterUnits="userSpaceOnUse" color-interpolation-filters="sRGB">
<feFlood flood-opacity="0" result="BackgroundImageFix"/>
<feBlend mode="normal" in="SourceGraphic" in2="BackgroundImageFix" result="shape"/>
<feGaussianBlur stdDeviation="3.43947" result="effect1_foregroundBlur_1315_28469"/>
</filter>
<linearGradient id="paint0_linear_1315_28469" x1="10.0086" y1="19.9601" x2="91.4868" y2="21.3822" gradientUnits="userSpaceOnUse">
<stop stop-color="#4478FF"/>
<stop offset="1" stop-color="#1E4DC6"/>
</linearGradient>
<linearGradient id="paint1_linear_1315_28469" x1="10.0086" y1="19.9601" x2="91.4868" y2="21.3822" gradientUnits="userSpaceOnUse">
<stop stop-color="#4478FF"/>
<stop offset="1" stop-color="#1E4DC6"/>
</linearGradient>
</defs>
</svg>
