<svg width="92" height="99" viewBox="0 0 92 99" fill="none" xmlns="http://www.w3.org/2000/svg">
<path d="M30.4555 38.9276C31.2994 39.0652 31.946 39.3816 32.3954 39.8769C32.8448 40.363 33.0695 40.9683 33.0695 41.6929C33.0695 42.2524 32.9228 42.7706 32.6293 43.2475C32.3358 43.7153 31.8864 44.0914 31.281 44.3757C30.6848 44.66 29.9511 44.8022 29.0798 44.8022C28.401 44.8022 27.7315 44.715 27.0711 44.5408C26.4199 44.3573 25.865 44.1005 25.4064 43.7703L26.2732 42.0644C26.64 42.3395 27.0619 42.5551 27.5389 42.711C28.025 42.8577 28.5203 42.9311 29.0247 42.9311C29.5842 42.9311 30.0245 42.8256 30.3455 42.6147C30.6665 42.3946 30.827 42.0873 30.827 41.6929C30.827 40.9041 30.2263 40.5097 29.0247 40.5097H28.0066V39.0376L29.9878 36.7951H25.8879V35.0066H32.6293V36.4512L30.4555 38.9276ZM42.9174 42.6147H41.349V44.6371H39.1752V42.6147H33.9885V41.1151L38.5286 35.0066H40.8675L36.6575 40.7986H39.244V38.9964H41.349V40.7986H42.9174V42.6147ZM52.4028 42.6147H50.8344V44.6371H48.6606V42.6147H43.4739V41.1151L48.014 35.0066H50.3529L46.1429 40.7986H48.7294V38.9964H50.8344V40.7986H52.4028V42.6147ZM57.7058 38.5974C58.3203 38.5974 58.8798 38.7212 59.3842 38.9688C59.8887 39.2165 60.2877 39.5696 60.5812 40.0282C60.8747 40.4776 61.0214 41.0004 61.0214 41.5966C61.0214 42.2386 60.8609 42.8027 60.5399 43.2888C60.2189 43.7749 59.7786 44.151 59.2192 44.417C58.6688 44.6738 58.0543 44.8022 57.3756 44.8022C56.0273 44.8022 54.9726 44.3894 54.2113 43.564C53.45 42.7385 53.0694 41.5599 53.0694 40.0282C53.0694 38.9367 53.2758 38.0012 53.6885 37.2216C54.1012 36.442 54.6745 35.8504 55.4082 35.4468C56.1511 35.0433 57.0087 34.8415 57.9809 34.8415C58.4946 34.8415 58.9853 34.9011 59.453 35.0203C59.93 35.1304 60.3335 35.2909 60.6637 35.5019L59.8383 37.1391C59.3613 36.818 58.7606 36.6575 58.036 36.6575C57.2197 36.6575 56.5731 36.896 56.0961 37.3729C55.6192 37.8499 55.3624 38.5424 55.3257 39.4504C55.8943 38.8817 56.6877 38.5974 57.7058 38.5974ZM57.2518 43.1375C57.7287 43.1375 58.1139 43.0091 58.4074 42.7523C58.7101 42.4954 58.8614 42.1469 58.8614 41.7067C58.8614 41.2664 58.7101 40.9179 58.4074 40.6611C58.1139 40.3951 57.7195 40.2621 57.2243 40.2621C56.7382 40.2621 56.3392 40.3997 56.0273 40.6748C55.7155 40.9408 55.5596 41.2848 55.5596 41.7067C55.5596 42.1286 55.7109 42.4725 56.0136 42.7385C56.3162 43.0045 56.729 43.1375 57.2518 43.1375ZM34.4285 60.8305H33.3141V63.6371H31.1678V56.2354H33.3141V59.1107H34.4697L36.4784 56.2354H38.7622L36.1757 59.7849L38.941 63.6371H36.4096L34.4285 60.8305ZM46.8326 58.6155C47.4196 58.7897 47.869 59.0741 48.1808 59.4685C48.4927 59.8628 48.6486 60.349 48.6486 60.9268C48.6486 61.7798 48.323 62.4447 47.6718 62.9217C47.0298 63.3986 46.108 63.6371 44.9065 63.6371H40.16V54.0066H44.6451C45.764 54.0066 46.6354 54.2221 47.2591 54.6532C47.8827 55.0843 48.1946 55.6988 48.1946 56.4968C48.1946 56.9737 48.0754 57.3956 47.8369 57.7625C47.5984 58.1202 47.2636 58.4045 46.8326 58.6155ZM42.375 57.9964H44.4525C44.9386 57.9964 45.3054 57.9001 45.5531 57.7074C45.8007 57.5057 45.9245 57.2122 45.9245 56.8269C45.9245 56.4509 45.7961 56.162 45.5393 55.9602C45.2917 55.7584 44.9294 55.6575 44.4525 55.6575H42.375V57.9964ZM44.8239 61.9861C45.8695 61.9861 46.3923 61.5734 46.3923 60.7479C46.3923 59.95 45.8695 59.551 44.8239 59.551H42.375V61.9861H44.8239ZM56.4647 57.9964H53.9607V63.6371H51.8283V57.9964H49.3243V56.2354H56.4647V57.9964Z" fill="white"/>
<path opacity="0.2" d="M82.6809 49.8405C82.6809 58.4081 79.919 66.7475 74.8049 73.6215C69.6909 80.4954 62.4971 85.5376 54.2909 88C46.0848 90.4624 37.3034 90.2138 29.2497 87.2911C21.1959 84.3685 14.2989 78.9274 9.58189 71.7751C4.86486 64.6229 2.57912 56.1406 3.0638 47.5867C3.54848 39.0327 6.77774 30.8629 12.2725 24.2893C17.7672 17.7157 25.2347 13.0885 33.5671 11.0943C41.8994 9.10005 50.6526 9.845 58.5281 13.2186L57.0601 16.6457C49.9216 13.5878 41.9875 12.9125 34.4349 14.7201C26.8823 16.5278 20.1136 20.7219 15.133 26.6804C10.1525 32.6388 7.2254 40.0441 6.78608 47.7976C6.34676 55.5511 8.4186 63.2396 12.6942 69.7225C16.9698 76.2054 23.2214 81.1373 30.5215 83.7865C37.8215 86.4357 45.7812 86.661 53.2194 84.4291C60.6576 82.1971 67.1782 77.6267 71.8137 71.3961C76.4492 65.1654 78.9527 57.6064 78.9527 49.8405H82.6809Z" stroke="#8BD5FF" stroke-width="4.58595"/>
<g filter="url(#filter0_f_1315_28457)">
<path d="M42.8405 10C52.9738 10 62.7263 13.8613 70.1132 20.798C77.5 27.7347 81.9661 37.2256 82.6023 47.3389C83.2386 57.4522 79.9973 67.4279 73.5381 75.2358C67.0789 83.0436 57.8872 88.0968 47.8338 89.3668L47.3104 85.2235C56.3099 84.0866 64.5381 79.5631 70.3202 72.5737C76.1023 65.5843 79.0039 56.6543 78.4343 47.6011C77.8647 38.5479 73.8668 30.052 67.2543 23.8424C60.6418 17.6328 51.9116 14.1763 42.8405 14.1763L42.8405 10Z" stroke="url(#paint0_linear_1315_28457)" stroke-width="4.58595"/>
</g>
<path d="M70.1132 20.798C63.1967 14.3031 54.2063 10.5043 44.7713 10.0468C43.7058 9.99511 42.8405 10.8648 42.8405 11.9315V11.9315C42.8405 12.9983 43.7061 13.8576 44.7713 13.9149C53.2231 14.3688 61.2687 17.7918 67.4687 23.6141C74.1393 29.8782 78.1723 38.4487 78.7469 47.5814C79.3215 56.7141 76.3945 65.7226 70.5615 72.7734C65.1401 79.3267 57.587 83.7311 49.2587 85.2408C48.2091 85.4311 47.458 86.3922 47.5917 87.4505V87.4505C47.7254 88.5088 48.6929 89.2632 49.7436 89.0784C59.0468 87.442 67.4902 82.5464 73.5381 75.2358C79.9973 67.4279 83.2386 57.4522 82.6023 47.3389C81.9661 37.2256 77.5 27.7347 70.1132 20.798Z" stroke="url(#paint1_linear_1315_28457)" stroke-width="4.58595"/>
<defs>
<filter id="filter0_f_1315_28457" x="33.6686" y="0.828101" width="58.1844" height="97.9799" filterUnits="userSpaceOnUse" color-interpolation-filters="sRGB">
<feFlood flood-opacity="0" result="BackgroundImageFix"/>
<feBlend mode="normal" in="SourceGraphic" in2="BackgroundImageFix" result="shape"/>
<feGaussianBlur stdDeviation="3.43947" result="effect1_foregroundBlur_1315_28457"/>
</filter>
<linearGradient id="paint0_linear_1315_28457" x1="4.00862" y1="19.9601" x2="85.4868" y2="21.3822" gradientUnits="userSpaceOnUse">
<stop stop-color="#4478FF"/>
<stop offset="1" stop-color="#1E4DC6"/>
</linearGradient>
<linearGradient id="paint1_linear_1315_28457" x1="4.00862" y1="19.9601" x2="85.4868" y2="21.3822" gradientUnits="userSpaceOnUse">
<stop stop-color="#4478FF"/>
<stop offset="1" stop-color="#1E4DC6"/>
</linearGradient>
</defs>
</svg>
