<svg width="92" height="99" viewBox="0 0 92 99" fill="none" xmlns="http://www.w3.org/2000/svg">
<path d="M32.2845 38.6248C33.6419 38.6248 34.6417 38.8954 35.2837 39.4366C35.9349 39.9777 36.2605 40.7023 36.2605 41.6103C36.2605 42.1973 36.1137 42.7339 35.8202 43.22C35.5267 43.6969 35.0773 44.0821 34.472 44.3756C33.8758 44.66 33.1375 44.8021 32.257 44.8021C31.5782 44.8021 30.9087 44.715 30.2483 44.5407C29.5971 44.3573 29.0422 44.1005 28.5836 43.7703L29.4641 42.0643C29.831 42.3395 30.2529 42.555 30.7298 42.7109C31.2068 42.8577 31.6975 42.931 32.2019 42.931C32.7614 42.931 33.2017 42.821 33.5227 42.6009C33.8437 42.3807 34.0042 42.0735 34.0042 41.6791C34.0042 41.2663 33.8345 40.9545 33.4952 40.7435C33.165 40.5326 32.5871 40.4271 31.7617 40.4271H29.299L29.7943 35.0065H35.6689V36.795H31.6516L31.5003 38.6248H32.2845ZM40.3995 38.6248C41.7569 38.6248 42.7566 38.8954 43.3987 39.4366C44.0499 39.9777 44.3755 40.7023 44.3755 41.6103C44.3755 42.1973 44.2287 42.7339 43.9352 43.22C43.6417 43.6969 43.1923 44.0821 42.587 44.3756C41.9908 44.66 41.2524 44.8021 40.3719 44.8021C39.6932 44.8021 39.0237 44.715 38.3633 44.5407C37.7121 44.3573 37.1572 44.1005 36.6986 43.7703L37.5791 42.0643C37.946 42.3395 38.3679 42.555 38.8448 42.7109C39.3218 42.8577 39.8125 42.931 40.3169 42.931C40.8764 42.931 41.3167 42.821 41.6377 42.6009C41.9587 42.3807 42.1192 42.0735 42.1192 41.6791C42.1192 41.2663 41.9495 40.9545 41.6102 40.7435C41.28 40.5326 40.7021 40.4271 39.8767 40.4271H37.414L37.9093 35.0065H43.7839V36.795H39.7666L39.6153 38.6248H40.3995ZM54.0985 42.6146H52.5301V44.637H50.3564V42.6146H45.1697V41.115L49.7098 35.0065H52.0486L47.8387 40.7986H50.4252V38.9963H52.5301V40.7986H54.0985V42.6146ZM58.1304 35.0065V44.637H55.9017V36.795H53.9756V35.0065H58.1304ZM34.9285 60.8304H33.8141V63.637H31.6678V56.2353H33.8141V59.1107H34.9697L36.9784 56.2353H39.2622L36.6757 59.7848L39.441 63.637H36.9096L34.9285 60.8304ZM47.3326 58.6154C47.9196 58.7897 48.369 59.074 48.6808 59.4684C48.9927 59.8628 49.1486 60.3489 49.1486 60.9267C49.1486 61.7797 48.823 62.4447 48.1718 62.9216C47.5298 63.3986 46.608 63.637 45.4065 63.637H40.66V54.0065H45.1451C46.264 54.0065 47.1354 54.2221 47.7591 54.6531C48.3827 55.0842 48.6946 55.6987 48.6946 56.4967C48.6946 56.9736 48.5754 57.3955 48.3369 57.7624C48.0984 58.1201 47.7636 58.4045 47.3326 58.6154ZM42.875 57.9963H44.9525C45.4386 57.9963 45.8054 57.9 46.0531 57.7074C46.3007 57.5056 46.4245 57.2121 46.4245 56.8269C46.4245 56.4508 46.2961 56.1619 46.0393 55.9601C45.7917 55.7584 45.4294 55.6575 44.9525 55.6575H42.875V57.9963ZM45.3239 61.9861C46.3695 61.9861 46.8923 61.5733 46.8923 60.7479C46.8923 59.9499 46.3695 59.5509 45.3239 59.5509H42.875V61.9861H45.3239ZM56.9647 57.9963H54.4607V63.637H52.3283V57.9963H49.8243V56.2353H56.9647V57.9963Z" fill="white"/>
<path opacity="0.2" d="M82.6809 49.8405C82.6809 58.4081 79.919 66.7475 74.8049 73.6215C69.6909 80.4954 62.4971 85.5376 54.2909 88C46.0848 90.4624 37.3034 90.2138 29.2497 87.2911C21.1959 84.3685 14.2989 78.9274 9.58189 71.7751C4.86486 64.6229 2.57912 56.1406 3.0638 47.5867C3.54848 39.0327 6.77774 30.8629 12.2725 24.2893C17.7672 17.7157 25.2347 13.0885 33.5671 11.0943C41.8994 9.10005 50.6526 9.845 58.5281 13.2186L57.0601 16.6457C49.9216 13.5878 41.9875 12.9125 34.4349 14.7201C26.8823 16.5278 20.1136 20.7219 15.133 26.6804C10.1525 32.6388 7.2254 40.0441 6.78608 47.7976C6.34676 55.5511 8.4186 63.2396 12.6942 69.7225C16.9698 76.2054 23.2214 81.1373 30.5215 83.7865C37.8215 86.4357 45.7812 86.661 53.2194 84.4291C60.6576 82.1971 67.1782 77.6267 71.8137 71.3961C76.4492 65.1654 78.9527 57.6064 78.9527 49.8405H82.6809Z" stroke="#8BD5FF" stroke-width="4.58595"/>
<g filter="url(#filter0_f_1315_28475)">
<path d="M42.8405 10C49.1277 10 55.3257 11.488 60.9277 14.3424C66.5296 17.1967 71.3765 21.3363 75.0721 26.4228C78.7676 31.5093 81.2069 37.3982 82.1904 43.608C83.174 49.8179 82.6739 56.1723 80.731 62.1518C78.7882 68.1314 75.4577 73.5662 71.0119 78.0119C66.5662 82.4577 61.1314 85.7881 55.1519 87.731C49.1723 89.6739 42.8179 90.174 36.6081 89.1904C30.3982 88.2069 24.5093 85.7676 19.4228 82.0721L21.8776 78.6934C26.4309 82.0016 31.7025 84.1852 37.2614 85.0656C42.8203 85.946 48.5086 85.4984 53.8613 83.7592C59.2141 82.0199 64.0792 79.0386 68.0589 75.0589C72.0386 71.0791 75.02 66.214 76.7592 60.8613C78.4984 55.5086 78.946 49.8202 78.0656 44.2614C77.1852 38.7025 75.0016 33.4309 71.6934 28.8776C68.3853 24.3243 64.0464 20.6186 59.0317 18.0634C54.0169 15.5083 48.4687 14.1763 42.8405 14.1763L42.8405 10Z" stroke="url(#paint0_linear_1315_28475)" stroke-width="4.58595"/>
</g>
<path d="M82.6809 49.8405C82.6809 71.8438 64.8438 89.6809 42.8405 89.6809C20.8372 89.6809 3 71.8438 3 49.8405C3 27.8372 20.8372 10 42.8405 10C64.8438 10 82.6809 27.8372 82.6809 49.8405ZM6.86305 49.8405C6.86305 69.7103 22.9707 85.8179 42.8405 85.8179C62.7103 85.8179 78.8179 69.7103 78.8179 49.8405C78.8179 29.9707 62.7103 13.8631 42.8405 13.8631C22.9707 13.8631 6.86305 29.9707 6.86305 49.8405Z" stroke="url(#paint1_linear_1315_28475)" stroke-width="4.58595"/>
<defs>
<filter id="filter0_f_1315_28475" x="9.34104" y="0.828101" width="82.5118" height="98.0248" filterUnits="userSpaceOnUse" color-interpolation-filters="sRGB">
<feFlood flood-opacity="0" result="BackgroundImageFix"/>
<feBlend mode="normal" in="SourceGraphic" in2="BackgroundImageFix" result="shape"/>
<feGaussianBlur stdDeviation="3.43947" result="effect1_foregroundBlur_1315_28475"/>
</filter>
<linearGradient id="paint0_linear_1315_28475" x1="4.00862" y1="19.9601" x2="85.4868" y2="21.3822" gradientUnits="userSpaceOnUse">
<stop stop-color="#4478FF"/>
<stop offset="1" stop-color="#1E4DC6"/>
</linearGradient>
<linearGradient id="paint1_linear_1315_28475" x1="4.00862" y1="19.9601" x2="85.4868" y2="21.3822" gradientUnits="userSpaceOnUse">
<stop stop-color="#4478FF"/>
<stop offset="1" stop-color="#1E4DC6"/>
</linearGradient>
</defs>
</svg>
