<svg width="16" height="16" viewBox="0 0 16 16" fill="none" xmlns="http://www.w3.org/2000/svg">
<g opacity="0.3">
<path d="M14.4734 13.5266L12.0001 11.0733C12.9601 9.87621 13.4251 8.3568 13.2993 6.82747C13.1735 5.29814 12.4665 3.87512 11.3237 2.85103C10.181 1.82694 8.68926 1.27961 7.15534 1.32158C5.62142 1.36356 4.16187 1.99164 3.07682 3.0767C1.99177 4.16175 1.36368 5.6213 1.32171 7.15522C1.27973 8.68914 1.82706 10.1808 2.85115 11.3236C3.87525 12.4664 5.29826 13.1733 6.82759 13.2991C8.35692 13.4249 9.87633 12.96 11.0734 11.9999L13.5267 14.4533C13.5887 14.5158 13.6624 14.5654 13.7437 14.5992C13.8249 14.633 13.9121 14.6505 14.0001 14.6505C14.0881 14.6505 14.1752 14.633 14.2564 14.5992C14.3377 14.5654 14.4114 14.5158 14.4734 14.4533C14.5936 14.329 14.6607 14.1628 14.6607 13.9899C14.6607 13.817 14.5936 13.6509 14.4734 13.5266ZM7.33339 11.9999C6.41041 11.9999 5.50816 11.7262 4.74073 11.2135C3.9733 10.7007 3.37516 9.97185 3.02195 9.11913C2.66874 8.2664 2.57633 7.32809 2.75639 6.42285C2.93646 5.5176 3.38092 4.68608 4.03356 4.03344C4.68621 3.38079 5.51773 2.93634 6.42297 2.75627C7.32822 2.57621 8.26653 2.66862 9.11925 3.02183C9.97197 3.37504 10.7008 3.97318 11.2136 4.74061C11.7264 5.50804 12.0001 6.41029 12.0001 7.33327C12.0001 8.57095 11.5084 9.75793 10.6332 10.6331C9.75805 11.5083 8.57107 11.9999 7.33339 11.9999Z" fill="white"/>
</g>
</svg>
