<svg width="32" height="32" viewBox="0 0 32 32" fill="none" xmlns="http://www.w3.org/2000/svg">
<mask id="mask0_1387_11054" style="mask-type:alpha" maskUnits="userSpaceOnUse" x="0" y="0" width="32" height="192">
<path d="M11.825 3.0627C10.2813 3.2627 8.75005 3.84395 7.37505 4.75645C6.6063 5.2627 5.2938 6.56895 4.7688 7.34395C4.01255 8.46895 3.47505 9.7377 3.1813 11.1252C2.97505 12.0752 2.97505 13.9252 3.1813 14.8752C3.47505 16.2564 4.01255 17.5377 4.7688 18.6564C5.2938 19.4314 6.6063 20.7377 7.37505 21.2439C8.5438 22.0189 9.75005 22.5314 11.125 22.8189C11.6625 22.9314 11.9938 22.9564 12.9375 22.9627C14.4875 22.9689 15.4 22.7877 16.9 22.1752L17.5125 21.9252L20.3063 24.7064C22.0438 26.4377 23.2063 27.5502 23.3938 27.6564C24.8375 28.4814 26.7063 28.0689 27.575 26.7252C28.2125 25.7314 28.25 24.4252 27.6563 23.3939C27.55 23.2064 26.4375 22.0439 24.7 20.3064L21.9188 17.5127L22.2063 16.8064C22.8125 15.3002 22.9688 14.4939 22.9625 12.9377C22.9563 11.6377 22.8563 10.9939 22.4688 9.8377C21.3438 6.45645 18.4188 3.89395 14.8875 3.18145C14.1813 3.04395 12.5188 2.9752 11.825 3.0627ZM13.4875 7.1252C13.6938 7.21895 13.7813 7.30645 13.875 7.5127C13.9938 7.76895 14 7.9627 14 12.5002C14 17.0377 13.9938 17.2314 13.875 17.4877C13.5688 18.1627 12.4313 18.1627 12.125 17.4877C12.0063 17.2314 12 17.0377 12 12.5002C12 7.9627 12.0063 7.76895 12.125 7.5127C12.2625 7.2127 12.6188 7.0002 13 7.0002C13.1188 7.0002 13.3375 7.05645 13.4875 7.1252ZM17.4875 9.1252C17.6938 9.21895 17.7813 9.30645 17.875 9.5127C17.9938 9.76895 18 9.9502 18 13.5002C18 17.0502 17.9938 17.2314 17.875 17.4877C17.5688 18.1627 16.4313 18.1627 16.125 17.4877C16.0063 17.2314 16 17.0502 16 13.5002C16 9.9502 16.0063 9.76895 16.125 9.5127C16.2625 9.2127 16.6188 9.0002 17 9.0002C17.1188 9.0002 17.3375 9.05645 17.4875 9.1252ZM9.48755 11.1252C9.6938 11.2189 9.7813 11.3064 9.87505 11.5127C9.98755 11.7627 10 11.9439 10 14.5002C10 17.0564 9.98755 17.2377 9.87505 17.4877C9.5688 18.1627 8.4313 18.1627 8.12505 17.4877C8.01255 17.2377 8.00005 17.0564 8.00005 14.5002C8.00005 11.9439 8.01255 11.7627 8.12505 11.5127C8.26255 11.2127 8.6188 11.0002 9.00005 11.0002C9.1188 11.0002 9.33755 11.0564 9.48755 11.1252Z" fill="black"/>
</mask>
<g mask="url(#mask0_1387_11054)">
<rect width="32" height="32" fill="#0D0D0D"/>
</g>
</svg>
