<svg width="16" height="17" viewBox="0 0 16 17" fill="none" xmlns="http://www.w3.org/2000/svg">
<g opacity="0.7">
<path d="M11.5335 3.83333C12.6668 4.83333 13.3335 6.23333 13.3335 7.83333C13.3335 10.7667 10.9335 13.1667 8.00016 13.1667C5.06683 13.1667 2.66683 10.7667 2.66683 7.83333C2.66683 6.23333 3.40016 4.83333 4.46683 3.83333H11.5335ZM12.0002 2.5H4.00016L3.60016 2.83333C2.1335 4.1 1.3335 5.9 1.3335 7.83333C1.3335 11.5 4.3335 14.5 8.00016 14.5C11.6668 14.5 14.6668 11.5 14.6668 7.83333C14.6668 5.9 13.8668 4.1 12.4002 2.83333L12.0002 2.5ZM8.66683 5.5C8.66683 6.03333 9.1335 6.5 9.66683 6.5C10.2002 6.5 10.6668 6.03333 10.6668 5.5C10.6668 4.96667 10.2002 4.5 9.66683 4.5C9.1335 4.5 8.66683 4.96667 8.66683 5.5ZM5.3335 5.5C5.3335 6.03333 5.80016 6.5 6.3335 6.5C6.86683 6.5 7.3335 6.03333 7.3335 5.5C7.3335 4.96667 6.86683 4.5 6.3335 4.5C5.80016 4.5 5.3335 4.96667 5.3335 5.5ZM4.66683 9.16667C5.40016 9.16667 6.00016 8.56667 6.00016 7.83333C6.00016 7.1 5.40016 6.5 4.66683 6.5C3.9335 6.5 3.3335 7.1 3.3335 7.83333C3.3335 8.56667 3.9335 9.16667 4.66683 9.16667ZM7.66683 10.5C7.66683 9.76667 7.06683 9.16667 6.3335 9.16667C5.60016 9.16667 5.00016 9.76667 5.00016 10.5C5.00016 11.2333 5.60016 11.8333 6.3335 11.8333C7.06683 11.8333 7.66683 11.2333 7.66683 10.5ZM8.00016 9.16667C8.7335 9.16667 9.3335 8.56667 9.3335 7.83333C9.3335 7.1 8.7335 6.5 8.00016 6.5C7.26683 6.5 6.66683 7.1 6.66683 7.83333C6.66683 8.56667 7.26683 9.16667 8.00016 9.16667ZM11.0002 10.5C11.0002 9.76667 10.4002 9.16667 9.66683 9.16667C8.9335 9.16667 8.3335 9.76667 8.3335 10.5C8.3335 11.2333 8.9335 11.8333 9.66683 11.8333C10.4002 11.8333 11.0002 11.2333 11.0002 10.5ZM12.6668 7.83333C12.6668 7.1 12.0668 6.5 11.3335 6.5C10.6002 6.5 10.0002 7.1 10.0002 7.83333C10.0002 8.56667 10.6002 9.16667 11.3335 9.16667C12.0668 9.16667 12.6668 8.56667 12.6668 7.83333Z" fill="white"/>
</g>
</svg>
